<svg xmlns="http://www.w3.org/2000/svg" width="195.656" height="52" viewBox="0 0 195.656 52">
  <defs>
    <style>
      .cls-1, .cls-2 {
        fill: #f84537;
        fill-rule: evenodd;
      }

      .cls-2 {
        stroke: #f84537;
        stroke-linejoin: round;
        stroke-width: 1px;
      }
    </style>
  </defs>
  <path id="CoralNodes" class="cls-1" d="M54.524,38.173a17.677,17.677,0,0,0,3.232-.282,22.35,22.35,0,0,0,2.561-.61,7.83,7.83,0,0,0,1.046-.36l0.312-.375q0.062-1.627.3-3.442T62.3,30.757l-3,.188a6.4,6.4,0,0,1-1.343,3.332,3.474,3.474,0,0,1-2.686,1.048A4.393,4.393,0,0,1,51.385,33.2,10.886,10.886,0,0,1,50,27.221a8.618,8.618,0,0,1,1.3-5.163,4.391,4.391,0,0,1,3.763-1.752,4.4,4.4,0,0,1,2.654.641,2.373,2.373,0,0,1,.843,2.018q0,0.595-.031,1.048t-0.031.579l2.967-.188q0.094-1.47.281-2.785t0.344-2.1q0.156-.782.219-1l-0.187-.407q-0.25-.062-1.187-0.25t-2.264-.36a19.439,19.439,0,0,0-2.483-.172,11.8,11.8,0,0,0-5.762,1.361,9.412,9.412,0,0,0-3.826,3.833,11.943,11.943,0,0,0-1.343,5.789,11.509,11.509,0,0,0,1.124,5.257,7.951,7.951,0,0,0,3.217,3.41,9.817,9.817,0,0,0,4.934,1.189h0Zm16.177,0a7.5,7.5,0,0,0,3.919-1.017,6.9,6.9,0,0,0,2.639-2.847,9.039,9.039,0,0,0,.937-4.177,7.413,7.413,0,0,0-1.764-5.21A6.183,6.183,0,0,0,71.637,23a7.5,7.5,0,0,0-3.919,1.017,7.031,7.031,0,0,0-2.654,2.832,8.818,8.818,0,0,0-.953,4.162,8.3,8.3,0,0,0,.812,3.755,5.946,5.946,0,0,0,2.311,2.519,6.65,6.65,0,0,0,3.466.892h0Zm0.625-2.347a2.547,2.547,0,0,1-2.342-1.5,9.588,9.588,0,0,1-.812-4.443,5.861,5.861,0,0,1,.7-3.176,2.29,2.29,0,0,1,2.045-1.079,2.547,2.547,0,0,1,2.342,1.5,9.6,9.6,0,0,1,.812,4.443,5.859,5.859,0,0,1-.7,3.176,2.29,2.29,0,0,1-2.046,1.08h0ZM80.6,36.014l-0.25,1.909q0.343-.031,1.53-0.078t2.373-.047q1.249,0,2.42.047t1.608,0.078l0.344-2.065-0.094-.188a5.825,5.825,0,0,1-.625.063q-0.468.032-.937,0.031a1.2,1.2,0,0,1-.953-0.313,1.781,1.781,0,0,1-.265-1.126q0.031-1.189.14-3.176t0.141-2.863A4.484,4.484,0,0,1,87.1,27.253a1.932,1.932,0,0,1,1.062-.376,0.68,0.68,0,0,1,.7.485,7.257,7.257,0,0,1,.172,1.987l2-.125q0.094-1.6.312-3.364t0.312-2.3l-0.125-.25a2.248,2.248,0,0,0-.375-0.063,6.815,6.815,0,0,0-.718-0.031,3.952,3.952,0,0,0-2.233.813,8.248,8.248,0,0,0-2.139,2.284l-0.187-.125q0.031-.845.141-1.752t0.172-1.189l-0.281-.282q-0.5.094-2.233,0.438t-3.388.626L80.1,25.594l0.156,0.219,0.593-.031a1.232,1.232,0,0,1,1.062.391,2.663,2.663,0,0,1,.281,1.455v6.227a2.951,2.951,0,0,1-.328,1.658,1.647,1.647,0,0,1-1.265.5h0Zm23.078,2.159a3.588,3.588,0,0,0,1.609-1.142,10.793,10.793,0,0,0,1.389-1.924l-0.468-.657a3.994,3.994,0,0,1-.7.36,2.105,2.105,0,0,1-.8.172,1.044,1.044,0,0,1-.812-0.344,1.345,1.345,0,0,1-.312-0.939q0-.594.343-3.63a27.458,27.458,0,0,0,.281-2.816,3.96,3.96,0,0,0-1.3-3.082A5.63,5.63,0,0,0,99.025,23a7.324,7.324,0,0,0-2.436.751q-1.718.751-3.279,1.627l0.531,1.877,0.281,0.125a9.046,9.046,0,0,1,1.827-1.048,4.658,4.658,0,0,1,1.827-.422,2.594,2.594,0,0,1,1.967.751,2.911,2.911,0,0,1,.719,2.1l-0.032.751L94.4,30.913a2.3,2.3,0,0,0-1.312.923,2.816,2.816,0,0,0-.5,1.674,4.55,4.55,0,0,0,1.218,3.239,4.018,4.018,0,0,0,3.061,1.3,2.891,2.891,0,0,0,1.5-.673,14.575,14.575,0,0,0,1.937-1.705l0.249,0.094a2.574,2.574,0,0,0,.953,1.8,3.485,3.485,0,0,0,2.17.61h0Zm-5.652-3.1a1.607,1.607,0,0,1-1.265-.548,1.978,1.978,0,0,1-.484-1.361,0.943,0.943,0,0,1,.749-1.033l3.341-.939-0.094,2.973a4.225,4.225,0,0,1-1.14.657,3.12,3.12,0,0,1-1.109.25h0Zm9.306,3a33.088,33.088,0,0,1,3.56-.282q0.749,0,2.5.063l1.031,0.031,0.343-1.846-0.093-.188-1.031.063a0.813,0.813,0,0,1-.718-0.313,2,2,0,0,1-.219-1.1q0-7.6.266-12.954t0.7-6.383l-0.218-.594q-2.53.5-6.309,1l-0.187,1.658,0.125,0.125a4.6,4.6,0,0,1,1.343.047,0.761,0.761,0,0,1,.546.469,3.634,3.634,0,0,1,.141,1.2V33.6a7.227,7.227,0,0,1-.094,1.361,1.35,1.35,0,0,1-.422.751,2.272,2.272,0,0,1-1.046.454ZM131.5,38.642l3.154-.407,0.406-16.646a1.933,1.933,0,0,1,.484-1.377,2.737,2.737,0,0,1,1.514-.594l0.157-2.065q-0.375.031-1.546,0.094t-2.108.063q-1.188,0-2.358-.047t-1.608-.078l-0.219,1.94,0.094,0.219,1.093-.031a0.894,0.894,0,0,1,.765.313,1.9,1.9,0,0,1,.265,1.032l0.063,9.543h-0.312q0,0.063-2.952-4.381t-5.512-8.636q-0.281.032-1.2,0.078t-1.733.047q-0.969,0-2.093-.063t-1.467-.094l-0.219,1.784,0.219,0.282a4.169,4.169,0,0,1,2.03.563,1.728,1.728,0,0,1,.5,1.408l-0.374,12.422a2.047,2.047,0,0,1-.469,1.392,2.314,2.314,0,0,1-1.405.579l-0.219,2.065,1.53-.141q1.186-.11,2.218-0.109,1.187,0,2.373.047t1.624,0.078l0.312-1.971-0.156-.188-1.374.063a1,1,0,0,1-.827-0.3,1.878,1.878,0,0,1-.235-1.111l0.032-9.856h0.281q0-.062,3.107,4.568t6.168,9.512h0Zm13.241-.469a7.5,7.5,0,0,0,3.919-1.017,6.894,6.894,0,0,0,2.639-2.847,9.034,9.034,0,0,0,.937-4.177,7.413,7.413,0,0,0-1.764-5.21A6.185,6.185,0,0,0,145.681,23a7.494,7.494,0,0,0-3.919,1.017,7.033,7.033,0,0,0-2.655,2.832,8.822,8.822,0,0,0-.952,4.162,8.292,8.292,0,0,0,.812,3.755,5.941,5.941,0,0,0,2.311,2.519,6.649,6.649,0,0,0,3.466.892h0Zm0.625-2.347a2.545,2.545,0,0,1-2.342-1.5,9.583,9.583,0,0,1-.812-4.443,5.865,5.865,0,0,1,.7-3.176,2.291,2.291,0,0,1,2.046-1.079,2.547,2.547,0,0,1,2.342,1.5,9.6,9.6,0,0,1,.812,4.443,5.854,5.854,0,0,1-.7,3.176,2.289,2.289,0,0,1-2.045,1.08h0Zm21.61,2.347a3.833,3.833,0,0,0,1.452-.939,9.425,9.425,0,0,0,1.14-1.314,8.974,8.974,0,0,0,.531-0.814l-0.5-.657c-0.042.021-.13,0.073-0.265,0.156a3.453,3.453,0,0,1-.515.25,1.747,1.747,0,0,1-.656.125,0.875,0.875,0,0,1-.734-0.344,1.5,1.5,0,0,1-.266-0.939q0-6.977.282-12.484t0.687-6.1l-0.281-.532q-0.562.125-2.436,0.469t-3.717.563l-0.187,1.846a1.158,1.158,0,0,1,.281-0.063,3.356,3.356,0,0,1,.468-0.031,1.2,1.2,0,0,1,1.015.391,2.326,2.326,0,0,1,.3,1.361v4.036a15.272,15.272,0,0,0-1.624-.094,7.873,7.873,0,0,0-4.044,1.048,7.412,7.412,0,0,0-2.811,2.91,8.59,8.59,0,0,0-1.015,4.177A7.354,7.354,0,0,0,155.69,36.2a5.445,5.445,0,0,0,4.325,1.846q0.624,0,3.654-2.19l0.187,0.063q0.344,2.253,3.123,2.253h0Zm-5.809-3a2.576,2.576,0,0,1-2.264-1.408,7.085,7.085,0,0,1-.858-3.724,5.377,5.377,0,0,1,.843-3.238,2.778,2.778,0,0,1,2.373-1.142,4.652,4.652,0,0,1,1.124.125,6.536,6.536,0,0,1,.812.25q0.312,0.125.375,0.156V34.1a4.156,4.156,0,0,1-.453.344,5.115,5.115,0,0,1-.905.485,2.657,2.657,0,0,1-1.047.235h0Zm16.739,3a6.337,6.337,0,0,0,2.639-.72,15.241,15.241,0,0,0,2.67-1.6l-0.5-1.533L182.5,34.2a9.265,9.265,0,0,1-3.717.939,3.662,3.662,0,0,1-2.92-1.2,5.284,5.284,0,0,1-1.077-3.489h8.088l0.375-.375a6.719,6.719,0,0,0,.219-1.752q0-5.319-5.247-5.319a6.955,6.955,0,0,0-3.747,1.048,7.4,7.4,0,0,0-2.655,2.863,8.51,8.51,0,0,0-.968,4.068,7.2,7.2,0,0,0,1.889,5.272,6.914,6.914,0,0,0,5.169,1.924h0Zm-3.123-9.449a4.146,4.146,0,0,1,.921-2.441,2.552,2.552,0,0,1,1.983-.845q1.968,0,1.968,2.315a0.944,0.944,0,0,1-.11.563,0.741,0.741,0,0,1-.484.157Zm14.99,9.449a8.117,8.117,0,0,0,3.216-.626,5.746,5.746,0,0,0,2.311-1.69,3.691,3.691,0,0,0,.844-2.347,3.4,3.4,0,0,0-.391-1.674,4.42,4.42,0,0,0-1.374-1.392,20.5,20.5,0,0,0-2.826-1.564,6.273,6.273,0,0,1-1.655-1.064,1.523,1.523,0,0,1-.5-1.1,1.165,1.165,0,0,1,.562-0.986,2.348,2.348,0,0,1,1.374-.391,2.3,2.3,0,0,1,1.655.516,2.161,2.161,0,0,1,.531,1.611l-0.031.563,1.749-.125q0.124-1.282.328-2.488t0.265-1.549l-0.156-.313q-0.125-.031-0.578-0.172a9.326,9.326,0,0,0-1.233-.266A10.721,10.721,0,0,0,192.18,23a8.636,8.636,0,0,0-3.341.61,5.328,5.328,0,0,0-2.28,1.69,4.028,4.028,0,0,0-.812,2.488,3.429,3.429,0,0,0,.843,2.3,8.04,8.04,0,0,0,2.717,1.862,14.208,14.208,0,0,1,2.5,1.424,1.479,1.479,0,0,1,.624,1.142,1.153,1.153,0,0,1-.593.986,2.671,2.671,0,0,1-1.5.391q-2.748,0-2.78-3.16l-1.717.157q-0.063,1.033-.172,2.159t-0.234,1.971l0.187,0.313q0.125,0.063.656,0.266a9.536,9.536,0,0,0,1.452.391,10.276,10.276,0,0,0,2.046.188h0Z" transform="translate(-0.5 -0.5)"/>
  <path id="cn-logo-icon-v3_1" data-name="cn-logo-icon-v3 1" class="cls-2" d="M26.053,26.474A2.549,2.549,0,1,1,23.5,23.926,2.549,2.549,0,0,1,26.053,26.474ZM9.973,33.987V18.7l13.515-7.709L36.643,18.7V33.987L34.29,32.68V20.4l-10.8-6.271-10.769,6.01V32.419ZM42.265,16.871L23.488,6.157,5.659,16.348,5.789,36.6l17.7,10.191L41.088,36.6l2.353,1.7-20,11.628L3.044,38.037V14.911L23.488,3.152l20.084,11.5Z" transform="translate(-0.5 -0.5)"/>
</svg>
