<?xml version="1.0" encoding="UTF-8" standalone="no"?>
<!-- Created with Inkscape (http://www.inkscape.org/) -->

<svg
   version="1.1"
   id="svg1"
   width="12.290472in"
   height="3.6317325in"
   viewBox="0 0 1179.8853 348.64631"
   sodipodi:docname="photovaliant-logo.svg"
   inkscape:version="1.4.2 (1:1.4.2+202505120738+ebf0e940d0)"
   inkscape:export-filename="photovaliant-logo-2.svg"
   inkscape:export-xdpi="96"
   inkscape:export-ydpi="96"
   xmlns:inkscape="http://www.inkscape.org/namespaces/inkscape"
   xmlns:sodipodi="http://sodipodi.sourceforge.net/DTD/sodipodi-0.dtd"
   xmlns="http://www.w3.org/2000/svg"
   xmlns:svg="http://www.w3.org/2000/svg">
  <defs
     id="defs1">
    <clipPath
       clipPathUnits="userSpaceOnUse"
       id="clipPath29">
      <path
         id="path29"
         style="stroke-width:6.80316"
         d="m 158.80226,292.19272 a 45.76194,45.76194 0 0 0 -45.76206,45.76157 45.76194,45.76194 0 0 0 45.76206,45.76205 45.76194,45.76194 0 0 0 45.22408,-39.05427 45.76194,45.76194 0 0 1 -0.20354,1.49794 45.76194,45.76194 0 0 0 45.07202,37.84842 45.76194,45.76194 0 0 0 45.76205,-45.76205 45.76194,45.76194 0 0 0 -45.76205,-45.76206 45.76194,45.76194 0 0 0 -45.02006,37.55634 45.76194,45.76194 0 0 0 -45.0725,-37.84794 z m 45.76205,45.76157 a 45.76194,45.76194 0 0 1 -0.34886,5.31762 45.76194,45.76194 0 0 0 0.34886,-5.31762 z" />
    </clipPath>
  </defs>
  <sodipodi:namedview
     id="namedview1"
     pagecolor="#505050"
     bordercolor="#eeeeee"
     borderopacity="1"
     inkscape:showpageshadow="0"
     inkscape:pageopacity="0"
     inkscape:pagecheckerboard="0"
     inkscape:deskcolor="#d1d1d1"
     showgrid="false"
     showguides="true"
     inkscape:zoom="1.211039"
     inkscape:cx="943.81769"
     inkscape:cy="424.01609"
     inkscape:window-width="2560"
     inkscape:window-height="1369"
     inkscape:window-x="0"
     inkscape:window-y="34"
     inkscape:window-maximized="1"
     inkscape:current-layer="svg1"
     inkscape:document-units="in">
    <sodipodi:guide
       position="-689.80202,657.63287"
       orientation="0,-1"
       id="guide5"
       inkscape:locked="false" />
    <sodipodi:guide
       position="-1221.5768,1060.5927"
       orientation="1,0"
       id="guide6"
       inkscape:locked="false" />
    <inkscape:page
       x="-1.2002434e-12"
       y="-3.0385655e-13"
       width="1179.8853"
       height="348.6463"
       id="page2"
       margin="0"
       bleed="0" />
  </sodipodi:namedview>
  <path
     id="circle10"
     clip-path="none"
     style="display:inline;fill:#d2933a;stroke-width:13.3103"
     d="M 347.29587,161.15871 A 161.15872,161.15872 0 0 1 186.13715,322.31743 161.15872,161.15872 0 0 1 24.978422,161.15871 161.15872,161.15872 0 0 1 186.13715,-7.1174951e-6 161.15872,161.15872 0 0 1 347.29587,161.15871 Z"
     inkscape:export-filename="circle10.svg"
     inkscape:export-xdpi="96"
     inkscape:export-ydpi="96" />
  <path
     style="display:inline;fill:#963a0b;fill-opacity:1;stroke:none;stroke-width:21.1807"
     d="m 181.80142,135.57317 c 0,0 -5.52177,-4.90822 -6.33977,-6.54426 -0.81804,-1.63604 -4.29466,-9.40737 -4.90817,-11.04341 -0.61352,-1.63605 -0.20471,-5.52173 -0.20471,-5.52173 l -27.813,-37.220407 c 0,0 -12.27052,-10.63444 -13.08852,-11.65693 -0.81804,-1.02253 -6.54426,-5.52177 -8.38483,-8.38479 -1.84058,-2.86315 -6.33973,-7.56684 -6.33973,-7.56684 0,0 4.70364,-0.81804 6.33973,-0.61355 1.63608,0.2047 3.47662,2.65862 5.11266,3.68115 1.63613,1.02258 17.58767,9.61186 19.42829,11.8615 1.84053,2.2496 7.56675,4.70364 9.61186,6.33969 2.04511,1.63608 7.36226,6.74875 9.40737,7.15781 2.04502,0.40898 2.2496,-0.61355 1.84053,-3.88564 -0.40898,-3.27217 -4.09017,-7.15777 -4.09017,-9.40737 0,-2.2496 1.43155,-3.47666 1.43155,-5.3172 0,-1.84057 -3.27208,-3.68115 -3.06759,-5.52172 0.2047,-1.84054 2.0451,-4.29467 1.84057,-5.72622 -0.2047,-1.43156 -4.90826,-6.74884 -4.49919,-7.97582 0.40898,-1.22706 9.40737,0.20471 13.29305,3.47662 3.88564,3.27218 18.95463,14.93449 24.54091,23.31385 5.72622,8.58937 9.61186,16.56519 11.86146,19.63283 2.2496,3.06764 3.68115,5.93075 5.1127,5.72617 1.43156,-0.2047 0.81801,-3.27209 1.84058,-5.11266 1.02253,-1.84058 4.29462,-7.77129 6.13524,-8.79386 1.84053,-1.02253 7.77124,-4.90813 14.11101,-5.11271 6.33977,-0.2047 14.11101,1.22707 17.99665,0 3.88569,-1.22698 16.56519,-7.97573 17.79225,-8.1803 1.22698,-0.2047 17.79216,-7.15773 17.79216,-7.15773 0,0 1.22703,0 1.43156,0.81804 0.2047,0.818 -1.22707,1.43156 -2.65862,2.24956 -1.43155,0.81804 -20.45078,9.40737 -23.10936,11.04345 -2.65862,1.63605 -3.68115,1.43156 -7.97581,6.1352 -4.29467,4.70373 -5.52173,7.15777 -7.15782,12.47497 -1.63604,5.31719 -10.83892,48.263867 -11.45239,49.695417 -0.61351,1.43151 -5.31724,9.40733 -9.20288,12.47492 -3.88564,3.06769 -24.13193,16.97421 -24.13193,16.97421 0,0 -4.09013,3.68115 -6.54418,4.09013 -2.45413,0.40898 -6.74883,0.40898 -9.40737,1.84058 -2.65862,1.43159 -2.86315,4.09013 -6.13528,6.54421 -3.27209,2.45413 -6.74875,4.90822 -13.70199,8.79386 -6.95328,3.88569 -12.67946,6.13524 -17.38318,10.42995 -4.70369,4.29457 -7.77129,6.54417 -9.40737,8.38479 -1.63605,1.84053 -4.49916,4.70364 -5.72618,3.68111 -1.22706,-1.02249 -2.86311,-3.27213 -1.22706,-5.31715 1.63604,-2.04511 6.95324,-8.38488 9.40737,-13.08852 2.45408,-4.70369 6.54426,-16.15612 10.83888,-21.47332 4.29466,-5.31719 26.79055,-36.19788 26.79055,-36.19788 z"
     id="path1"
     sodipodi:nodetypes="cssccsscsssssssssssssssssssscssssssscssssssssssc" />
  <path
     id="path20"
     style="display:inline;fill:#1a1a1a;stroke-width:28.8925"
     d="m 237.68823,84.276533 a 2.7896791,2.7896791 0 0 1 -2.78968,2.78968 2.7896791,2.7896791 0 0 1 -2.78968,-2.78968 2.7896791,2.7896791 0 0 1 2.78968,-2.78968 2.7896791,2.7896791 0 0 1 2.78968,2.78968 z" />
  <path
     id="circle21"
     style="display:inline;fill:#f9f9f9;stroke-width:7.57355"
     inkscape:transform-center-x="-1.8457046"
     inkscape:transform-center-y="-1.6611659"
     d="m 236.11657,83.275953 a 0.73028879,0.73125717 0 0 1 -0.73031,0.73124 0.73028879,0.73125717 0 0 1 -0.7303,-0.73124 0.73028879,0.73125717 0 0 1 0.7303,-0.73128 0.73028879,0.73125717 0 0 1 0.73031,0.73128 z" />
  <path
     id="path4"
     clip-path="url(#clipPath29)"
     style="display:inline;fill:#51760b;stroke-width:3.77953"
     inkscape:label="path4"
     d="m 203.84878,244.79367 a 45.76194,45.76194 0 0 0 -45.76205,45.76205 45.76194,45.76194 0 0 0 45.76205,45.76157 45.76194,45.76194 0 0 0 45.76157,-45.76157 45.76194,45.76194 0 0 0 -45.76157,-45.76205 z"
     transform="matrix(4.0589547,0,0,4.0589547,-641.66688,-1016.4504)" />
  <path
     style="font-weight:bold;font-size:114.143px;font-family:Oswald;-inkscape-font-specification:'Oswald, Bold';text-align:center;text-anchor:middle;display:inline;fill:#ffffff;stroke-width:8.30965"
     d="M 408.19419,120.71303 V 33.442363 h 34.71153 q 9.31596,0 15.31391,3.01676 5.99794,2.90902 8.93311,8.61933 2.93516,5.60256 2.93516,13.68318 0,10.12771 -3.95609,15.51479 -3.95609,5.27933 -10.71974,7.32642 -6.76364,2.0471 -15.18629,2.0471 h -9.18834 v 37.063087 z m 22.84325,-50.530787 h 7.65695 q 4.21133,0 6.3808,-1.2929 2.16947,-1.2929 2.80754,-3.8787 0.7657,-2.58579 0.7657,-6.57223 0,-3.33999 -0.63807,-5.81805 -0.51048,-2.5858 -2.67995,-4.09418 -2.16947,-1.50838 -6.76364,-1.50838 h -7.52933 z M 481.4456,120.71303 V 33.442363 h 22.84325 v 35.33923 h 16.07961 v -35.33923 h 22.84323 V 120.71303 H 520.36846 V 82.572523 h -16.07961 v 38.140507 z m 107.06959,1.2929 q -11.61305,0 -18.37669,-3.44773 -6.76364,-3.44773 -9.69881,-9.91223 -2.93517,-6.46449 -2.93517,-15.407037 v -32.43021 q 0,-9.05029 2.93517,-15.40705 2.93517,-6.35674 9.69881,-9.69674 6.76364,-3.44772 18.37669,-3.44772 11.74065,0 18.5043,3.44772 6.89126,3.34 9.82642,9.69674 2.93517,6.35676 2.93517,15.40705 v 32.43021 q 0,8.942547 -2.93517,15.407037 -2.93516,6.4645 -9.82642,9.91223 -6.76365,3.44773 -18.5043,3.44773 z m 0,-13.68318 q 3.57324,0 5.23225,-1.50838 1.659,-1.50838 2.16947,-3.8787 0.51047,-2.37031 0.51047,-4.848367 v -42.01921 q 0,-2.58579 -0.51047,-4.84837 -0.51047,-2.37031 -2.16947,-3.87869 -1.65901,-1.50839 -5.23225,-1.50839 -3.31802,0 -4.97703,1.50839 -1.659,1.50838 -2.16946,3.87869 -0.51047,2.26258 -0.51047,4.84837 v 42.01921 q 0,2.478057 0.38285,4.848367 0.51046,2.37032 2.04186,3.8787 1.65901,1.50838 5.23225,1.50838 z m 53.4707,12.39028 V 47.771993 h -15.56914 v -14.32963 h 53.98153 v 14.32963 h -15.44152 v 72.941037 z m 76.05881,1.2929 q -11.613,0 -18.3766,-3.44773 -6.7637,-3.44773 -9.69885,-9.91223 -2.93517,-6.46449 -2.93517,-15.407037 v -32.43021 q 0,-9.05029 2.93517,-15.40705 2.93515,-6.35674 9.69885,-9.69674 6.7636,-3.44772 18.3766,-3.44772 11.7407,0 18.5043,3.44772 6.8913,3.34 9.8265,9.69674 2.9351,6.35676 2.9351,15.40705 v 32.43021 q 0,8.942547 -2.9351,15.407037 -2.9352,6.4645 -9.8265,9.91223 -6.7636,3.44773 -18.5043,3.44773 z m 0,-13.68318 q 3.5733,0 5.2323,-1.50838 1.659,-1.50838 2.1695,-3.8787 0.5104,-2.37031 0.5104,-4.848367 v -42.01921 q 0,-2.58579 -0.5104,-4.84837 -0.5105,-2.37031 -2.1695,-3.87869 -1.659,-1.50839 -5.2323,-1.50839 -3.318,0 -4.977,1.50839 -1.659,1.50838 -2.1694,3.87869 -0.5105,2.26258 -0.5105,4.84837 v 42.01921 q 0,2.478057 0.3828,4.848367 0.5105,2.37032 2.0419,3.8787 1.659,1.50838 5.2322,1.50838 z m 57.9373,12.39028 -18.6319,-87.270667 h 19.5252 l 11.1026,59.25787 10.3369,-59.25787 h 20.6738 l -18.8872,87.270667 z m 44.0273,0 19.5252,-87.270667 h 26.0337 l 19.27,87.270667 h -21.0567 l -3.4455,-18.4238 h -15.1864 l -3.5732,18.4238 z m 27.1822,-29.952157 h 10.9749 l -5.4874,-34.04633 z m 48.111,29.952157 V 33.442363 h 22.8433 v 74.233947 h 23.7365 v 13.03672 z m 56.6614,0 V 33.442363 h 22.8432 v 87.270667 z m 33.3075,0 19.5252,-87.270667 h 26.0337 l 19.27,87.270667 h -21.0566 l -3.4457,-18.4238 h -15.1862 l -3.5733,18.4238 z m 27.1822,-29.952157 h 10.975 l -5.4876,-34.04633 z m 48.111,29.952157 V 33.442363 h 16.0797 l 21.1842,42.01921 v -42.01921 h 18.8872 v 87.270667 h -15.4416 l -21.1843,-45.251457 v 45.251457 z m 80.9084,0 V 47.771993 h -15.5691 v -14.32963 h 53.9814 v 14.32963 h -15.4415 v 72.941037 z"
     id="text1"
     aria-label="PHOTOVALIANT" />
  <path
     style="font-size:70.4961px;font-family:'Kaushan Script';-inkscape-font-specification:'Kaushan Script, Normal';text-align:center;text-anchor:middle;display:inline;fill:#ffffff;stroke-width:5.29214"
     d="m 429.70832,182.08066 q 2.1175,0.54779 3.99069,2.46508 1.87318,1.84881 2.76905,4.10847 -0.89587,1.84882 -2.76905,4.45085 -1.87319,2.60202 -3.74636,5.341 -1.87318,2.67051 -3.4206,5.13559 -1.46597,2.3966 -1.71029,3.97152 1.30308,-1.16406 2.85049,-2.6705 1.62885,-1.57491 3.09482,-3.08136 1.5474,-1.5749 2.85049,-2.80745 1.30308,-1.30101 2.03606,-1.91729 1.54742,-1.36949 3.66492,-3.14982 2.11751,-1.84881 4.39791,-3.42372 2.36184,-1.6434 4.72367,-2.73899 2.36183,-1.16406 4.31645,-1.16406 2.11751,0 3.50204,1.23254 1.46597,1.16407 2.28039,2.46509 0,0.13694 -0.65154,0.41084 -0.57009,0.20542 -1.7103,1.30102 -1.14019,1.23253 -2.60616,3.42372 -1.38453,2.12271 -2.76905,4.65626 -1.30308,2.46508 -2.19895,5.06712 -0.89586,2.60203 -0.89586,4.72474 0,1.71186 0.48864,2.19118 0.5701,0.47933 1.54742,0.47933 0.89587,0 1.87317,-0.34237 0.97732,-0.34238 1.54742,-0.34238 0.32577,0.13695 0.48865,0.61626 0.24433,0.41086 0.24433,0.75323 -0.65154,0.47932 -1.54742,0.95865 -0.89586,0.47932 -1.87317,0.89016 -0.97731,0.41084 -1.95462,0.68475 -0.89587,0.27389 -1.62885,0.27389 -2.36184,0 -3.90925,-0.61626 -1.46597,-0.54781 -2.36183,-1.50644 -0.81443,-0.95864 -1.14021,-2.25967 -0.32576,-1.36948 -0.32576,-2.87592 0,-0.8217 0.16288,-1.84882 0.16288,-1.02711 0.65154,-2.3966 0.48866,-1.43797 1.38453,-3.35525 0.89587,-1.98576 2.28039,-4.72474 -0.16289,0 -2.19895,0.95863 -2.03607,0.95865 -4.3979,2.94441 -3.8278,3.08136 -6.92262,6.09424 -3.01339,3.01288 -6.18963,6.71049 -1.79175,2.12271 -3.17627,3.56068 -1.30309,1.50644 -2.28039,1.98576 -1.7103,-0.82169 -2.52472,-2.32813 -0.81443,-1.43797 -1.22164,-3.01289 0,-1.30101 0.40721,-3.28677 0.48865,-1.98576 1.22164,-4.38236 0.81442,-2.46509 1.95461,-5.13559 1.1402,-2.67051 2.52473,-5.34101 3.09483,-6.02576 5.61954,-9.44949 2.60616,-3.42372 3.25771,-3.69762 z m 58.88292,5.54644 q 0.81443,0 1.87319,0.27389 1.14019,0.20542 2.03606,0.61627 0.89587,0.34237 1.46596,0.75323 0.65155,0.41084 0.65155,0.75321 -1.62885,2.87593 -3.01338,5.82034 -1.38453,2.87592 -2.36183,5.54643 -0.97731,2.6705 -1.54741,4.99864 -0.48865,2.32813 -0.48865,4.03999 0,1.91729 0.48865,3.21831 0.48865,1.23253 1.62886,1.78034 -0.97733,0.54779 -2.52472,0.89017 -1.54742,0.34237 -2.76906,0.34237 -4.3979,0 -4.3979,-5.06712 0,-3.90305 3.09481,-10.68202 -1.62885,3.14982 -3.74635,5.95728 -2.11751,2.73898 -4.31646,4.86169 -2.19895,2.12272 -4.47935,3.49221 -2.19894,1.301 -4.07212,1.5749 -3.01339,-0.13694 -4.88656,-2.39661 -1.87319,-2.32813 -1.87319,-5.8888 0,-3.83457 1.95463,-8.08 1.95462,-4.24541 4.968,-7.87456 3.09482,-3.62915 6.67829,-6.02575 3.58348,-2.46509 6.92262,-2.60204 0.81443,0.20543 1.79174,0.82169 1.05875,0.61628 1.95463,1.43797 0.97731,0.82169 1.62885,1.71186 0.65154,0.8217 0.73298,1.43797 -3.25771,0.41085 -6.75973,2.67051 -3.4206,2.25965 -6.27109,5.47796 -2.76905,3.14982 -4.56078,6.77896 -1.79175,3.62916 -1.79175,6.77899 0,1.30101 1.14021,1.64338 2.36184,-0.41084 5.45666,-3.35525 3.09481,-3.01288 7.49271,-9.24406 0.81442,-1.23253 1.79174,-2.73897 1.05875,-1.50644 2.11751,-3.14984 1.05875,-1.64338 2.03606,-3.28677 1.05876,-1.71186 1.95462,-3.28677 z m 13.60085,1.43796 q -0.40722,-0.41085 -0.73299,-1.71187 -0.32576,-1.36948 -0.32576,-2.32812 2.1175,0.13695 4.07213,0.27389 1.95462,0.0685 3.58347,0.13694 1.22164,-2.05423 2.60616,-4.03998 1.46597,-2.05424 2.76905,-3.69763 1.38454,-1.71186 2.52472,-2.87593 1.22164,-1.16407 1.87318,-1.50644 0.81443,0 2.03606,0.27391 1.30309,0.20542 2.60618,0.61626 1.30308,0.34238 2.36183,0.75323 1.05876,0.41084 1.46597,0.82168 -2.44329,2.60204 -4.23501,4.8617 -1.71031,2.19118 -3.74637,5.06711 1.62885,0 3.2577,-0.0685 1.7103,-0.0684 3.4206,-0.20543 0.40721,0.34238 0.65153,0.89018 0.24434,0.47932 0.24434,1.02711 -3.99069,1.23255 -9.69168,1.3695 -2.03606,3.28678 -3.66492,6.57355 -1.5474,3.21831 -2.68761,6.23118 -1.05876,3.01288 -1.71028,5.68338 -0.57011,2.67051 -0.57011,4.79322 0,3.01288 2.68761,3.35525 2.44328,-0.2739 4.64223,-1.02712 2.19895,-0.75322 3.90924,-1.91729 0.48866,0.61627 0.57011,1.02712 -0.48866,0.61627 -1.7103,1.43796 -1.1402,0.8217 -2.52473,1.57492 -1.38451,0.82169 -2.68759,1.36949 -1.3031,0.5478 -1.95463,0.61627 -2.03606,-0.0685 -4.07213,-0.75321 -2.03608,-0.68475 -3.74636,-1.71187 -1.62886,-1.02712 -2.6876,-2.25966 -1.05876,-1.30102 -1.05876,-2.53355 0,-1.64339 0.48865,-4.10847 0.57011,-2.53356 1.54741,-5.47797 0.97731,-2.9444 2.2804,-6.1627 1.30308,-3.2183 2.85049,-6.36813 z m 46.01502,24.71929 q -1.5474,-1.09559 -2.1175,-2.73897 -0.48866,-1.6434 -0.48866,-2.80746 0,-1.43796 0.40721,-2.46508 -0.32577,0 -1.46597,1.09559 -1.14019,1.09559 -2.52472,2.60204 -1.30307,1.50643 -2.60616,2.94439 -1.30308,1.43798 -1.95462,2.12271 -1.05876,0.95864 -2.03606,1.50644 -0.89588,0.54779 -1.46597,0.61628 -1.30308,-0.0685 -2.76905,-0.47933 -1.38452,-0.34238 -2.68761,-1.02712 -1.22164,-0.68474 -2.19894,-1.64337 -0.89587,-0.95865 -1.22165,-2.1912 0,-1.91729 0.0815,-3.14982 0.16287,-1.23255 0.57009,-2.67051 0.73299,-2.60203 2.11751,-5.8888 1.46596,-3.28679 3.33915,-6.43661 1.87318,-3.21829 4.15357,-5.95728 2.36184,-2.80746 4.96801,-4.38237 0.73298,0 1.71028,0.13694 0.97732,0.0685 1.95463,0.34238 1.05875,0.2739 1.95463,0.68475 0.9773,0.34237 1.62885,0.95864 -0.73299,0.68474 -3.74637,4.58779 -2.93193,3.90305 -6.59685,11.22982 -0.40721,0.75322 -0.9773,2.19119 -0.57011,1.43796 -1.1402,3.01286 -0.57011,1.57492 -0.97732,3.08136 -0.32577,1.50644 -0.32577,2.39661 0,0.5478 0.16289,0.8217 0.24433,0.2739 0.40721,0.41084 1.22164,-0.41084 3.09482,-2.25966 1.87318,-1.8488 5.21233,-5.68338 0.81442,-0.95864 1.87317,-2.19119 1.14021,-1.23253 2.2804,-2.60202 1.1402,-1.43796 2.11751,-2.94441 1.05875,-1.50644 1.71029,-3.01288 0.32577,-0.82169 0.81442,-1.91728 0.57011,-1.16407 1.3031,-2.39661 0.81442,-1.23254 1.79172,-2.46508 1.05876,-1.30101 2.44329,-2.3966 1.05876,0 2.2804,0.20542 1.22163,0.20542 2.28039,0.5478 1.14018,0.27389 1.95462,0.68474 0.81443,0.34237 1.22165,0.75321 -1.46597,3.01288 -3.25772,5.95728 -1.79173,2.94441 -3.33915,5.82033 -1.5474,2.80746 -2.60615,5.61492 -1.05876,2.80745 -1.05876,5.47796 0,1.43796 0.24433,2.53355 0.32576,1.02712 0.65153,1.78035 0.32578,0.68473 0.57011,1.16406 0.32576,0.47931 0.32576,0.82169 0,0.0684 -0.16288,0.20543 -0.0815,0.0684 -0.16288,0.0684 -0.57011,0 -1.46597,-0.20543 -0.89587,-0.20542 -2.03607,-0.61626 -1.05875,-0.34238 -2.19895,-0.8217 -1.05875,-0.47932 -2.03606,-1.02712 z m 16.1256,0.13696 q 0.40721,-1.98577 1.38454,-5.20407 1.05874,-3.28677 2.44327,-6.91593 1.38452,-3.69762 2.93193,-7.39524 1.54742,-3.69762 3.01339,-6.64203 1.05875,-2.12271 1.87317,-3.28677 0.81443,-1.23254 1.79174,-2.05423 1.1402,0.13695 2.36184,0.47932 1.22164,0.34237 2.36182,0.82168 1.1402,0.47933 2.03608,1.02712 0.89586,0.47933 1.38452,0.95865 -2.19894,2.19118 -3.90925,4.99864 -1.62885,2.80745 -3.33914,7.18982 4.3979,-3.28678 7.73705,-6.29966 3.42058,-3.01287 6.35252,-6.7105 0.48865,-0.34237 1.71029,-0.34237 1.1402,0 2.19896,0.34237 1.05876,0.27391 1.46597,0.8217 -1.46597,3.28678 -1.46597,6.50508 0,3.01288 1.05876,4.51931 -0.0815,0.41086 -1.1402,1.57492 -0.97732,1.16406 -2.19895,2.19118 -2.19896,-0.95864 -3.90926,-2.60203 -1.71029,-1.71186 -2.52472,-3.69763 -3.82779,2.25967 -6.5154,4.45085 -2.68762,2.12271 -4.64223,4.79322 -1.87318,2.60203 -3.25771,6.02576 -1.30307,3.42372 -2.52472,8.14845 -0.73298,-0.0685 -1.79174,-0.47931 -0.9773,-0.34238 -2.03606,-0.89018 -0.97732,-0.54779 -1.79174,-1.16406 -0.81443,-0.61627 -1.05876,-1.16406 z m 63.93244,-26.97896 q -0.32577,4.24542 -1.79174,7.32677 -1.46597,3.01288 -4.23501,5.34102 -2.68761,2.25965 -6.59685,4.10846 -3.90925,1.84881 -9.12158,3.56067 0,0.41085 -0.0815,0.89018 0,0.41085 0,0.89016 0,0.89017 0.16287,1.84881 0.1629,0.95865 0.57012,1.78034 0.40721,0.82171 1.14019,1.36949 0.73299,0.47932 1.87317,0.47932 2.19896,0 4.31647,-0.82169 2.1175,-0.82169 3.99068,-1.98576 1.95463,-1.23253 3.58348,-2.60203 1.71029,-1.43797 3.01338,-2.60204 0.81443,0.61628 1.38452,1.16407 -3.66491,4.10847 -8.06281,6.84745 -4.31646,2.6705 -8.22572,3.42372 -5.61954,-0.54779 -8.7958,-3.42372 -3.09481,-2.9444 -3.09481,-7.05287 0,-2.80745 0.89587,-5.68339 0.9773,-2.94439 2.60615,-5.6149 1.7103,-2.73898 3.90926,-5.13559 2.28039,-2.39661 4.80511,-4.17694 2.60616,-1.78035 5.29376,-2.80746 2.76905,-1.02712 5.45666,-1.02712 3.74636,0.41086 7.00407,3.90305 z m -5.61954,2.25966 q -2.19895,0.27389 -4.56079,1.50644 -2.36183,1.23253 -4.47934,3.28677 -2.03606,2.05424 -3.74635,4.79321 -1.71031,2.73899 -2.68761,5.88882 6.5154,-2.73898 10.83187,-6.71051 4.31645,-4.03999 4.64222,-8.76473 z m 22.80379,48.75384 q -1.14019,-0.27389 -1.30307,-2.05423 -0.32578,-0.89017 -0.48866,-2.12271 -0.0815,-1.23254 -0.0815,-2.80745 0,-1.43798 0.57011,-3.97152 0.57009,-2.46508 1.5474,-5.61491 1.05875,-3.14983 2.52472,-6.77898 1.46597,-3.69763 3.25771,-7.46372 2.19895,-4.72474 3.8278,-8.14847 1.62885,-3.4922 2.6876,-6.02576 1.1402,-2.53355 1.79175,-4.17694 0.73298,-1.64339 1.14019,-2.80745 0.32577,-0.82169 0.97732,-1.98576 0.65154,-1.16407 1.46597,-2.32814 0.89586,-1.23253 1.79172,-2.25965 0.89587,-1.09559 1.62885,-1.64339 2.8505,0.34237 5.37523,1.23254 2.52471,0.89017 3.09481,1.71186 -1.1402,0.89017 -2.60616,2.80745 -1.46597,1.84882 -2.85049,4.10848 -1.38454,2.19117 -2.52473,4.51931 -1.14019,2.32814 -1.71029,4.10847 0.81442,-1.16406 2.1175,-2.53355 1.3031,-1.36949 3.99069,-3.76609 3.01338,-2.60205 5.61954,-3.97153 2.68761,-1.43797 4.64224,-1.43797 3.09482,0 5.04945,1.43797 2.03606,1.43796 2.03606,3.69762 0,4.93016 -1.95463,9.79185 -1.95462,4.79321 -5.61954,8.69627 -1.38452,1.50643 -3.2577,2.87593 -1.87318,1.36948 -3.90925,2.46509 -2.03606,1.0271 -3.99068,1.64337 -1.95463,0.61628 -3.50205,0.61628 -1.46596,0 -2.60615,-0.47933 -1.05876,-0.54779 -1.46597,-1.30101 3.17627,-1.57492 6.18963,-4.38237 3.01339,-2.80745 5.53811,-6.43661 2.60616,-3.69762 4.47933,-7.94303 1.95463,-4.24542 2.93194,-8.62779 -3.09482,1.36949 -5.61953,3.01288 -2.44328,1.57491 -4.88656,4.17694 -2.93195,3.01289 -4.64223,4.86169 -1.71029,1.84881 -2.8505,3.14982 -1.05876,1.30102 -1.79174,2.46508 -0.65153,1.09561 -1.46596,2.73899 -1.1402,2.19118 -2.6876,5.82032 -1.46598,3.56069 -3.09482,8.01153 -1.54741,4.45084 -3.17627,9.44948 -1.5474,5.06711 -3.01338,10.06575 -0.89585,-0.13695 -1.5474,-1.09559 -0.65155,-0.61628 -0.97731,-0.89017 -0.24434,-0.2739 -0.65155,-0.41085 z m 46.4222,-23.82913 q 0,-2.3966 0.5701,-5.6149 0.5701,-3.28678 1.6289,-6.9844 1.1402,-3.69762 2.6061,-7.73762 1.5475,-4.03999 3.4206,-8.07999 1.6289,-3.62915 3.7464,-7.32677 2.199,-3.69762 4.7237,-7.25829 2.5247,-3.56069 5.2123,-6.77899 2.7691,-3.2183 5.5381,-5.8888 1.3031,0 2.769,0.27389 1.5474,0.2739 2.932,0.75323 1.466,0.41085 2.6062,1.02712 1.2215,0.61626 1.9546,1.23253 -6.1082,5.27254 -10.9948,10.68202 -4.8866,5.34102 -7.737,10.06576 -1.5474,2.60202 -2.8505,4.86168 -1.2217,2.25967 -2.2805,4.51933 -1.0586,2.19118 -1.9546,4.45083 -0.8144,2.1912 -1.5473,4.65628 15.6369,-16.77626 23.2111,-16.77626 2.1175,0 4.5608,1.16407 2.4433,1.16407 4.3164,3.14982 -2.5247,2.32814 -5.2123,5.61492 -2.6876,3.28676 -4.968,6.64202 -2.1989,3.28677 -3.6649,6.1627 -1.3845,2.80745 -1.3845,4.17694 0,0.68475 0.2443,0.95865 0.2443,0.20543 1.0588,0.20543 1.2216,0 1.9546,-0.2739 0.7329,-0.2739 0.8958,-0.2739 0.4072,0.5478 0.4887,0.75321 0.082,0.20543 0.082,0.34237 0,0.27391 -0.9773,0.82171 -0.9773,0.47931 -2.3617,1.02712 -1.3032,0.47931 -2.6062,0.89017 -1.3031,0.41084 -1.9547,0.41084 -0.8144,0 -1.6289,-0.41084 -0.8143,-0.34237 -1.4659,-0.95865 -0.5701,-0.61627 -0.9773,-1.36949 -0.3257,-0.75323 -0.3257,-1.57492 0,-1.02711 0.6514,-3.01288 0.7331,-2.05423 1.9547,-4.72474 1.2216,-2.73897 2.9319,-5.95728 1.7103,-3.2183 3.6649,-6.57355 0,-0.2739 -0.3257,-0.2739 -0.2444,0 -1.3031,0.54781 -0.9773,0.54779 -1.8732,1.09559 -2.932,1.8488 -5.9453,4.58779 -2.9319,2.6705 -5.7824,5.8888 -2.7691,3.21831 -5.2938,6.84745 -2.4433,3.56068 -4.235,7.18982 -0.2443,0.47932 -0.733,0.89017 -0.4886,0.41085 -0.8144,0.41085 -0.2443,0 -0.733,-0.47932 -0.4072,-0.47933 -0.8144,-1.23255 -0.3258,-0.68474 -0.6516,-1.43795 -0.3257,-0.75322 -0.3257,-1.30103 z m 51.7974,3.56069 q -4.6422,-0.41086 -7.4113,-3.42373 -2.769,-3.01288 -2.769,-7.66915 0,-2.73898 0.9773,-5.68338 0.9773,-2.94441 2.769,-5.68338 1.7918,-2.80745 4.235,-5.27253 2.4434,-2.46509 5.2938,-4.24543 4.4794,-2.80745 8.3886,-2.80745 2.6061,1.16406 5.1308,4.86168 0.4073,0 0.7331,0 0.3257,-0.0684 0.733,-0.0684 4.3164,0 4.3164,6.4366 0,4.31389 -1.7103,8.21693 -1.6288,3.83457 -4.6422,6.9844 -2.932,3.14983 -7.0855,5.34102 -4.0721,2.1227 -8.9587,3.01288 z m 4.1535,-21.56947 q -1.3844,1.57491 -2.6061,3.42372 -1.2217,1.84881 -2.1175,3.7661 -0.8959,1.84881 -1.3845,3.62914 -0.4887,1.71186 -0.4887,3.08135 0,1.64339 0.6516,3.14983 0.6515,1.50645 1.466,1.71186 3.6649,-0.68473 6.6782,-2.53355 3.0948,-1.91729 5.2938,-4.72474 2.2804,-2.80746 3.502,-6.36813 1.3031,-3.56067 1.3031,-7.60067 0,-1.78033 -0.2444,-2.80745 -0.2442,-1.02713 -0.8143,-1.78034 -3.5835,0.89018 -6.434,2.87592 -2.7691,1.98577 -4.8052,4.17696 z m 26.1431,-7.05288 q -0.4072,-0.41085 -0.7329,-1.71187 -0.3259,-1.36948 -0.3259,-2.32812 2.1176,0.13695 4.0723,0.27389 1.9545,0.0685 3.5834,0.13694 1.2217,-2.05423 2.6062,-4.03998 1.4659,-2.05424 2.7691,-3.69763 1.3844,-1.71186 2.5247,-2.87593 1.2215,-1.16407 1.8731,-1.50644 0.8144,0 2.0361,0.27391 1.3031,0.20542 2.6062,0.61626 1.303,0.34238 2.3617,0.75323 1.0589,0.41084 1.4661,0.82168 -2.4433,2.60204 -4.2351,4.8617 -1.7103,2.19118 -3.7463,5.06711 1.6288,0 3.2577,-0.0685 1.7103,-0.0684 3.4206,-0.20543 0.4072,0.34238 0.6515,0.89018 0.2444,0.47932 0.2444,1.02711 -3.9908,1.23255 -9.6917,1.3695 -2.0361,3.28678 -3.665,6.57355 -1.5474,3.21831 -2.6876,6.23118 -1.0588,3.01288 -1.7103,5.68338 -0.57,2.67051 -0.57,4.79322 0,3.01288 2.6875,3.35525 2.4433,-0.2739 4.6423,-1.02712 2.199,-0.75322 3.9092,-1.91729 0.4886,0.61627 0.5701,1.02712 -0.4887,0.61627 -1.7102,1.43796 -1.1403,0.8217 -2.5248,1.57492 -1.3845,0.82169 -2.6877,1.36949 -1.303,0.5478 -1.9546,0.61627 -2.036,-0.0685 -4.0721,-0.75321 -2.036,-0.68475 -3.7463,-1.71187 -1.6289,-1.02712 -2.6876,-2.25966 -1.0588,-1.30102 -1.0588,-2.53355 0,-1.64339 0.4887,-4.10847 0.5701,-2.53356 1.5474,-5.47797 0.9773,-2.9444 2.2804,-6.1627 1.3031,-3.2183 2.8505,-6.36813 z m 33.4729,28.62235 q -4.6423,-0.41086 -7.4112,-3.42373 -2.7691,-3.01288 -2.7691,-7.66915 0,-2.73898 0.9772,-5.68338 0.9774,-2.94441 2.7691,-5.68338 1.7917,-2.80745 4.2351,-5.27253 2.4432,-2.46509 5.2938,-4.24543 4.4792,-2.80745 8.3886,-2.80745 2.6061,1.16406 5.1308,4.86168 0.4072,0 0.733,0 0.3258,-0.0684 0.7329,-0.0684 4.3165,0 4.3165,6.4366 0,4.31389 -1.7103,8.21693 -1.6289,3.83457 -4.6423,6.9844 -2.9318,3.14983 -7.0853,5.34102 -4.0722,2.1227 -8.9588,3.01288 z m 4.1536,-21.56947 q -1.3846,1.57491 -2.6062,3.42372 -1.2216,1.84881 -2.1175,3.7661 -0.8959,1.84881 -1.3846,3.62914 -0.4886,1.71186 -0.4886,3.08135 0,1.64339 0.6516,3.14983 0.6516,1.50645 1.4659,1.71186 3.6649,-0.68473 6.6784,-2.53355 3.0948,-1.91729 5.2936,-4.72474 2.2804,-2.80746 3.5022,-6.36813 1.303,-3.56067 1.303,-7.60067 0,-1.78033 -0.2443,-2.80745 -0.2444,-1.02713 -0.8144,-1.78034 -3.5836,0.89018 -6.4339,2.87592 -2.7692,1.98577 -4.8052,4.17696 z m 5.7009,39.57825 q 0,-0.41084 0.3258,-0.75321 0.3258,-0.34238 0.733,-0.68475 0.9773,0.75322 1.7103,1.16407 0.6515,0.41084 1.303,0.68475 0.5702,0.27388 1.2218,0.34237 0.6515,0.0685 1.5473,0.0685 4.2351,0 8.0628,-1.9173 3.8278,-1.84881 7.1671,-5.40949 3.4205,-3.56066 6.1896,-8.69625 2.769,-5.13559 4.8865,-11.64067 -0.9773,0.82169 -2.4433,1.84881 -1.3845,0.95864 -2.9319,1.84882 -1.5474,0.89016 -3.0949,1.64339 -1.4659,0.75321 -2.5246,1.09558 -1.3846,-0.20542 -2.6062,-0.95864 -1.1402,-0.82168 -2.036,-1.98576 -0.896,-1.16406 -1.3846,-2.60203 -0.4886,-1.50644 -0.4886,-3.14983 0,-2.6705 1.1401,-5.47796 1.2218,-2.80745 3.1763,-5.47796 1.9546,-2.73898 4.5608,-5.13558 2.6876,-2.39662 5.6195,-4.17695 3.0134,-1.78034 6.0268,-2.80746 3.0947,-1.09558 6.0267,-1.09558 2.8505,0 4.235,1.02712 1.466,0.95864 2.1175,3.35525 -0.8959,-0.41086 -2.2803,-0.41086 -1.9547,0 -4.5609,1.30102 -2.5246,1.30102 -5.2123,3.42372 -2.6062,2.05424 -5.2123,4.79322 -2.6061,2.67051 -4.6422,5.47796 -1.9547,2.80746 -3.2578,5.47796 -1.2215,2.67051 -1.2215,4.79321 0,0.47933 0.082,0.61628 0.082,0.0685 0.2443,0.0685 0.733,0 1.9546,-0.68475 1.3031,-0.68474 2.8505,-1.71186 1.6288,-1.09559 3.3392,-2.46508 1.7102,-1.43796 3.2576,-2.87593 3.5021,-3.28677 6.3525,-7.32677 2.9321,-4.10847 4.6424,-7.94304 2.1988,0.13695 3.9091,0.61628 1.7103,0.47931 2.3619,1.02711 -2.7691,5.34101 -4.4794,8.97016 -1.6288,3.62915 -2.8504,6.4366 -2.199,4.93016 -4.1537,8.97016 -1.8731,4.10847 -3.9092,7.53219 -1.9546,3.4922 -4.3165,6.4366 -2.2804,3.01289 -5.2122,5.75187 -1.3846,1.30101 -3.1764,2.25965 -1.7103,1.02712 -3.5834,1.71186 -1.7917,0.68475 -3.5834,1.02712 -1.7104,0.34237 -3.1763,0.34237 -1.9546,0 -3.9908,-0.41084 -2.036,-0.34237 -3.7462,-1.02711 -1.7918,-0.61628 -3.095,-1.50644 -1.303,-0.8217 -1.8731,-1.78034 z m 51.1459,-21.77488 q 0.4073,-1.98577 1.3845,-5.20407 1.0588,-3.28677 2.4433,-6.91593 1.3846,-3.69762 2.9319,-7.39524 1.5475,-3.69762 3.0134,-6.64203 1.0588,-2.12271 1.8733,-3.28677 0.8144,-1.23254 1.7917,-2.05423 1.1402,0.13695 2.3618,0.47932 1.2217,0.34237 2.3618,0.82168 1.1403,0.47933 2.0361,1.02712 0.8959,0.47933 1.3845,0.95865 -2.1989,2.19118 -3.9091,4.99864 -1.629,2.80745 -3.3393,7.18982 4.398,-3.28678 7.7371,-6.29966 3.4206,-3.01287 6.3524,-6.7105 0.4887,-0.34237 1.7104,-0.34237 1.1402,0 2.199,0.34237 1.0587,0.27391 1.4659,0.8217 -1.4659,3.28678 -1.4659,6.50508 0,3.01288 1.0587,4.51931 -0.082,0.41086 -1.1401,1.57492 -0.9774,1.16406 -2.199,2.19118 -2.199,-0.95864 -3.9092,-2.60203 -1.7104,-1.71186 -2.5248,-3.69763 -3.8277,2.25967 -6.5154,4.45085 -2.6876,2.12271 -4.6422,4.79322 -1.8733,2.60203 -3.2577,6.02576 -1.3032,3.42372 -2.5247,8.14845 -0.7331,-0.0685 -1.7918,-0.47931 -0.9773,-0.34238 -2.036,-0.89018 -0.9774,-0.54779 -1.7918,-1.16406 -0.8144,-0.61627 -1.0588,-1.16406 z m 62.8738,-26.29421 q 0.8143,0 1.8731,0.27389 1.1402,0.20542 2.036,0.61627 0.8959,0.34237 1.466,0.75323 0.6516,0.41084 0.6516,0.75321 -1.6289,2.87593 -3.0134,5.82034 -1.3846,2.87592 -2.3618,5.54643 -0.9774,2.6705 -1.5475,4.99864 -0.4887,2.32813 -0.4887,4.03999 0,1.91729 0.4887,3.21831 0.4887,1.23253 1.6288,1.78034 -0.9772,0.54779 -2.5246,0.89017 -1.5475,0.34237 -2.7691,0.34237 -4.3979,0 -4.3979,-5.06712 0,-3.90305 3.0949,-10.68202 -1.6289,3.14982 -3.7465,5.95728 -2.1175,2.73898 -4.3164,4.86169 -2.1989,2.12272 -4.4792,3.49221 -2.199,1.301 -4.0722,1.5749 -3.0134,-0.13694 -4.8866,-2.39661 -1.8732,-2.32813 -1.8732,-5.8888 0,-3.83457 1.9547,-8.08 1.9546,-4.24541 4.968,-7.87456 3.0947,-3.62915 6.6782,-6.02575 3.5836,-2.46509 6.9226,-2.60204 0.8146,0.20543 1.7918,0.82169 1.0588,0.61628 1.9546,1.43797 0.9773,0.82169 1.6288,1.71186 0.6516,0.8217 0.7331,1.43797 -3.2577,0.41085 -6.7599,2.67051 -3.4205,2.25965 -6.271,5.47796 -2.7689,3.14982 -4.5608,6.77896 -1.7918,3.62916 -1.7918,6.77899 0,1.30101 1.1403,1.64338 2.3619,-0.41084 5.4566,-3.35525 3.0949,-3.01288 7.4929,-9.24406 0.8143,-1.23253 1.7916,-2.73897 1.0587,-1.50644 2.1175,-3.14984 1.0587,-1.64338 2.0361,-3.28677 1.0587,-1.71186 1.9547,-3.28677 z m 4.2348,50.32875 q -1.1401,-0.27389 -1.303,-2.05423 -0.3257,-0.89017 -0.4887,-2.12271 -0.082,-1.23254 -0.082,-2.80745 0,-1.43798 0.5701,-3.97152 0.5702,-2.46508 1.5474,-5.61491 1.0588,-3.14983 2.5248,-6.77898 1.4659,-3.69763 3.2576,-7.46372 2.199,-4.72474 3.828,-8.14847 1.6287,-3.4922 2.6874,-6.02576 1.1403,-2.53355 1.7918,-4.17694 0.733,-1.64339 1.1402,-2.80745 0.3258,-0.82169 0.9773,-1.98576 0.6516,-1.16407 1.466,-2.32814 0.8959,-1.23253 1.7918,-2.25965 0.8957,-1.09559 1.6288,-1.64339 2.8505,0.34237 5.3752,1.23254 2.5247,0.89017 3.0948,1.71186 -1.1401,0.89017 -2.6061,2.80745 -1.4661,1.84882 -2.8505,4.10848 -1.3846,2.19117 -2.5247,4.51931 -1.1403,2.32814 -1.7103,4.10847 0.8143,-1.16406 2.1175,-2.53355 1.3031,-1.36949 3.9906,-3.76609 3.0134,-2.60205 5.6196,-3.97153 2.6876,-1.43797 4.6422,-1.43797 3.0948,0 5.0494,1.43797 2.036,1.43796 2.036,3.69762 0,4.93016 -1.9546,9.79185 -1.9546,4.79321 -5.6194,8.69627 -1.3846,1.50643 -3.2577,2.87593 -1.8731,1.36948 -3.9094,2.46509 -2.0361,1.0271 -3.9906,1.64337 -1.9546,0.61628 -3.502,0.61628 -1.4659,0 -2.6062,-0.47933 -1.0587,-0.54779 -1.466,-1.30101 3.1763,-1.57492 6.1897,-4.38237 3.0134,-2.80745 5.538,-6.43661 2.6062,-3.69762 4.4794,-7.94303 1.9546,-4.24542 2.932,-8.62779 -3.0949,1.36949 -5.6195,3.01288 -2.4434,1.57491 -4.8866,4.17694 -2.932,3.01289 -4.6423,4.86169 -1.7103,1.84881 -2.8505,3.14982 -1.0587,1.30102 -1.7917,2.46508 -0.6515,1.09561 -1.466,2.73899 -1.1401,2.19118 -2.6876,5.82032 -1.466,3.56069 -3.0947,8.01153 -1.5475,4.45084 -3.1763,9.44948 -1.5474,5.06711 -3.0134,10.06575 -0.8959,-0.13695 -1.5474,-1.09559 -0.6516,-0.61628 -0.9774,-0.89017 -0.2442,-0.2739 -0.6516,-0.41085 z m 46.4222,-23.82913 q 0,-2.3966 0.5702,-5.6149 0.5701,-3.28678 1.6288,-6.9844 1.1403,-3.69762 2.6062,-7.73762 1.5474,-4.03999 3.4205,-8.07999 1.629,-3.62915 3.7465,-7.32677 2.1989,-3.69762 4.7236,-7.25829 2.5247,-3.56069 5.2123,-6.77899 2.7691,-3.2183 5.5381,-5.8888 1.3031,0 2.7692,0.27389 1.5473,0.2739 2.9319,0.75323 1.4659,0.41085 2.6061,1.02712 1.2217,0.61626 1.9546,1.23253 -6.1082,5.27254 -10.9947,10.68202 -4.8866,5.34102 -7.7371,10.06576 -1.5474,2.60202 -2.8505,4.86168 -1.2216,2.25967 -2.2803,4.51933 -1.0588,2.19118 -1.9547,4.45083 -0.8144,2.1912 -1.5475,4.65628 15.6371,-16.77626 23.2112,-16.77626 2.1175,0 4.5608,1.16407 2.4433,1.16407 4.3165,3.14982 -2.5248,2.32814 -5.2123,5.61492 -2.6877,3.28676 -4.968,6.64202 -2.199,3.28677 -3.6649,6.1627 -1.3846,2.80745 -1.3846,4.17694 0,0.68475 0.2443,0.95865 0.2443,0.20543 1.0589,0.20543 1.2215,0 1.9545,-0.2739 0.7331,-0.2739 0.8958,-0.2739 0.4073,0.5478 0.4887,0.75321 0.082,0.20543 0.082,0.34237 0,0.27391 -0.9772,0.82171 -0.9774,0.47931 -2.3618,1.02712 -1.3032,0.47931 -2.6062,0.89017 -1.3031,0.41084 -1.9547,0.41084 -0.8144,0 -1.6287,-0.41084 -0.8146,-0.34237 -1.4662,-0.95865 -0.57,-0.61627 -0.9772,-1.36949 -0.3258,-0.75323 -0.3258,-1.57492 0,-1.02711 0.6516,-3.01288 0.7329,-2.05423 1.9546,-4.72474 1.2217,-2.73897 2.9319,-5.95728 1.7104,-3.2183 3.665,-6.57355 0,-0.2739 -0.3258,-0.2739 -0.2444,0 -1.3032,0.54781 -0.9772,0.54779 -1.8731,1.09559 -2.9318,1.8488 -5.9453,4.58779 -2.9319,2.6705 -5.7824,5.8888 -2.7691,3.21831 -5.2939,6.84745 -2.4431,3.56068 -4.235,7.18982 -0.2442,0.47932 -0.7329,0.89017 -0.4886,0.41085 -0.8145,0.41085 -0.2443,0 -0.7328,-0.47932 -0.4073,-0.47933 -0.8146,-1.23255 -0.3257,-0.68474 -0.6515,-1.43795 -0.3258,-0.75322 -0.3258,-1.30103 z m 72.8097,-9.44947 q -1.8732,4.99863 -3.7465,9.1071 -1.8731,4.10848 -3.9906,7.5322 -2.1175,3.49219 -4.5608,6.36813 -2.4432,2.94441 -5.3752,5.54643 -3.7463,3.28679 -7.737,4.99865 -3.9907,1.78033 -7.9813,1.78033 -2.0361,0 -4.0723,-0.41085 -1.9546,-0.34237 -3.6648,-1.02711 -1.7918,-0.61628 -3.0948,-1.50645 -1.3847,-0.82169 -1.9547,-1.78033 0,-0.8217 1.1402,-1.43796 0.9773,0.75321 1.6288,1.16406 0.6516,0.41085 1.3032,0.68474 0.5699,0.27391 1.303,0.34237 0.6516,0.0685 1.5474,0.0685 4.6422,0 9.0402,-2.32814 4.4793,-2.25966 8.3886,-6.50508 3.9906,-4.17694 7.2484,-10.2027 3.2577,-5.95728 5.5381,-13.35253 -1.0588,1.36949 -2.6063,3.35526 -1.5474,1.98576 -3.4205,3.97152 -1.8731,1.91729 -3.9093,3.4922 -1.9546,1.57491 -3.8278,2.12271 -1.3031,-0.0685 -2.769,-0.47933 -1.3846,-0.34238 -2.6876,-1.02712 -1.2217,-0.68474 -2.199,-1.64337 -0.9773,-0.95865 -1.303,-2.1912 0,-1.98576 0.1628,-3.14982 0.1629,-1.23255 0.57,-2.67051 0.7331,-2.60202 2.1176,-5.8888 1.4661,-3.28679 3.3392,-6.43661 1.9546,-3.21829 4.235,-5.95728 2.3618,-2.80745 4.8866,-4.38237 0.6515,0 1.6289,0.13694 0.9772,0.0685 2.0361,0.34238 1.0587,0.2739 2.036,0.68475 0.9772,0.34237 1.7103,0.95864 -0.896,0.68474 -3.9093,4.5878 -3.0134,3.90304 -6.6783,11.22981 -0.4073,0.75323 -0.9773,2.19119 -0.57,1.43796 -1.1402,3.01287 -0.4886,1.57491 -0.896,3.08136 -0.4071,1.50643 -0.4071,2.39661 0,0.54779 0.1629,0.82169 0.2442,0.2739 0.4072,0.41084 1.466,-0.20542 3.9092,-1.98576 2.4433,-1.84881 5.5382,-5.68338 1.9546,-2.46508 3.5834,-4.86168 1.6288,-2.46509 3.1763,-4.93017 1.6289,-2.46508 3.3392,-5.06712 1.7103,-2.60203 3.6648,-5.341 1.0589,0 2.2805,0.20542 1.2216,0.20542 2.3618,0.5478 1.1401,0.27389 1.9546,0.68474 0.896,0.34237 1.3031,0.75321 -2.5247,4.51932 -4.7236,8.83322 -2.199,4.3139 -3.9093,8.83321 z m 36.0787,11.09287 q 3.7465,-2.12271 7.33,-5.4095 3.5835,-3.35524 6.5154,-7.18982 2.9318,-3.90303 4.968,-8.07998 2.0361,-4.17695 2.769,-8.01152 0,-0.82169 -1.0587,-1.09559 -1.1402,0 -3.1763,1.71186 -1.9546,1.64339 -4.3979,4.24541 -2.3619,2.60204 -4.8865,5.82034 -2.4433,3.21831 -4.4793,6.43661 -2.0361,3.14982 -3.5022,5.95728 -1.3844,2.73898 -1.5474,4.45084 -0.8143,0 -1.3844,-1.36949 -0.1629,-0.34237 -0.5702,-0.68474 -0.4072,-0.41086 -1.3029,-0.95865 -0.4074,-0.2739 -0.8146,-0.61627 -0.4072,-0.41085 -0.5701,-0.68474 -0.3256,-0.54781 -0.3256,-1.78034 0,-4.04 1.2215,-9.10711 1.2216,-5.06711 3.1762,-10.33965 2.036,-5.27253 4.7237,-10.33964 2.6876,-5.13559 5.5382,-9.38102 2.9318,-4.24542 5.8639,-7.18982 2.9318,-2.9444 5.538,-3.90305 0.8145,0.20543 1.9546,0.68475 1.1403,0.47932 2.2804,1.09559 1.1403,0.61628 2.1175,1.23255 1.0588,0.61626 1.5474,1.09559 -8.9586,6.09423 -15.5554,15.68065 -6.5155,9.51796 -10.6691,22.52812 2.2805,-3.56068 5.1308,-6.84745 2.8506,-3.35526 5.6197,-5.88881 2.8504,-2.53356 5.3751,-4.03999 2.6062,-1.50645 4.3165,-1.50645 1.3031,0.27391 2.5247,0.95865 1.2217,0.68474 2.199,1.71186 0.9772,0.95865 1.6288,2.12271 0.6516,1.09559 0.8145,2.32813 -0.082,2.87592 -1.2217,6.16271 -1.0587,3.21829 -2.9319,6.36813 -1.7917,3.14982 -4.1536,6.02575 -2.2803,2.87594 -4.8865,5.06711 -2.5248,2.12271 -5.131,3.42373 -2.5246,1.30101 -4.8049,1.30101 -0.9775,0 -2.0362,-0.20542 -0.9773,-0.13695 -1.8731,-0.47932 -0.8145,-0.2739 -1.3846,-0.61627 -0.4888,-0.34237 -0.4888,-0.68474 z m 61.5705,-11.09287 q -1.8731,4.99863 -3.7463,9.1071 -1.8732,4.10848 -3.9907,7.5322 -2.1175,3.49219 -4.5607,6.36813 -2.4434,2.94441 -5.3752,5.54643 -3.7464,3.28679 -7.7372,4.99865 -3.9907,1.78033 -7.9813,1.78033 -2.0361,0 -4.0722,-0.41085 -1.9546,-0.34237 -3.6649,-1.02711 -1.7917,-0.61628 -3.0949,-1.50645 -1.3844,-0.82169 -1.9546,-1.78033 0,-0.8217 1.1403,-1.43796 0.9773,0.75321 1.6289,1.16406 0.6516,0.41085 1.303,0.68474 0.5701,0.27391 1.3031,0.34237 0.6516,0.0685 1.5474,0.0685 4.6423,0 9.0402,-2.32814 4.4793,-2.25966 8.3886,-6.50508 3.9906,-4.17694 7.2483,-10.2027 3.2578,-5.95728 5.5381,-13.35253 -1.0588,1.36949 -2.6061,3.35526 -1.5474,1.98576 -3.4205,3.97152 -1.8734,1.91729 -3.9094,3.4922 -1.9546,1.57491 -3.8277,2.12271 -1.3031,-0.0685 -2.769,-0.47933 -1.3847,-0.34238 -2.6877,-1.02712 -1.2217,-0.68474 -2.199,-1.64337 -0.9773,-0.95865 -1.3031,-2.1912 0,-1.98576 0.1629,-3.14982 0.1629,-1.23255 0.5701,-2.67051 0.7331,-2.60202 2.1175,-5.8888 1.4659,-3.28679 3.3393,-6.43661 1.9545,-3.21829 4.235,-5.95728 2.3617,-2.80745 4.8864,-4.38237 0.6516,0 1.6288,0.13694 0.9774,0.0685 2.0361,0.34238 1.0588,0.2739 2.0361,0.68475 0.9774,0.34237 1.7103,0.95864 -0.8958,0.68474 -3.9092,4.5878 -3.0133,3.90304 -6.6782,11.22981 -0.4073,0.75323 -0.9775,2.19119 -0.5701,1.43796 -1.14,3.01287 -0.4888,1.57491 -0.896,3.08136 -0.4072,1.50643 -0.4072,2.39661 0,0.54779 0.1629,0.82169 0.2443,0.2739 0.4072,0.41084 1.4659,-0.20542 3.9092,-1.98576 2.4433,-1.84881 5.5382,-5.68338 1.9546,-2.46508 3.5834,-4.86168 1.6289,-2.46509 3.1762,-4.93017 1.629,-2.46508 3.3393,-5.06712 1.7102,-2.60203 3.6649,-5.341 1.0587,0 2.2803,0.20542 1.2216,0.20542 2.3619,0.5478 1.1402,0.27389 1.9546,0.68474 0.8958,0.34237 1.3031,0.75321 -2.5248,4.51932 -4.7237,8.83322 -2.199,4.3139 -3.9093,8.83321 z"
     id="path24" />
  <path
     style="font-size:70.4961px;font-family:'Kaushan Script';-inkscape-font-specification:'Kaushan Script, Normal';text-align:center;text-anchor:middle;display:inline;fill:#ffffff;stroke-width:5.29214"
     d="m 506.2236,273.22023 q 0.81442,0 1.87318,0.27389 1.14019,0.20542 2.03606,0.61628 0.89587,0.34237 1.46596,0.75321 0.65155,0.41085 0.65155,0.75322 -1.62885,2.87593 -3.01338,5.82033 -1.38452,2.87592 -2.36184,5.54643 -0.97731,2.67051 -1.5474,4.99865 -0.48866,2.32813 -0.48866,4.04 0,1.91727 0.48866,3.21829 0.48866,1.23254 1.62885,1.78033 -0.97732,0.5478 -2.52472,0.89018 -1.54741,0.34237 -2.76905,0.34237 -4.39791,0 -4.39791,-5.06712 0,-3.90304 3.09482,-10.68201 -1.62886,3.14982 -3.74635,5.95727 -2.11751,2.73898 -4.31647,4.86169 -2.19894,2.12272 -4.47934,3.4922 -2.19895,1.30102 -4.07213,1.57491 -3.01337,-0.13694 -4.88655,-2.3966 -1.87318,-2.32814 -1.87318,-5.8888 0,-3.83458 1.95461,-8.08 1.95463,-4.24541 4.968,-7.87456 3.09483,-3.62915 6.6783,-6.02576 3.58347,-2.46508 6.92262,-2.60203 0.81442,0.20542 1.79175,0.8217 1.05874,0.61625 1.95461,1.43796 0.97732,0.82169 1.62886,1.71186 0.65153,0.82169 0.73298,1.43797 -3.25771,0.41083 -6.75974,2.6705 -3.42059,2.25966 -6.27108,5.47796 -2.76905,3.14982 -4.56079,6.77898 -1.79173,3.62914 -1.79173,6.77896 0,1.30102 1.14019,1.6434 2.36184,-0.41085 5.45666,-3.35526 3.09481,-3.01287 7.49271,-9.24405 0.81444,-1.23254 1.79175,-2.73899 1.05876,-1.50643 2.11751,-3.14982 1.05876,-1.64338 2.03606,-3.28677 1.05876,-1.71186 1.95463,-3.28677 z m 17.02134,28.143 q 3.74635,-2.1227 7.32983,-5.40948 3.58348,-3.35524 6.51542,-7.18982 2.93193,-3.90305 4.96799,-8.07999 2.03607,-4.17694 2.76906,-8.01152 0,-0.82169 -1.05876,-1.09559 -1.14021,0 -3.17627,1.71186 -1.95463,1.6434 -4.3979,4.24543 -2.36184,2.60202 -4.88656,5.82033 -2.44327,3.2183 -4.47934,6.43659 -2.03606,3.14984 -3.50203,5.95729 -1.38452,2.73899 -1.54741,4.45085 -0.81443,0 -1.38452,-1.36949 -0.16289,-0.34237 -0.57011,-0.68475 -0.40721,-0.41084 -1.30307,-0.95865 -0.40722,-0.27389 -0.81444,-0.61626 -0.40721,-0.41085 -0.57009,-0.68475 -0.32577,-0.54779 -0.32577,-1.78033 0,-4.04 1.22164,-9.10711 1.22164,-5.06712 3.17627,-10.33966 2.03606,-5.27253 4.72367,-10.33965 2.68759,-5.13559 5.5381,-9.38099 2.93193,-4.24543 5.86386,-7.18982 2.93192,-2.94442 5.5381,-3.90306 0.81442,0.20543 1.95463,0.68474 1.14019,0.47933 2.28039,1.0956 1.14018,0.61626 2.11751,1.23254 1.05875,0.61627 1.5474,1.09558 -8.95869,6.09424 -15.55553,15.68067 -6.51541,9.51796 -10.66899,22.52811 2.28039,-3.56068 5.13088,-6.84745 2.8505,-3.35525 5.61954,-5.88881 2.8505,-2.53355 5.37523,-4.03999 2.60615,-1.50644 4.31645,-1.50644 1.30309,0.27389 2.52472,0.95865 1.22164,0.68474 2.19895,1.71186 0.97731,0.95864 1.62884,2.1227 0.65155,1.0956 0.81444,2.32813 -0.0815,2.87594 -1.22165,6.16271 -1.05876,3.21831 -2.93193,6.36813 -1.79174,3.14983 -4.15358,6.02576 -2.28038,2.87592 -4.88655,5.06711 -2.52472,2.12271 -5.13089,3.42372 -2.52472,1.30102 -4.80511,1.30102 -0.97731,0 -2.03607,-0.20543 -0.9773,-0.13694 -1.87317,-0.47931 -0.81442,-0.27391 -1.38453,-0.61628 -0.48865,-0.34237 -0.48865,-0.68475 z m 30.86661,-1.64338 q 0,-2.39661 0.57009,-5.6149 0.5701,-3.28679 1.62885,-6.98441 1.14021,-3.69762 2.60618,-7.73762 1.5474,-4.04 3.42057,-8.07999 1.62886,-3.62914 3.74638,-7.32677 2.19894,-3.69762 4.72366,-7.25829 2.52473,-3.56068 5.21233,-6.77898 2.76905,-3.2183 5.53809,-5.8888 1.30308,0 2.76906,0.2739 1.54741,0.27389 2.93193,0.75322 1.46597,0.41083 2.60617,1.02711 1.22164,0.61627 1.95462,1.23254 -6.10819,5.27254 -10.99476,10.68203 -4.88656,5.341 -7.73704,10.06575 -1.54742,2.60203 -2.85049,4.86168 -1.22164,2.25966 -2.2804,4.51931 -1.05874,2.1912 -1.95462,4.45085 -0.81443,2.19119 -1.54742,4.65627 15.637,-16.77625 23.21115,-16.77625 2.11752,0 4.56079,1.16405 2.44329,1.16408 4.31647,3.14985 -2.52473,2.32812 -5.21233,5.6149 -2.68761,3.28678 -4.96801,6.64202 -2.19894,3.28678 -3.66491,6.16271 -1.38452,2.80746 -1.38452,4.17695 0,0.68474 0.24431,0.95863 0.24434,0.20543 1.05876,0.20543 1.22165,0 1.95463,-0.2739 0.73299,-0.2739 0.89587,-0.2739 0.40721,0.5478 0.48865,0.75323 0.0815,0.20542 0.0815,0.34237 0,0.2739 -0.9773,0.82169 -0.97733,0.47932 -2.36184,1.02712 -1.30308,0.47932 -2.60616,0.89018 -1.30309,0.41083 -1.95462,0.41083 -0.81443,0 -1.62885,-0.41083 -0.81443,-0.34239 -1.46597,-0.95865 -0.57012,-0.61628 -0.97733,-1.36949 -0.32576,-0.75322 -0.32576,-1.57492 0,-1.02712 0.65154,-3.01288 0.73298,-2.05423 1.95462,-4.72473 1.22165,-2.73899 2.93193,-5.95729 1.7103,-3.2183 3.66493,-6.57355 0,-0.2739 -0.32578,-0.2739 -0.24432,0 -1.30307,0.5478 -0.97732,0.54778 -1.87318,1.09559 -2.93193,1.84881 -5.94532,4.58778 -2.93193,2.67051 -5.78242,5.88882 -2.76905,3.21829 -5.29378,6.84745 -2.44327,3.56067 -4.23501,7.18983 -0.24433,0.47931 -0.73298,0.89016 -0.48866,0.41084 -0.81443,0.41084 -0.24433,0 -0.73299,-0.47932 -0.40721,-0.47931 -0.81442,-1.23254 -0.32577,-0.68475 -0.65154,-1.43797 -0.32577,-0.75321 -0.32577,-1.30101 z m 42.26858,-3.42373 q 0,-0.61626 0.0815,-1.50643 0.16289,-0.95865 0.48866,-2.46508 0.32576,-1.57492 0.81442,-3.7661 0.5701,-2.19119 1.38453,-5.27254 0.16289,-0.68475 0.73299,-2.19118 0.57009,-1.50644 1.46596,-3.14982 0.97731,-1.71187 2.28039,-3.28679 1.38452,-1.57491 3.2577,-2.32813 1.38454,0.2739 3.66493,1.43797 2.28039,1.09559 3.90924,3.08135 -1.87318,1.78034 -3.17626,3.56068 -1.22164,1.78033 -2.2804,3.69762 -0.9773,1.91728 -1.87317,3.97151 -0.81443,2.05424 -1.87319,4.3139 -0.89586,1.91729 -1.62885,3.97153 -0.73299,1.98574 -0.81442,3.49219 0,1.23254 -0.0815,1.71186 0,0.5478 -0.40721,0.5478 -0.32577,0 -1.30309,-0.34238 -0.9773,-0.34237 -2.03606,-1.02711 -0.97731,-0.75322 -1.79173,-1.84882 -0.81443,-1.09558 -0.81443,-2.60203 z m 15.55554,-29.71792 q 0,-0.41085 0.24432,-1.23255 -0.40721,-0.34237 -0.73299,-1.02712 -0.24431,-0.68474 -0.24431,-1.23254 0,-0.61626 0.16288,-1.64338 0.24433,-1.0956 0.5701,-2.32813 0.32577,-1.23255 0.81442,-2.53357 0.48866,-1.36949 0.97732,-2.46508 0.97731,0 2.36183,0.47934 1.46597,0.41083 2.93193,1.16405 1.46597,0.68475 2.68761,1.57492 1.22165,0.82169 1.87318,1.57491 -0.89587,0.75322 -2.36183,2.12271 -1.46597,1.30102 -2.8505,2.80746 -1.38452,1.43796 -2.52473,2.73898 -1.14018,1.30101 -1.46596,1.84881 -0.97731,-0.13695 -1.71029,-0.68475 -0.73298,-0.61627 -0.73298,-1.16406 z m 16.77703,1.09559 q 2.11749,0.54779 3.99069,2.46508 1.87318,1.84881 2.76904,4.10847 -0.89586,1.8488 -2.76904,4.45084 -1.8732,2.60204 -3.74637,5.34102 -1.87318,2.6705 -3.42059,5.13559 -1.46596,2.3966 -1.71029,3.97151 1.30308,-1.16406 2.85048,-2.67051 1.62886,-1.57491 3.09484,-3.08135 1.5474,-1.57491 2.85048,-2.80745 1.30308,-1.30102 2.03606,-1.91728 1.54742,-1.36949 3.66493,-3.14984 2.11749,-1.84881 4.3979,-3.42373 2.36183,-1.64337 4.72367,-2.73897 2.36184,-1.16407 4.31646,-1.16407 2.1175,0 3.50203,1.23254 1.46597,1.16407 2.2804,2.46509 0,0.13695 -0.65155,0.41084 -0.5701,0.20543 -1.71029,1.30102 -1.14021,1.23254 -2.60617,3.42372 -1.38452,2.12271 -2.76904,4.65627 -1.30309,2.46509 -2.19896,5.06711 -0.89587,2.60204 -0.89587,4.72474 0,1.71186 0.48866,2.19118 0.5701,0.47933 1.54741,0.47933 0.89586,0 1.87318,-0.34237 0.97731,-0.34237 1.54741,-0.34237 0.32577,0.13694 0.48866,0.61627 0.24432,0.41085 0.24432,0.75322 -0.65154,0.47931 -1.54742,0.95864 -0.89585,0.47932 -1.87317,0.89016 -0.97731,0.41085 -1.95462,0.68474 -0.89587,0.27391 -1.62886,0.27391 -2.36183,0 -3.90924,-0.61628 -1.46596,-0.54779 -2.36184,-1.50643 -0.81443,-0.95865 -1.14019,-2.25966 -0.32577,-1.36949 -0.32577,-2.87593 0,-0.82169 0.16289,-1.84881 0.16288,-1.02713 0.65153,-2.39661 0.48866,-1.43797 1.38453,-3.35525 0.89587,-1.98575 2.28039,-4.72474 -0.16288,0 -2.19896,0.95865 -2.03606,0.95863 -4.39789,2.9444 -3.8278,3.08135 -6.92262,6.09422 -3.01338,3.01289 -6.18964,6.71051 -1.79174,2.12271 -3.17626,3.56067 -1.30308,1.50644 -2.2804,1.98577 -1.71029,-0.82171 -2.52471,-2.32814 -0.81444,-1.43796 -1.22165,-3.01288 0,-1.30102 0.40721,-3.28677 0.48866,-1.98576 1.22165,-4.38237 0.81443,-2.46508 1.95462,-5.13559 1.1402,-2.6705 2.52472,-5.34101 3.09482,-6.02575 5.61954,-9.44948 2.60616,-3.42372 3.25771,-3.69762 z m 58.88293,5.54644 q 0.81442,0 1.87318,0.27389 1.14019,0.20542 2.03609,0.61628 0.8958,0.34237 1.4659,0.75321 0.6516,0.41085 0.6516,0.75322 -1.6289,2.87593 -3.0134,5.82033 -1.38452,2.87592 -2.36183,5.54643 -0.97732,2.67051 -1.54741,4.99865 -0.48866,2.32813 -0.48866,4.04 0,1.91727 0.48866,3.21829 0.48865,1.23254 1.62885,1.78033 -0.97731,0.5478 -2.52472,0.89018 -1.54741,0.34237 -2.76904,0.34237 -4.39791,0 -4.39791,-5.06712 0,-3.90304 3.09482,-10.68201 -1.62886,3.14982 -3.74636,5.95727 -2.11751,2.73898 -4.31647,4.86169 -2.19894,2.12272 -4.47934,3.4922 -2.19895,1.30102 -4.07213,1.57491 -3.01337,-0.13694 -4.88655,-2.3966 -1.87318,-2.32814 -1.87318,-5.8888 0,-3.83458 1.95461,-8.08 1.95463,-4.24541 4.96802,-7.87456 3.09481,-3.62915 6.67829,-6.02576 3.58347,-2.46508 6.92262,-2.60203 0.81442,0.20542 1.79174,0.8217 1.05875,0.61625 1.95462,1.43796 0.97731,0.82169 1.62885,1.71186 0.65154,0.82169 0.73298,1.43797 -3.2577,0.41083 -6.75973,2.6705 -3.4206,2.25966 -6.27108,5.47796 -2.76906,3.14982 -4.5608,6.77898 -1.79173,3.62914 -1.79173,6.77896 0,1.30102 1.1402,1.6434 2.36183,-0.41085 5.45665,-3.35526 3.09483,-3.01287 7.49272,-9.24405 0.81444,-1.23254 1.79174,-2.73899 1.05876,-1.50643 2.11751,-3.14982 1.05876,-1.64338 2.03606,-3.28677 1.05876,-1.71186 1.95463,-3.28677 z m 13.68217,3.42372 q 0,-1.23255 0.1629,-2.32814 0.2444,-1.09558 0.8959,-1.84881 0.6515,-0.82169 1.7917,-1.23254 1.1402,-0.47932 3.0135,-0.47932 1.1401,0 2.5247,0.20541 1.4659,0.20543 2.1175,0.75323 -0.3259,1.16407 -0.5701,2.05424 -0.163,0.89016 -0.3259,1.98575 -0.082,1.02712 -0.1628,2.53357 -0.082,1.43796 -0.1629,3.76609 -0.1629,4.65627 -0.5701,8.35389 -0.3257,3.62915 -1.6289,7.25829 0,0.2739 0.2444,0.2739 1.2216,-0.75322 2.7691,-2.19118 1.5474,-1.43796 3.2576,-3.2183 1.7103,-1.84881 3.4206,-3.90305 1.7104,-2.05423 3.1763,-4.03999 1.9546,-2.87593 4.3165,-7.18982 2.3618,-4.3139 3.9092,-9.24407 0.4886,0 1.2217,0.20543 0.8143,0.13694 1.5474,0.41085 0.8143,0.20543 1.3845,0.47931 0.6515,0.27391 0.8958,0.47933 -0.1628,2.9444 -1.7102,6.02575 -1.4661,3.08136 -3.5835,5.95729 -2.1175,2.87593 -4.4794,5.40948 -2.3618,2.53356 -4.3165,4.38236 -3.9092,3.83459 -7.8999,6.84745 -3.9092,3.01288 -9.3659,5.82034 -2.1175,-0.68475 -3.3391,-1.84881 -1.2217,-1.09559 -1.2217,-2.32813 0,-0.82169 0.4072,-1.84881 0.4887,-1.09559 1.0588,-2.73898 0.5701,-1.71186 0.9773,-4.24543 0.4887,-2.53355 0.4887,-6.43659 0,-2.25966 -0.1629,-4.51932 -0.082,-2.32813 -0.082,-3.56067 z m 49.4357,22.87048 q 0.4072,-1.98576 1.3845,-5.20406 1.0587,-3.28678 2.4432,-6.91593 1.3846,-3.69762 2.932,-7.39524 1.5474,-3.69763 3.0133,-6.64203 1.0588,-2.12271 1.8732,-3.28677 0.8145,-1.23254 1.7918,-2.05424 1.1402,0.13694 2.3617,0.47931 1.2217,0.34239 2.3619,0.82171 1.1402,0.47932 2.0361,1.02712 0.8958,0.47931 1.3845,0.95863 -2.1989,2.19119 -3.9092,4.99864 -1.6289,2.80746 -3.3392,7.18983 4.3979,-3.28678 7.737,-6.29965 3.4207,-3.01288 6.3526,-6.71051 0.4886,-0.34237 1.7103,-0.34237 1.1402,0 2.199,0.34237 1.0587,0.2739 1.4659,0.82169 -1.4659,3.28678 -1.4659,6.50507 0,3.01289 1.0587,4.51934 -0.081,0.41083 -1.1402,1.5749 -0.9773,1.16407 -2.199,2.19119 -2.1989,-0.95864 -3.9092,-2.60203 -1.7103,-1.71186 -2.5247,-3.69763 -3.8278,2.25966 -6.5154,4.45085 -2.6876,2.1227 -4.6422,4.79321 -1.8733,2.60204 -3.2578,6.02576 -1.3031,3.42373 -2.5247,8.14847 -0.733,-0.0685 -1.7917,-0.47933 -0.9773,-0.34238 -2.0361,-0.89016 -0.9773,-0.5478 -1.7917,-1.16408 -0.8145,-0.61627 -1.0587,-1.16406 z m 62.8736,-26.2942 q 0.8145,0 1.8732,0.27389 1.1401,0.20542 2.036,0.61628 0.896,0.34237 1.4659,0.75321 0.6516,0.41085 0.6516,0.75322 -1.6288,2.87593 -3.0134,5.82033 -1.3844,2.87592 -2.3617,5.54643 -0.9774,2.67051 -1.5475,4.99865 -0.4886,2.32813 -0.4886,4.04 0,1.91727 0.4886,3.21829 0.4887,1.23254 1.6289,1.78033 -0.9773,0.5478 -2.5247,0.89018 -1.5475,0.34237 -2.7691,0.34237 -4.3979,0 -4.3979,-5.06712 0,-3.90304 3.0949,-10.68201 -1.629,3.14982 -3.7465,5.95727 -2.1174,2.73898 -4.3164,4.86169 -2.1988,2.12272 -4.4793,3.4922 -2.199,1.30102 -4.0721,1.57491 -3.0135,-0.13694 -4.8866,-2.3966 -1.8732,-2.32814 -1.8732,-5.8888 0,-3.83458 1.9547,-8.08 1.9545,-4.24541 4.9679,-7.87456 3.0948,-3.62915 6.6783,-6.02576 3.5836,-2.46508 6.9226,-2.60203 0.8145,0.20542 1.7918,0.8217 1.0588,0.61625 1.9546,1.43796 0.9773,0.82169 1.6288,1.71186 0.6516,0.82169 0.7331,1.43797 -3.2577,0.41083 -6.7598,2.6705 -3.4206,2.25966 -6.2711,5.47796 -2.769,3.14982 -4.5607,6.77898 -1.7918,3.62914 -1.7918,6.77896 0,1.30102 1.1402,1.6434 2.3619,-0.41085 5.4566,-3.35526 3.0949,-3.01287 7.4928,-9.24405 0.8143,-1.23254 1.7917,-2.73899 1.0587,-1.50643 2.1175,-3.14982 1.0587,-1.64338 2.0362,-3.28677 1.0586,-1.71186 1.9545,-3.28677 z m 13.6822,3.42372 q 0,-1.23255 0.1629,-2.32814 0.2444,-1.09558 0.896,-1.84881 0.6513,-0.82169 1.7916,-1.23254 1.1402,-0.47932 3.0133,-0.47932 1.1403,0 2.5248,0.20541 1.4661,0.20543 2.1175,0.75323 -0.3258,1.16407 -0.57,2.05424 -0.1629,0.89016 -0.3258,1.98575 -0.082,1.02712 -0.1629,2.53357 -0.082,1.43796 -0.1629,3.76609 -0.1629,4.65627 -0.5701,8.35389 -0.3258,3.62915 -1.6289,7.25829 0,0.2739 0.2444,0.2739 1.2216,-0.75322 2.7689,-2.19118 1.5475,-1.43796 3.2578,-3.2183 1.7103,-1.84881 3.4206,-3.90305 1.7102,-2.05423 3.1763,-4.03999 1.9546,-2.87593 4.3164,-7.18982 2.3619,-4.3139 3.9093,-9.24407 0.4887,0 1.2216,0.20543 0.8145,0.13694 1.5474,0.41085 0.8144,0.20543 1.3846,0.47931 0.6516,0.27391 0.8958,0.47933 -0.1629,2.9444 -1.7102,6.02575 -1.4661,3.08136 -3.5836,5.95729 -2.1175,2.87593 -4.4793,5.40948 -2.3619,2.53356 -4.3165,4.38236 -3.9092,3.83459 -7.8999,6.84745 -3.9092,3.01288 -9.3659,5.82034 -2.1175,-0.68475 -3.3392,-1.84881 -1.2215,-1.09559 -1.2215,-2.32813 0,-0.82169 0.4071,-1.84881 0.4887,-1.09559 1.0588,-2.73898 0.5702,-1.71186 0.9773,-4.24543 0.4886,-2.53355 0.4886,-6.43659 0,-2.25966 -0.1629,-4.51932 -0.082,-2.32813 -0.082,-3.56067 z m 61.1634,-4.10848 q -0.3257,4.24542 -1.7916,7.32678 -1.4662,3.01288 -4.2351,5.34101 -2.6876,2.25966 -6.5969,4.10847 -3.9092,1.8488 -9.1215,3.56067 0,0.41085 -0.082,0.89017 0,0.41084 0,0.89018 0,0.89015 0.1628,1.8488 0.1629,0.95865 0.5701,1.78034 0.4072,0.82169 1.1402,1.36948 0.733,0.47933 1.8732,0.47933 2.199,0 4.3165,-0.8217 2.1175,-0.82168 3.9907,-1.98576 1.9546,-1.23254 3.5835,-2.60203 1.7102,-1.43796 3.0133,-2.60203 0.8144,0.61627 1.3845,1.16407 -3.6649,4.10847 -8.0627,6.84745 -4.3165,2.6705 -8.2258,3.42373 -5.6196,-0.5478 -8.7958,-3.42373 -3.0948,-2.94441 -3.0948,-7.05287 0,-2.80746 0.8958,-5.68339 0.9773,-2.9444 2.6062,-5.6149 1.7103,-2.73899 3.9093,-5.13559 2.2804,-2.39661 4.8051,-4.17695 2.6061,-1.78033 5.2938,-2.80745 2.769,-1.02711 5.4565,-1.02711 3.7464,0.41084 7.0042,3.90303 z m -5.6194,2.25967 q -2.199,0.27389 -4.5608,1.50643 -2.3619,1.23255 -4.4794,3.28678 -2.0361,2.05424 -3.7464,4.79322 -1.7103,2.73897 -2.6876,5.8888 6.5154,-2.73898 10.8319,-6.7105 4.3164,-4.04 4.6423,-8.76473 z m 38.5222,-2.25967 q -0.3258,4.24542 -1.7917,7.32678 -1.466,3.01288 -4.235,5.34101 -2.6876,2.25966 -6.5969,4.10847 -3.9092,1.8488 -9.1216,3.56067 0,0.41085 -0.082,0.89017 0,0.41084 0,0.89018 0,0.89015 0.1628,1.8488 0.163,0.95865 0.5702,1.78034 0.4073,0.82169 1.1401,1.36948 0.7331,0.47933 1.8733,0.47933 2.1988,0 4.3164,-0.8217 2.1175,-0.82168 3.9907,-1.98576 1.9546,-1.23254 3.5835,-2.60203 1.7103,-1.43796 3.0133,-2.60203 0.8145,0.61627 1.3847,1.16407 -3.665,4.10847 -8.063,6.84745 -4.3165,2.6705 -8.2256,3.42373 -5.6196,-0.5478 -8.7958,-3.42373 -3.0949,-2.94441 -3.0949,-7.05287 0,-2.80746 0.896,-5.68339 0.9772,-2.9444 2.6061,-5.6149 1.7103,-2.73899 3.9092,-5.13559 2.2804,-2.39661 4.8051,-4.17695 2.6062,-1.78033 5.2939,-2.80745 2.769,-1.02711 5.4566,-1.02711 3.7463,0.41084 7.004,3.90303 z m -5.6196,2.25967 q -2.199,0.27389 -4.5607,1.50643 -2.3619,1.23255 -4.4794,3.28678 -2.036,2.05424 -3.7462,4.79322 -1.7104,2.73897 -2.6877,5.8888 6.5154,-2.73898 10.8319,-6.7105 4.3165,-4.04 4.6421,-8.76473 z m 22.5596,-7.12135 q 2.1175,0.54779 3.9907,2.46508 1.8731,1.84881 2.769,4.10847 -0.8959,1.8488 -2.769,4.45084 -1.8732,2.60204 -3.7463,5.34102 -1.8733,2.6705 -3.4206,5.13559 -1.4661,2.3966 -1.7104,3.97151 1.3032,-1.16406 2.8505,-2.67051 1.6289,-1.57491 3.0949,-3.08135 1.5474,-1.57491 2.8505,-2.80745 1.3031,-1.30102 2.036,-1.91728 1.5475,-1.36949 3.665,-3.14984 2.1174,-1.84881 4.3978,-3.42373 2.3619,-1.64337 4.7237,-2.73897 2.3619,-1.16407 4.3164,-1.16407 2.1176,0 3.5021,1.23254 1.466,1.16407 2.2803,2.46509 0,0.13695 -0.6514,0.41084 -0.5701,0.20543 -1.7104,1.30102 -1.1401,1.23254 -2.606,3.42372 -1.3847,2.12271 -2.7691,4.65627 -1.3031,2.46509 -2.199,5.06711 -0.8959,2.60204 -0.8959,4.72474 0,1.71186 0.4887,2.19118 0.5701,0.47933 1.5474,0.47933 0.8958,0 1.8732,-0.34237 0.9773,-0.34237 1.5474,-0.34237 0.3258,0.13694 0.4887,0.61627 0.2443,0.41085 0.2443,0.75322 -0.6516,0.47931 -1.5475,0.95864 -0.8957,0.47932 -1.8731,0.89016 -0.9773,0.41085 -1.9547,0.68474 -0.8958,0.27391 -1.6288,0.27391 -2.3618,0 -3.9092,-0.61628 -1.466,-0.54779 -2.3619,-1.50643 -0.8144,-0.95865 -1.1403,-2.25966 -0.3256,-1.36949 -0.3256,-2.87593 0,-0.82169 0.1629,-1.84881 0.1627,-1.02713 0.6515,-2.39661 0.4887,-1.43797 1.3846,-3.35525 0.8957,-1.98575 2.2803,-4.72474 -0.1628,0 -2.199,0.95865 -2.036,0.95863 -4.3978,2.9444 -3.828,3.08135 -6.9227,6.09422 -3.0134,3.01289 -6.1896,6.71051 -1.7917,2.12271 -3.1763,3.56067 -1.303,1.50644 -2.2804,1.98577 -1.7103,-0.82171 -2.5247,-2.32814 -0.8144,-1.43796 -1.2216,-3.01288 0,-1.30102 0.4072,-3.28677 0.4887,-1.98576 1.2217,-4.38237 0.8143,-2.46508 1.9546,-5.13559 1.1402,-2.6705 2.5246,-5.34101 3.0949,-6.02575 5.6196,-9.44948 2.6061,-3.42372 3.2577,-3.69762 z m 48.5397,1.23253 q 1.629,0 3.7465,0.8217 2.1174,0.8217 3.7463,2.12271 -0.4073,-2.73898 -1.0589,-5.13558 -0.57,-2.46508 -1.7916,-5.06713 -1.1402,-2.60202 -3.0948,-5.68337 -1.9547,-3.08135 -4.8866,-7.05288 0.2444,-0.61627 1.0587,-1.43796 0.8959,-0.8217 1.9546,-1.50644 1.1403,-0.75322 2.2804,-1.30101 1.2218,-0.5478 2.2805,-0.68475 2.2803,2.12271 4.3164,5.34101 2.036,3.14983 3.5836,6.84745 1.5474,3.62915 2.3617,7.5322 0.8959,3.90305 0.8959,7.46371 0,3.56068 -0.9774,7.32678 -0.8958,3.76609 -2.6061,7.39524 -1.6289,3.56067 -3.8278,6.77898 -2.1988,3.2183 -4.805,5.75186 -2.5249,2.53356 -5.2939,4.10847 -2.769,1.64338 -5.5381,2.05424 -5.6195,-0.54781 -8.6329,-3.08135 -2.9319,-2.46509 -2.9319,-6.84745 0,-2.32814 0.8144,-5.06713 0.8959,-2.73897 2.2804,-5.40948 1.466,-2.73898 3.3391,-5.27253 1.9547,-2.60204 4.0722,-4.65627 2.1989,-2.05424 4.3979,-3.4922 2.1989,-1.43796 4.3164,-1.84882 z m -8.3072,32.93625 q 2.8506,-0.82171 5.7012,-3.62916 2.8503,-2.80745 5.1308,-6.57354 2.2803,-3.83457 3.6649,-8.14847 1.466,-4.38237 1.466,-8.42237 0,-1.16406 0,-1.43797 0,-0.27389 -0.082,-0.54779 -1.9546,0.68475 -4.1536,2.32813 -2.199,1.64339 -4.3979,3.83458 -2.1989,2.12271 -4.1536,4.65626 -1.9546,2.53356 -3.5021,5.06712 -1.5474,2.53354 -2.4431,4.86168 -0.896,2.32814 -0.896,4.10847 0,3.42372 3.6649,3.90306 z m 23.8627,-2.32814 q 0.4071,-1.98576 1.3844,-5.20406 1.0587,-3.28678 2.4434,-6.91593 1.3845,-3.69762 2.9318,-7.39524 1.5475,-3.69763 3.0134,-6.64203 1.0587,-2.12271 1.8733,-3.28677 0.8144,-1.23254 1.7916,-2.05424 1.1403,0.13694 2.3619,0.47931 1.2218,0.34239 2.3618,0.82171 1.1402,0.47932 2.0361,1.02712 0.896,0.47931 1.3845,0.95863 -2.199,2.19119 -3.9093,4.99864 -1.6288,2.80746 -3.339,7.18983 4.3979,-3.28678 7.737,-6.29965 3.4205,-3.01288 6.3525,-6.71051 0.4887,-0.34237 1.7103,-0.34237 1.1402,0 2.1989,0.34237 1.0588,0.2739 1.466,0.82169 -1.466,3.28678 -1.466,6.50507 0,3.01289 1.0588,4.51934 -0.082,0.41083 -1.1403,1.5749 -0.9772,1.16407 -2.1988,2.19119 -2.199,-0.95864 -3.9093,-2.60203 -1.7103,-1.71186 -2.5247,-3.69763 -3.8278,2.25966 -6.5155,4.45085 -2.6874,2.1227 -4.6421,4.79321 -1.8731,2.60204 -3.2578,6.02576 -1.303,3.42373 -2.5247,8.14847 -0.7329,-0.0685 -1.7917,-0.47933 -0.9772,-0.34238 -2.036,-0.89016 -0.9774,-0.5478 -1.7918,-1.16408 -0.8143,-0.61627 -1.0587,-1.16406 z m 62.8737,-26.2942 q 0.8144,0 1.8732,0.27389 1.1401,0.20542 2.0361,0.61628 0.8957,0.34237 1.4659,0.75321 0.6516,0.41085 0.6516,0.75322 -1.6289,2.87593 -3.0135,5.82033 -1.3845,2.87592 -2.3618,5.54643 -0.9773,2.67051 -1.5474,4.99865 -0.4887,2.32813 -0.4887,4.04 0,1.91727 0.4887,3.21829 0.4887,1.23254 1.6288,1.78033 -0.9772,0.5478 -2.5246,0.89018 -1.5475,0.34237 -2.7691,0.34237 -4.3979,0 -4.3979,-5.06712 0,-3.90304 3.0948,-10.68201 -1.6289,3.14982 -3.7463,5.95727 -2.1177,2.73898 -4.3165,4.86169 -2.199,2.12272 -4.4793,3.4922 -2.199,1.30102 -4.0723,1.57491 -3.0132,-0.13694 -4.8865,-2.3966 -1.8731,-2.32814 -1.8731,-5.8888 0,-3.83458 1.9546,-8.08 1.9546,-4.24541 4.968,-7.87456 3.0948,-3.62915 6.6783,-6.02576 3.5834,-2.46508 6.9226,-2.60203 0.8144,0.20542 1.7917,0.8217 1.0588,0.61625 1.9547,1.43796 0.9773,0.82169 1.6288,1.71186 0.6515,0.82169 0.733,1.43797 -3.2577,0.41083 -6.7598,2.6705 -3.4205,2.25966 -6.271,5.47796 -2.769,3.14982 -4.5608,6.77898 -1.7918,3.62914 -1.7918,6.77896 0,1.30102 1.1403,1.6434 2.3618,-0.41085 5.4565,-3.35526 3.095,-3.01287 7.4928,-9.24405 0.8145,-1.23254 1.7918,-2.73899 1.0587,-1.50643 2.1175,-3.14982 1.0587,-1.64338 2.0361,-3.28677 1.0587,-1.71186 1.9546,-3.28677 z m 23.374,-5.54644 q 2.1175,0.54779 3.9906,2.46508 1.8731,1.84881 2.769,4.10847 -0.8959,1.8488 -2.769,4.45084 -1.8731,2.60204 -3.7463,5.34102 -1.8733,2.6705 -3.4207,5.13559 -1.466,2.3966 -1.7103,3.97151 1.303,-1.16406 2.8506,-2.67051 1.6288,-1.57491 3.0948,-3.08135 1.5473,-1.57491 2.8504,-2.80745 1.3031,-1.30102 2.0361,-1.91728 1.5474,-1.36949 3.6649,-3.14984 2.1175,-1.84881 4.3979,-3.42373 2.3618,-1.64337 4.7237,-2.73897 2.3618,-1.16407 4.3165,-1.16407 2.1175,0 3.502,1.23254 1.4659,1.16407 2.2804,2.46509 0,0.13695 -0.6516,0.41084 -0.5701,0.20543 -1.7103,1.30102 -1.1401,1.23254 -2.6062,3.42372 -1.3844,2.12271 -2.769,4.65627 -1.3031,2.46509 -2.1988,5.06711 -0.896,2.60204 -0.896,4.72474 0,1.71186 0.4886,2.19118 0.5702,0.47933 1.5474,0.47933 0.896,0 1.8733,-0.34237 0.9773,-0.34237 1.5473,-0.34237 0.3258,0.13694 0.4887,0.61627 0.2444,0.41085 0.2444,0.75322 -0.6516,0.47931 -1.5475,0.95864 -0.8959,0.47932 -1.8731,0.89016 -0.9774,0.41085 -1.9546,0.68474 -0.896,0.27391 -1.6289,0.27391 -2.3618,0 -3.9093,-0.61628 -1.4659,-0.54779 -2.3618,-1.50643 -0.8144,-0.95865 -1.1402,-2.25966 -0.3257,-1.36949 -0.3257,-2.87593 0,-0.82169 0.1628,-1.84881 0.1629,-1.02713 0.6516,-2.39661 0.4887,-1.43797 1.3844,-3.35525 0.896,-1.98575 2.2805,-4.72474 -0.163,0 -2.199,0.95865 -2.0361,0.95863 -4.3979,2.9444 -3.8278,3.08135 -6.9225,6.09422 -3.0134,3.01289 -6.1897,6.71051 -1.7918,2.12271 -3.1763,3.56067 -1.303,1.50644 -2.2804,1.98577 -1.7103,-0.82171 -2.5247,-2.32814 -0.8144,-1.43796 -1.2216,-3.01288 0,-1.30102 0.4072,-3.28677 0.4885,-1.98576 1.2216,-4.38237 0.8145,-2.46508 1.9546,-5.13559 1.1403,-2.6705 2.5248,-5.34101 3.0948,-6.02575 5.6195,-9.44948 2.6062,-3.42372 3.2578,-3.69762 z"
     id="path25"
     inkscape:export-filename="g21.svg"
     inkscape:export-xdpi="96"
     inkscape:export-ydpi="96" />
</svg>
