<svg version="1.1" viewBox="0 0 1052.4 580" xmlns="http://www.w3.org/2000/svg">
 <path d="m279.41 13.029c-0.66251 0.04124-1.1134 0.17509-1.2285 0.36133-0.30692 0.49665-1.5578 0.62117-2.8203 0.29102-1.2625-0.33017-3.2168-0.2012-4.3398 0.28906-1.123 0.49026-2.6383 0.79719-3.3613 0.68555-1.2416-0.1917-2.9907 2.5231-3.2539 5.0625-0.066 0.63638-2.317 0.99862-5.0254 0.79492-3.6081-0.27137-4.8607 0.03904-4.6289 1.1582 0.20802 1.0046-0.94339 1.5446-3.3984 1.5898-2.0529 0.03786-4.0801 0.42779-4.5195 0.86719-0.43939 0.4394-2.6729 0.85765-4.9531 0.94141l-4.1582 0.14453 4.0508 0.72266c2.2271 0.39347 3.7888 1.0897 3.4707 1.5547-0.31816 0.46499 0.60151 1.6889 2.0606 2.7109 2.0408 1.4294 3.0256 1.572 4.2656 0.54297 1.0793-0.89575 2.3192-0.99245 3.7246-0.25391 5.398 2.8368 11.239 2.717 17.029-0.36133 3.977-2.1146 6.0432-2.6326 6.9043-1.7715 1.8591 1.8591-1.1452 4.0294-9.1094 6.6523-5.0896 1.6762-7.6126 1.9882-9.4727 1.1582-2.7019-1.2056-6.1465-0.45232-6.1465 1.3379 0 1.8321 8.2398 6.0508 10.449 5.3496 2.7121-0.86079 3.8846 1.073 1.7344 2.8574-2.3803 1.9755-13.92 0.08774-13.92-2.2793 0-0.94851-0.90138-2.404-1.9883-3.2168-1.0869-0.81283-1.6703-2.2556-1.3008-3.2188 0.36958-0.9631 0.22914-1.6447-0.32617-1.5176-1.1902 0.27229-4.9212-1.003-7.375-2.5312-3.4428-2.1442-4.6578-2.4864-6.6172-1.7344-1.7066 0.65491-1.7479 0.92115-0.28906 1.8438 1.6914 1.0696 1.3802 1.2683-2.6387 1.5898-0.79541 0.06365-2.0567 0.87543-2.7852 1.8086-1.6746 2.145 1.1412 4.547 5.3887 4.627 1.5908 0.02997 3.6724 0.58582 4.627 1.1934 1.3573 0.86393 0.9096 1.2679-2.1328 1.8809-3.1264 0.62985-3.5441 0.99384-2.0254 1.8438 1.0393 0.58162 1.5976 1.5356 1.2285 2.1328-0.37431 0.60566 1.3146 1.084 3.834 1.084 3.0448 1.1e-5 5.2061-0.75738 6.6152-2.3145 1.604-1.7725 2.4455-2.0133 3.6523-1.0117 0.86498 0.71787 3.1404 2.1518 5.0606 3.1816s3.5938 2.4008 3.6894 3.0371c0.2934 1.9531-3.6051 2-5.5332 0.07227-1.001-1.001-1.2946-1.8086-0.65039-1.8086 0.64423 0 1.4877 0.52183 1.8808 1.1582 0.39326 0.63633 1.5802 1.1562 2.6387 1.1562 1.4858 1.9e-5 1.3056-0.43234-0.75977-1.8789-2.2095-1.5476-3.1898-1.6194-5.7109-0.4707-2.7366 1.2469-2.8631 1.516-1.0488 2.5312 2.1207 1.1868 1.6782 3.3195-0.6875 3.2891-0.82794-0.01065-0.68143-0.48233 0.36132-1.1562 0.95448-0.61683 1.2144-1.1211 0.57813-1.1211-1.8982 0-4.6201 2.1026-3.7949 2.9277 0.42105 0.42103 5.2973 0.94726 10.846 1.1934 5.5488 0.24611 10.379 0.72687 10.701 1.0488 0.82541 0.82542 1.282 0.76776 5.6035-0.79492 3.9816-1.4398 5.4007-3.4432 1.7715-2.4941-2.8713 0.75087-8.6494-1.6441-7.6992-3.1816 0.42642-0.68997 2.0264-0.93242 3.5781-0.54297 1.6699 0.41911 4.3471-0.08188 6.5449-1.2285 2.0397-1.0641 4.433-2.2806 5.3496-2.7129 0.91663-0.43231 1.8899-1.4728 2.1699-2.3125 0.36896-1.1069-0.26779-1.3194-2.3496-0.79688-1.5793 0.39639-3.2081 0.37226-3.6152-0.03516-1.3135-1.3135 1.7603-3.832 4.6641-3.832 1.5504 0 2.4989-0.49355 2.1328-1.0859-1.1811-1.911 1.2698-2.3351 5.0606-0.9043 3.0398 1.1474 3.862 1.1059 4.7012-0.25195 0.5607-0.90722 5.1076-3.6447 10.086-6.0391 4.9786-2.3944 8.4445-4.3427 7.7012-4.373-0.74338-0.03035-2.3051-0.38159-3.4707-0.75977-1.5736-0.51057-1.7347-0.39363-0.57813 0.43359 1.1896 0.85075 0.72791 1.4026-1.9883 2.3496-3.7226 1.2977-5.7894 0.15325-3.3262-1.8438 0.78839-0.63918 3.7888-1.9291 6.6523-2.8926 6.913-2.3261 11.57-4.4993 11.57-5.3867 0-0.39699-1.4317-1.5635-3.1816-2.5664-2.304-1.3204-4.1388-1.5489-6.6523-0.83203-3.8267 1.0914-6.8895 0.47653-5.8574-1.1934 0.98404-1.5922-4.8994-2.5359-11.715-1.8789-3.2996 0.31811-8.3632 0.10929-11.279-0.43555-1.4582-0.27241-2.8792-0.41771-3.9414-0.43359-0.26556-4e-3 -0.50183-0.01375-0.72265 0zm110.02 0c-3.0938 0.03219-5.3038 0.62134-4.7715 1.4824 1.3316 2.1546-2.6312 2.4921-6.4004 0.54297-2.8143-1.4553-4.3749-1.6488-6.3262-0.75977-1.7819 0.81188-2.9919 0.80522-3.832-0.03516-1.6076-1.6077-4.8457-0.30063-4.8457 1.9512 0 2.3295 1.8796 2.2829 2.7832-0.07227 0.61008-1.5899 1.0986-1.4867 3.5078 0.83203 1.8919 1.8209 2.4447 3.1506 1.6992 4.0488-0.95194 1.147-6.7975 1.3133-12.617 0.36133-4.3646-0.71392-8.0171 0.12265-7.4121 1.6992 0.90115 2.3484-1.3228 3.2889-3.002 1.2656-1.7276-2.0816-3.5813-2.2759-3.1816-0.32422 0.20813 1.0163-1.6573 1.3298-6.6523 1.084-6.6056-0.32501-14.293 1.9037-12.545 3.6523 1.155 1.155-2.1251 4.4365-3.7969 3.7949-0.83215-0.31933-1.811-0.11005-2.1699 0.4707-0.35892 0.58076-1.3033 0.80993-2.0957 0.50586-1.8946-0.72699-10.714 3.5614-9.2207 4.4844 0.63312 0.39132 2.7824 0.24482 4.7734-0.32617 4.7677-1.3674 5.5804 0.18479 2.3496 4.5547-1.7871 2.4172-3.5828 3.5078-5.7852 3.5078-1.7517 1.1e-5 -3.5046 0.54666-3.9043 1.1934-0.3997 0.64671-1.239 0.84254-1.8438 0.46875-1.4461-0.89375-9.1465 1.6622-9.1465 3.0371 0 1.074 1.4006 1.3274 9.7246 1.5547 2.4958 0.06811 4.7593 0.75824 5.0254 1.5547 0.5336 1.5968-0.42199 2.0183-7.2305 3.2539-4.1574 0.75449-4.3347 0.91928-1.7363 1.5918 1.5908 0.41177 2.6327 1.1909 2.3145 1.7344-0.8635 1.4751 3.7068 2.7757 6.3633 1.8086 1.2726-0.46328 6.4468-0.92487 11.498-1.0488 5.0515-0.12395 9.5968-0.49255 10.086-0.79492 0.48926-0.30236 1.6148 0.90364 2.5312 2.6758 0.91647 1.7722 2.7833 4.2112 4.1211 5.4219s2.4219 2.8229 2.4219 3.5801c0 0.75724 0.99663 2.2679 2.207 3.3633 1.532 1.3864 2.0344 3.0243 1.6621 5.3867-0.61511 3.903 1.3303 4.665 2.3145 0.9043 0.53127-2.0315 0.96051-2.2448 2.3144-1.1211 3.9498 3.2781 2.9399 7.321-2.1348 8.5684-1.5874 0.39018-1.1909 0.59544 1.2656 0.6875 1.9694 0.07382 4.4379 1.1079 5.4961 2.2773 1.8009 1.99 1.8031 2.2717-0.36133 4.2305-2.1792 1.9721-2.224 2.1488-0.32617 3.543 1.8466 1.3565 1.7612 1.5971-1.1562 2.7109-1.7499 0.66811-3.1816 1.8014-3.1816 2.5312 0 0.96587 0.47323 0.94826 1.6992-0.0723 2.6879-2.2308 4.5879-0.20528 2.2422 2.3867-1.0946 1.2095-1.5173 2.22-0.94141 2.2402 0.57587 0.0203 0.10282 0.75376-1.0488 1.627-1.3488 1.0226-1.6321 1.8559-0.83008 2.3516 0.68481 0.42322 0.88431 1.3814 0.4336 2.1328-0.52429 0.8742-0.17494 0.81678 1.0117-0.14453 2.1004-1.7016 3.5694-0.33612 2.1328 1.9883-0.59958 0.97016 0.2272 3.2885 2.2773 6.3262 4.4891 6.6516 7.67 9.3034 11.316 9.3652 1.7152 0.0291 3.1744 0.68696 3.2539 1.4824 0.0795 0.79541 0.20953 1.7415 0.28906 2.0957 0.30728 1.3681 7.1113-3.5634 7.2324-5.2422 0.0704-0.97635 0.0357-2.8946-0.0723-4.2656s0.33786-2.8374 1.0117-3.2539c0.67392-0.41649 1.2285-1.7116 1.2285-2.8926 0-2.4903 10.173-11.88 11.787-10.883 0.59702 0.369 2.5854 0.0332 4.4102-0.72266 3.273-1.3557 4.8791-3.5501 5.0977-6.9434 0.0615-0.95447 0.75924-1.6044 1.5547-1.4453 0.79541 0.15909 2.475-0.73864 3.7246-1.9883 1.8118-1.8118 3.7605-2.232 9.5801-2.1328 4.4864 0.07645 8.6203-0.58072 10.738-1.6641 1.8951-0.96925 5.2573-2.1717 7.4844-2.6758l4.0488-0.90234-4.0488-0.9043c-2.2271-0.4891-5.1455-0.58572-6.5078-0.25391-2.9239 0.71211-4.868-1.6168-2.2051-2.6387 1.0061-0.38606 1.6879-1.5624 1.5176-2.6035-0.21497-1.3134 0.69792-1.9824 2.9648-2.2422 2.5091-0.28747 3.3873 0.18326 3.8691 2.0254 0.76682 2.9327 3.832 3.1919 3.832 0.32617 0-2.6966-6.2813-6.405-9.2559-5.4609-3.1525 1.0005-5.0999-0.34186-3.4336-2.3496 0.98828-1.1909 0.69979-1.8259-1.1582-2.8203-3.3041-1.7683-1.7183-3.8053 2.2773-2.9277 2.6394 0.5797 3.2139 0.33968 3.0742-1.3379-0.2446-2.9355 3.7595-2.6971 7.7363 0.4707 1.7987 1.4328 4.1227 2.6016 5.1699 2.6016 1.4757 1.5e-5 1.3222-0.40038-0.68555-1.8066-3.2882-2.3032-2.3107-3.9766 2.3496-3.9766 3.4347 1.5e-5 3.5016-0.08918 1.373-1.6992-1.2352-0.93424-1.7203-1.7854-1.084-1.8809 0.63632-0.09553-0.3693-0.50234-2.2422-0.9043-4.4285-0.9504-4.4655-2.8199-0.0723-3.7598l3.4707-0.72266-3.6875-0.14453c-2.0306-0.07529-4.0015-0.62612-4.375-1.2305-1.1342-1.8351 3.5739-3.5798 7.5566-2.7832 2.7935 0.5587 3.5446 0.40461 2.8926-0.65039-0.48084-0.77798-1.1442-1.133-1.4824-0.79492-1.1303 1.1304-5.1405-1.7998-4.5547-3.3262 0.31772-0.82815 3e-3 -2.0578-0.6875-2.748-0.90198-0.90195-0.37045-1.58 1.8438-2.4219 1.6945-0.64422 3.0742-1.954 3.0742-2.8926-3e-5 -0.93861 0.90984-2.2567 2.0234-2.9648 1.7126-1.0891 1.5695-1.2208-0.97656-0.6875-3.605 0.75508-4.9864-0.25438-3.2168-2.3867 0.71881-0.86619 3.5379-1.5547 6.3633-1.5547 3.3854 1.1e-5 4.9648-0.46188 4.7715-1.4102-0.15909-0.78028 0.90311-1.623 2.3516-1.8438 1.4485-0.22065 3.9779-1.0726 5.6035-1.916l2.9277-1.5176-4.627-0.79688c-2.5493-0.4307-5.5634-0.29326-6.7246 0.32617-2.9352 1.5658-7.6206 2.0625-9.3652 0.97656-0.80682-0.50224-3.013-0.15445-4.916 0.79492-3.3814 1.6869-5.5223 0.85125-4.0137-1.5898 0.50165-0.81179-2.0361-1.1047-7.7363-0.83203-6.1957 0.29634-10.443 1.3106-15.691 3.6875-4.1298 1.8704-8.0149 2.9283-9.1465 2.4941-2.8528-1.0947-1.0804-2.3708 9.002-6.3984 5.7263-2.2875 10.932-3.543 14.643-3.543 3.1617 1e-5 7.476-0.79209 9.6172-1.7715l3.9043-1.7715-6.543 0.68555c-6.8479 0.72562-9.5751-0.6281-5.9297-2.9277 2.3114-1.458-8.7039-0.88217-21.006 1.084-3.7815 0.60438-7.3489 0.78532-7.918 0.43359-1.7226-1.0646 1.072-2.953 5.748-3.9043 4.0177-0.81741 3.811-0.90028-2.5312-0.93945-3.818-0.0236-7.9813-0.14984-9.2539-0.28906-1.1576-0.12663-2.295-0.19238-3.3262-0.18164zm277.42 11.1c-0.62018 0.01659-0.82361 0.84951-0.54297 2.3867 0.10144 0.55531-0.56417 0.71371-1.4824 0.36133-2.3292-0.89379-3.3153 0.40957-1.7344 2.3145 1.2437 1.4986 3.553 1.7055 3 0.28906 0.15918-0.07602 0.28907-0.20217 0.28907-0.39844 0-0.06938-0.0687-0.15039-0.17969-0.25195 0.17944-0.51812 0.57457-1.2247 1.1191-1.8809 1.0095-1.2163 1.104-2.0626 0.28906-2.5664-0.29523-0.18244-0.55108-0.25944-0.75781-0.25391zm11.525 1.4746c-9e-3 -0.0028 0.0174 0.01053 0.0254 0.01563 7e-3 0.0018 0.0145 0.0021 0.0215 0.0039-0.016-0.0058-0.0304-0.01466-0.0469-0.01953zm-347.15 0.6582v2e-3c1.5767 0.0102 3.1881 1.0668 2.5293 2.1328-0.90427 1.4631-3.7067 1.5008-4.5898 0.07227-0.36609-0.59236-0.0991-1.4252 0.57812-1.8438 0.42807-0.26456 0.95682-0.36668 1.4824-0.36328zm326.91 1.4102c-0.87292 0.05713-1.9444 0.41091-2.9648 1.0488-0.75146 0.46974-1.6916 0.33287-2.0977-0.32422-0.40613-0.65708-1.2412-0.88033-1.8438-0.50781-0.60278 0.3725-0.7709 1.1706-0.39844 1.7734 0.37244 0.60274 1.1157 0.80768 1.6641 0.46875 0.5484-0.33892 1.2973-0.11932 1.6621 0.4707 0.36462 0.59004 1.3048 0.95233 2.0976 0.83203 2.3866-0.36209 4.4381-1.9646 3.7969-3.002-0.33917-0.5489-1.0431-0.8169-1.916-0.75977zm-380.06 0.86914c-0.79321 0.13821-2.4403 1.03-5.8574 2.8926-5.3889 2.9373-3.4901 3.1842 3.6523 0.46875 1.6189-0.61549 2.9277-1.6604 2.9277-2.3125 0-0.62194-0.0438-1.0023-0.4336-1.0488-0.0812-0.0097-0.17574-0.01975-0.28906 0zm29.141 0c-0.73041 0.0048-1.5563 0.32585-2.0605 0.83008-0.85855 0.85854-0.40691 1.011 1.5176 0.50781 1.5644-0.40911 2.0598-0.9416 1.1934-1.2305-0.20868-0.06955-0.40689-0.10903-0.65039-0.10742zm461.7 0.72266c-0.92234 0.05963-1.9804 0.6364-3.9043 1.7715-3.664 2.1619-3.8478 2.5252-2.0606 3.832 2.2241 1.6263 9.9554 0.85435 11.244-1.1211 0.44116-0.67616-0.50337-2.1127-2.1328-3.1816-1.4043-0.92117-2.2226-1.3593-3.1445-1.3008zm-86.424 0.6543c-0.47049 0.03679-0.96614 0.17997-1.3594 0.42969-0.79541 0.50506-1.8372 0.93166-2.3144 0.94141-0.47723 0.0097-0.86719 0.38996-0.86719 0.86719v1.6621c0 0.44543 0.5889 0.24511 1.3027-0.46875 0.71381-0.71387 1.9705-1.0345 2.7832-0.72266 1.7102 0.6563 3.0548-1.1974 1.9082-2.2617-0.48233-0.15649-0.9671-0.30234-1.4531-0.44726zm-47.385 0.25c-2.0884-0.01558-5.3198 1.1995-6.2539 2.7109-0.63434 1.0264 3.2174 4.0467 5.3145 4.1582 0.42426 0.02254 1.167 0.40726 1.627 0.86719 1.1468 1.1468 3.0098-0.15855 2.1699-1.5176-0.37256-0.60273-1.1014-0.83077-1.627-0.50586-0.52576 0.32489-1.2472-0.15066-1.5918-1.0488-0.34467-0.89818 0.20989-1.9228 1.2305-2.3145 1.2427-0.47685 1.5008-1.1029 0.72266-1.8809-0.32074-0.32073-0.89565-0.46355-1.5918-0.46875zm39.266 0.03516c-1.6963 0.03824-5.6884 3.0502-5.0254 4.123 0.35022 0.56671 1.0546 1.0118 1.5547 1.0117 1.4363 0 4.8406-4.1614 4.0488-4.9531-0.12909-0.1291-0.33582-0.1871-0.57813-0.18164zm-32.086 0.05664c-0.54993 0.03662-1.1173 0.29446-1.9727 0.91992-1.9451 1.4223-2.0087 1.8043-0.50586 3.6152 0.93054 1.1211 1.5694 2.3685 1.4102 2.748-0.15906 0.37943 0.17462 0.68751 0.75781 0.6875 0.58331 0 1.4581 0.3721 1.918 0.83203 1.1468 1.1468 3.0079-0.16049 2.168-1.5195-0.37256-0.60275-1.1137-0.80962-1.6621-0.4707-0.5484 0.33891-1.272 0.14077-1.627-0.43359-0.35498-0.57436 0.49152-1.3266 1.916-1.6992 3.5169-0.91968 3.7598-0.92895 3.7598 0.28906 0 2.0384 1.7143 2.7417 3.3613 1.375 1.135-0.94197 1.8729-0.97595 2.3867-0.14453 0.52258 0.84562 1.4632 0.80919 3.1094-0.07227 1.6749-0.89638 2.0297-1.6246 1.1582-2.4961-0.87152-0.87152-1.726-0.8237-2.8926 0.14453-1.3046 1.0828-1.8008 0.94896-2.3867-0.57812-0.40747-1.0618-1.0786-1.5971-1.4824-1.1934-0.40369 0.40371-1.3726 0.19294-2.1699-0.46875-1.0104-0.83857-1.6851-0.79068-2.2402 0.10742-0.55499 0.898-1.3978 0.71452-2.7852-0.54102-0.58443-0.52891-0.96496-0.63674-1.3828-0.81445-0.32744-0.03688-0.60117-0.13487-0.83789-0.28711zm18.709 0.91992c-0.16852 0.02029-0.35523 0.08852-0.50586 0.18164-0.60278 0.37251-0.69464 1.2719-0.2168 2.0234 0.47797 0.75143 0.95761 1.765 1.0469 2.2422 0.0892 0.47725 0.20941 1.2102 0.28906 1.627 0.0795 0.41679 1.1662-0.16259 2.4238-1.3008 2.1548-1.9501 2.1821-4.8366 0.0352-3.5078-0.5484 0.33893-1.3284 0.07897-1.7344-0.57812-0.30456-0.49281-0.83247-0.74837-1.3379-0.6875zm-96.244 3.6152c-1.1996-0.02164-1.3379 0.34761-1.3379 1.0859 0 0.82053-0.8765 2.1989-1.9531 3.0723-1.1152 0.90456-1.5879 0.99514-1.1211 0.2168 1.0221-1.7041-0.84798-2.9136-5.3144-3.4336-2.9894-0.34808-3.2397-0.14429-1.9512 1.4082 1.2244 1.4753 1.1052 2.1379-0.54297 3.7617-1.8154 1.7886-2.1102 1.7782-3.3613 0.10742-2.1807-2.9125-4.6336-3.1458-6.6543-0.65039-1.2988 1.6039-2.5506 2.0392-4.084 1.4453-2.1609-0.83701-2.1621-0.87431 0.0351-2.4941 2.4684-1.8166 1.6271-2.0313-3.832-0.93945-1.9886 0.39772-3.6152 1.2122-3.6152 1.8066 0 0.59433 0.51988 0.75655 1.1562 0.36328 2.3908-1.4776 3.6541 0.76394 1.6641 2.9629-1.081 1.1945-2.5436 1.8355-3.2539 1.4102-0.71039-0.4253-0.57843 0.12375 0.28907 1.1934 1.717 2.1172 4.1505 1.4993 2.8555-0.72266-0.43793-0.75143 0.35425-0.38017 1.7363 0.83203 2.2897 2.0084 2.6745 2.0462 4.5195 0.39648 2.648-2.3676 6.2687-2.9738 6.9043-1.1562 0.27692 0.79147-0.81439 1.9419-2.457 2.5664-3.3965 1.2914-4.0176 2.6083-0.97656 2.0977 3.1742-0.53297 2.3896 2.9255-0.86914 3.832-1.5908 0.44251-2.0473 0.87602-1.0117 0.93945 1.0357 0.06342 2.5341 0.8912 3.3262 1.8457 2.0908 2.5192 3.0285 2.1753 4.6641-1.7734 0.80151-1.935 2.4296-4.8069 3.6524-6.3613 2.0565-2.6143 2.4515-2.6777 4.8809-1.0859 1.4443 0.94643 3.0303 1.3115 3.543 0.83203 0.51263-0.47946 0.31788 0.32741-0.43359 1.7715-1.29 2.4788-1.1693 2.6094 2.2402 2.3496 1.9863-0.15134 3.82-0.60301 4.0508-0.97656 0.42114-0.6814-5.1488-3.7835-9.0762-5.0605-1.1539-0.37517-1.7965-1.1307-1.4453-1.6992 0.35138-0.56847-0.53954-1.3295-1.9531-1.6992-1.9982-0.52255-2.2352-0.98175-1.1562-2.0605s2.7945-1.0711 7.7363 0.03516c6.0273 1.3489 6.5796 1.2684 10.521-1.4102l4.1582-2.8203-3.832-0.75781c-4.2299-0.8147-6.5016-1.2088-7.7012-1.2305zm196.94 1.2305c-0.60425 1.6e-4 -1.3028 0.07408-1.9883 0.25195-1.6512 0.42843-1.7793 0.75811-0.57813 1.5195 2.0332 1.2889 4.1409 1.2771 4.9531-0.03711 0.62927-1.0182-0.57388-1.735-2.3867-1.7344zm8.6777 0.50586c-1.6511 0.09349-3.7217 0.77985-6.1113 2.0605l-3.9043 2.0977 6.5449 1.4824c3.5916 0.80012 7.8175 2.1488 9.4004 3 3.6047 1.9385 4.0675 1.6049 4.4102-2.8926 0.40491-5.3145-0.88789-6.5631-3.3984-3.3262l-2.1328 2.748-0.72266-2.6035c-0.5047-1.8228-1.963-2.6866-4.0859-2.5664zm-568.74 4.1562v2e-3c-1.5604 0.05865-1.8429 0.69447 0.14453 1.8066 1.0496 0.58739 1.5783 1.5824 1.1934 2.2051-0.41959 0.67891 0.36926 0.87328 1.9883 0.4707 1.9412-0.48267 3.8505 0.26689 6.7617 2.7109 4.8682 4.0871 6.7385 3.6002 3.5059-0.93945-1.3816-1.9403-4.5384-4.0201-7.7012-5.0977-2.013-0.68587-3.8299-1.0811-5.1328-1.1582-0.27144-0.01605-0.53684-0.0084-0.75976 0zm588.38 1.0488c-1.771-0.01997-3.3025 1.0672-5.0254 3.3262-1.5948 2.0908-2.8906 4.0699-2.8906 4.4121 0 0.34219 1.9516-0.05274 4.3379-0.9043 2.3862-0.8516 5.4342-1.599 6.7598-1.627 3.5762-0.07534 4.2335-1.356 1.627-3.1816-1.8978-1.3293-3.4312-2.0098-4.8086-2.0254zm-602.98 4.8809c-0.42424 0.15909-2.3562 0.28906-4.3027 0.28906-1.9465 8e-6 -3.2574 0.44634-2.9297 0.97656 0.32771 0.53022 2.316 0.80084 4.4121 0.61524s2.755-0.0706 1.4824 0.25391c-4.0254 1.0264-7.4637 3.1023-6.834 4.1211 0.87341 1.4132 1.4905 1.2395 5.8945-1.4824 2.1728-1.3429 3.7477-3.0346 3.5059-3.7598-0.24173-0.72522-0.80426-1.1728-1.2285-1.0137zm606.46 4.3379-4e-3 2e-3c-1.5167 0.03404-2.6557 0.77467-4.1953 2.4941-1.9 2.122-2.3004 3.3446-1.4453 4.375 1.6562 1.9957 0.21462 3.0583-3.0371 2.2422-1.5596-0.39145-4.5533 0.18511-6.9785 1.3359-3.0928 1.4676-4.7568 1.6648-6.1465 0.79688-1.3439-0.83927-3.7382-0.70689-8.1348 0.43359-3.4318 0.89022-7.8908 1.627-9.9062 1.627-3.68 2.3e-5 -10.143 2.1972-10.99 3.7246-0.24945 0.44987 0.52364 1.5365 1.7344 2.4219 2.1354 1.5614 1.6268 4.9902-0.54102 3.6504-0.5863-0.36234-4.4633-0.82193-8.6055-1.0117-7.2331-0.3315-7.5195-0.22606-7.5195 2.3867 0 1.5505 0.71084 2.7109 1.627 2.7109 2.8414 1.5e-5 6.379 3.9371 6.7246 7.4844 0.27167 2.7878-0.11642 3.4739-1.9883 3.4707-1.7752-3e-3 -2.2518-0.71316-2.0977-3.0371 0.17157-2.587-0.55016-3.3439-4.9531-5.0254-3.7301-1.4246-5.5717-1.6194-6.6523-0.72266-1.0698 0.88787-1.8809 0.86532-2.8555-0.10938-0.91345-0.91344-1.375-0.95003-1.375-0.10742 0 0.69041 1.3783 2.1299 3.0371 3.2168 4.3107 2.8245 1.891 4.8783-2.8555 2.4238-2.2846-1.1813-3.9727-3.1746-4.6641-5.5684-0.59497-2.06-1.136-2.9166-1.1934-1.8809-0.0575 1.0356-0.89737 2.5471-1.8809 3.3633-1.041 0.86389-1.4661 2.2555-1.0117 3.3262 0.67242 1.5849 1.1377 3.9197 1.5176 7.3398 0.0532 0.47726 1.51 0.86719 3.2188 0.86719 3.5548 1.5e-5 8.4609 4.065 8.4609 7.0137 0 1.0936 0.8551 2.341 1.916 2.748 1.3585 0.52134 1.5864 1.0894 0.72266 1.9531-1.7018 1.7019-6.1113-0.77841-6.1113-3.4356 0-2.4045-2.1598-4.8086-4.3008-4.8086-0.8324 0-2.3112 1.9991-3.291 4.4473-0.97949 2.4479-3.3563 5.6291-5.2793 7.0508-3.3608 2.4847-3.6409 2.5084-7.4824 0.68554-2.1978-1.043-3.6968-2.4006-3.3262-3 0.89203-1.4434 4.843-1.3943 5.748 0.0723 3.6158 5.8506 7.6476-14.38 4.1211-20.682-0.55147-0.98546-0.42927-2.9059 0.28906-4.4824 1.4429-3.1668-0.22651-4.8507-4.7715-4.8809-1.9134-0.01273-2.9817 0.92237-3.832 3.3613-0.65076 1.867-2.4379 4.2347-3.9785 5.2441-2.4688 1.6176-2.6436 2.1117-1.373 4.373 0.79272 1.4111 2.3571 3.2466 3.4707 4.0859 1.1135 0.83922 2.0254 2.3155 2.0254 3.2539 0 2.8296-3.4278 3.2225-6.1465 0.72266-1.4885-1.3685-5.0351-2.6746-8.5684-3.1445-5.6298-0.74868-6.2295-0.55148-8.7871 2.4219-1.9059 2.2158-3.3489 2.9326-4.7715 2.3867-1.7604-0.67553-1.8257-1.0573-0.47071-2.7109 1.252-1.5277 0.87143-1.4788-1.8438 0.28906-1.8806 1.2244-5.2058 2.8324-7.375 3.5781-3.5287 1.2131-4.0075 1.1253-4.5195-0.83203-0.52777-2.0185-0.83578-2.0374-3.8691-0.46875-1.8084 0.93507-4.4059 1.6992-5.7852 1.6992-1.3793 2e-5 -4.2966 1.5617-6.4707 3.4707-4.4168 3.878-6.3912 4.2706-8.4961 1.7344-1.1793-1.421-0.9804-1.8751 1.084-2.6387 2.3438-0.86701 2.2547-1.0593-1.5898-2.8926-4.4839-2.1383-4.7605-1.8062-2.8574 3.6523 1.5464 4.436-0.28384 7.7243-3.3613 6.002-2.0339-1.1382-8.8285 2.8125-7.7734 4.5195 0.31866 0.51557-0.14712 1.5289-1.0488 2.2773-1.2725 1.0561-2.4487 0.95566-5.207-0.4707-3.8447-1.9882-4.8024-1.2334-1.5176 1.1934 1.514 1.1186 1.7046 1.8585 0.72266 2.8555-2.0275 2.0585-8.3288-1.6976-9.291-5.5312-0.43188-1.721-1.8544-4.0141-3.1816-5.0977-2.1478-1.7538-2.2151-2.0449-0.50586-2.7109 1.0562-0.41148 3.5242 0.0835 5.459 1.084 6.166 3.1885 16.342 1.4756 16.342-2.748-1e-4 -1.8534-13.356-9.3281-16.668-9.3281-0.86462 2.3e-5 -2.1993-0.80654-3-1.7715-1.1033-1.3294-2.7894-1.5625-6.9414-1.0117-6.0894 0.8078-8.9719-1.099-4.4121-2.9277 2.6465-1.0614 2.6436-1.0857-0.43359-1.1582-1.7125-0.04035-3.4388-0.59216-3.832-1.2285-0.39337-0.63633-1.2426-1.1582-1.8789-1.1582-0.63635 0-0.76886 0.65186-0.29102 1.4473 0.68945 1.1476 0.52442 1.1606-0.86718 0.03516-1.2388-1.0021-2.1309-1.0487-3-0.17969-0.86896 0.86899-1.4705 0.79794-2.0977-0.2168-0.60974-0.98652-0.42487-1.1486 0.61523-0.50586 1.0033 0.62013 1.2337 0.48859 0.68555-0.39844-0.56574-0.91542-1.4977-0.98216-2.9277-0.2168-1.1503 0.61566-2.4962 0.74389-3 0.28906-0.50378-0.45486-0.54297-0.21334-0.10938 0.54297 1.2159 2.1211-2.7447 3.7811-6.0371 2.5293-2.5993-0.98827-2.7139-0.91276-1.2656 0.97656 0.8692 1.1338 1.1349 1.6651 0.57812 1.1934-0.55688-0.47172-1.7124-0.27513-2.5664 0.43359-0.85388 0.70872-1.5547 0.90758-1.5547 0.43359 0-0.47398-0.75684-0.24516-1.6641 0.50781-0.90729 0.75297-2.339 1.2704-3.1816 1.1562-3.5571-0.4818-4.7241 0.04434-3.4707 1.5547 1.5944 1.9211-0.17086 4.8675-2.9277 4.8809-1.2979 6e-3 -2.0596 0.86578-2.0606 2.3144-7.9e-4 1.2727-0.33458 2.0526-0.75976 1.7344-0.42523-0.31815-2.0498 0.58781-3.5801 2.0254-1.5302 1.4376-3.1912 2.2175-3.7227 1.7344-0.53143-0.48307-0.66285 0.0557-0.2539 1.1934 0.43366 1.2067 0.18188 2.2469-0.6504 2.4941-3.0578 0.90811-4.4809 1.3959-4.957 1.8184 0.0443 0.15669 0.1182 0.30252 0.15235 0.46289 0.0208 0.11073 7e-3 0.21767 0.0254 0.32813 0.14348 0.11583 0.21711 0.21684 0.4414 0.35547 0.91046 0.56264 1.718 2.3911 1.8066 4.0508 0.18372 3.4385-2.7664 5.6122-5.3516 3.9766-2.2562-1.4274-3.4598-1.352-3.1094 0.17969 0.15906 0.69554-0.69916 1.8673-1.916 2.6035-5.7688 3.4903-6.8122 5.6073-4.916 10.016 0.41058 0.95448 0.62421 3.298 0.46875 5.207-0.24158 2.9684 0.16532 3.5323 2.748 3.832 1.9418 0.22537 4.2817-0.74175 6.5801-2.6758l3.5801-3 1.627 3.2539c0.90112 1.7797 2.3044 5.3004 3.1094 7.8457 2.073 6.5551 2.2283 6.6983 5.2793 4.6992 1.5095-0.98904 3.8729-1.8086 5.2422-1.8086 1.9622-1e-5 2.3462-0.5002 1.8438-2.4219-0.86841-3.3204 1.0469-7.9902 3.2891-7.9902 1.0078 0 1.5243-0.49167 1.1582-1.084-0.36621-0.59236-0.0814-1.4144 0.61328-1.8438 0.82855-0.51213 0.43343-1.6712-1.1562-3.3633-2.0209-2.1512-2.2548-3.3316-1.4824-7.0488 0.86566-4.1662 2.8486-6.1787 9.2188-9.3281 0.79541-0.39324 1.4473-1.7959 1.4473-3.1094-6e-5 -5.3822 7.1975-8.7549 10.412-4.8809 1.6164 1.9476 1.2543 2.5948-5.8203 9.9785-3.572 3.728-4.0436 4.8638-3.6524 8.9668 0.6012 6.3041 2.06 7.2639 7.7363 5.1699 5.5138-2.0342 11.778-2.1512 14.064-0.2539 3.3012 2.7397 0.34519 3.6785-13.775 4.375-2.1849 0.10777-2.8356 4.098-0.86719 5.3144 1.5787 0.97574 1.4563 4.8803-0.18164 5.8926-0.73291 0.45291-2.0174-0.11758-2.8555-1.2637-2.2233-3.0406-5.4033-0.21631-4.4824 3.9766 0.54047 2.4601-0.0357 3.5734-2.9297 5.7129-2.8698 2.1218-3.8912 2.3497-5.2422 1.2285-1.3488-1.1195-2.8498-0.77984-7.5566 1.6621-5.6014 2.9062-5.9182 2.9449-6.4707 0.83203-0.50104-1.9159-1.0251-2.0777-3.9766-1.0488-2.786 0.97119-3.8346 0.83262-5.7129-0.86719-1.352-1.2236-2.0141-2.8422-1.5918-3.9043 1.7012-4.2795 1.5815-6.0004-0.39649-5.6035-1.9998 0.40128-2.2886 2.4959-1.3027 9.5801 0.44904 3.227 0.21261 3.4726-3.2891 3.5801-2.0717 0.0636-4.7329 0.97207-5.8945 2.0234-1.1617 1.0513-2.4298 1.5838-2.8555 1.1582-0.4256-0.42561-0.79493 0.23095-0.79493 1.4824 0 2.8251-2.114 5.0606-4.8086 5.0605-1.123-1e-5 -2.6134 1.0484-3.291 2.3145-1.393 2.6028-7.6386 6.2112-9.1465 5.2793-0.54526-0.33699-1.2894 0.4435-1.627 1.7344-0.48904 1.8702-1.1986 2.1895-3.5801 1.5918-3.8721-0.97185-4.0221 1.4669-0.17969 2.9277 2.9964 1.1392 6.0941 6.8615 6.2539 11.57 0.12982 3.828-2.9588 7.079-6.0371 6.3633-3.787-0.88042-13.805-1.4969-15.258-0.93946-0.82513 0.31665-1.0977 2.555-0.75977 6.0723 0.29373 3.0577-0.0356 6.5991-0.72265 7.8828-1.7654 3.2987 0.73648 8.4118 4.1211 8.4238 1.4 5e-3 3.041 0.89597 3.6523 1.9883 0.91956 1.6432 1.5579 1.7405 3.7969 0.65039 1.4884-0.72467 4.0127-1.576 5.6035-1.916 4.3061-0.92041 7.2526-3.4917 7.5918-6.6152 0.16583-1.5267 0.34543-3.1509 0.39844-3.6152 0.0531-0.46431 2.191-1.9202 4.7363-3.2188 3.4225-1.7461 4.627-3.0808 4.627-5.0977 0-3.6734 2.7768-5.7254 6.6543-4.9531 1.8666 0.37174 4.1032-0.0453 5.4219-1.0117 3.3326-2.4426 6.0923-2.0407 8.4238 1.3008 3.1392 4.4993 9.4151 10.194 11.643 10.521 3.0115 0.44199 6.1955 4.9701 5.3516 7.6289-0.51416 1.62-0.2998 2.0543 0.68555 1.4453 0.82812-0.51183 1.1383-2.156 0.75976-4.0488-0.75653-3.7828 0.15978-5.1145 2.3144-3.3262 1.0413 0.86436 1.5547 0.88665 1.5547 0.0723 0-0.6696-2.3912-2.4092-5.3144-3.8691-3.3843-1.6902-6.1099-4.1273-7.5215-6.7246-1.2194-2.2436-2.8724-4.9726-3.6504-6.0742-1.1518-1.6309-1.0571-2.3786 0.54102-3.9766 1.829-1.8291 2.0212-1.8398 2.7129-0.0371 0.4082 1.0638 1.162 1.684 1.6621 1.375 0.5-0.30906 1.7452 0.71161 2.748 2.2422 1.0029 1.5306 4.1257 4.4591 6.9785 6.5078 3.507 2.5185 5.4731 4.8582 6.002 7.2656 0.9118 4.1515 6.1532 11.172 8.3516 11.172 0.83289 1e-5 1.1945-0.54471 0.79492-1.1914-0.39972-0.64671-1.2977-0.82529-1.9883-0.39844-0.76758 0.47441-0.92426 0.23557-0.39844-0.61523 0.65527-1.0603 1.2623-1.0561 2.4961-0.0352 1.8579 1.542 1.1174 3.3984-1.3379 3.3984-0.91693-2e-5 -1.6641 0.77991-1.6641 1.7344 0 2.1945 0.56172 2.1647 4.0859-0.14453 3.5024-2.2949 3.5816-3.5388 0.36133-6.1465-2.2814-1.8473-2.1516-5.5754 0.14453-4.1562 0.52557 0.32488 1.266-0.18051 1.627-1.1211 0.46612-1.2146 1.9205-1.5717 5.0977-1.2656 3.4903 0.3362 4.7859-0.0683 5.8945-1.8438 0.93756-1.5012 1.0682-2.756 0.32422-3.6523-1.6519-1.9904 3.6613-12.472 7.918-15.619 2.8387-2.0987 3.9232-2.3359 5.8574-1.3008 1.7552 0.93936 2.0897 1.668 1.1934 2.748-0.90277 1.0878-0.53496 1.8663 1.5176 2.9648 3.5477 1.8986 6.3345 0.45805 3.3633-1.7363-1.3701-1.0119-1.6965-1.8988-0.93946-2.6035 1.6558-1.5414 8.7769-3.7844 9.8692-3.1094 1.2365 0.76429 0.76525 3.3974-0.97657 5.4961-1.1812 1.4233-0.457 2.4513 4.3398 6.1094 6.6696 5.0863 7.7364 7.0502 5.3144 9.7266-2.2074 2.4391-8.9378 2.2912-14.752-0.32618-5.1893-2.336-7.508-2.3931-11.314-0.21679-1.5908 0.90938-3.988 1.6766-5.3516 1.6992-1.3637 0.0226-2.8039 0.85941-3.1816 1.8438-0.37769 0.98433-1.3288 1.6971-2.1328 1.5918-3.4187-0.44754-4.0805 0.21617-3.7246 3.832 0.20355 2.068 0.458 3.8897 0.57812 4.0488 0.12018 0.15906 0.28174 0.7546 0.36133 1.3379 0.16925 1.2415 1.7515 2.9662 2.8574 3.1094 0.42426 0.055 1.6991 0.50691 2.8555 1.0137 1.191 0.52193 2.6263 0.41075 3.291-0.25391 0.79321-0.79321 2.4314-0.78612 5.0976 0.0352 2.8469 0.8737 4.7804 0.82312 6.9043-0.14453 4.1832-1.906 4.4853-0.1075 1.7715 10.232-2.7205 10.365-5.4665 13.386-10.014 11.027-2.1631-1.1222-3.7574-1.2007-6.0742-0.32617-2.5426 0.95973-4.8118 0.58758-11.787-1.9512-12.766-4.6459-12.67-4.664-16.16 2.8203-1.4462 3.1012-4.3844 2.5441-11.75-2.2422-3.9788-2.5853-8.1448-4.6992-9.291-4.6992-1.1461-2e-5 -3.16-1.0643-4.4473-2.3516-1.8481-1.8481-2.0776-2.8043-1.1211-4.5918 1.4671-2.7414 0.39657-7.7087-1.8438-8.5684-0.89416-0.34314-4.534-0.081-8.0996 0.57812-3.5657 0.65916-7.2034 0.92325-8.0976 0.58008-0.89432-0.34317-5.9981 0.92824-11.354 2.8184-10.269 3.6246-13.973 4.1795-15.148 2.2793-1.225-1.982-2.3301-1.284-3.6875 2.3125-0.71954 1.9063-2.9198 4.3799-4.8809 5.4961-3.2544 1.8523-4.436 4.7137-3.6524 8.8574 0.474 2.506-2.8296 7.872-5.7852 9.4004-1.7663 0.91339-4.8147 4.4905-6.7969 7.9551-1.9823 3.4646-4.1965 6.4847-4.916 6.7246-2.0139 0.67126-2.5264 4.061-2.2422 14.967 0.1752 6.7206-0.31043 11.381-1.4473 14.102-1.5662 3.7482-1.5045 4.1843 0.54297 6.0371 1.2192 1.1034 2.2051 2.5504 2.2051 3.1816 0 0.63123 1.8628 3.3906 4.1211 6.1465 2.2583 2.7559 3.9519 5.806 3.7617 6.7617-0.55338 2.7805 3.6275 8.0636 9.1094 11.531 4.7501 3.0052 5.4162 3.1393 10.414 1.8809 2.9318-0.73825 6.6895-1.0466 8.3516-0.6875 1.7281 0.37338 5.7338-0.32881 9.3633-1.6621 3.4908-1.2824 7.5262-2.3496 8.9668-2.3496 2.5543 0 6.5054 3.024 7.377 5.6387 0.30102 0.90305 1.5752 0.98407 4.1211 0.2539 5.4252-1.5559 7.2403 0.99364 6.5078 9.1465-1.0254 11.414-0.67471 14.001 2.3867 17.211 2.6875 2.8178 5.2641 7.8551 4.916 9.5801-0.0828 0.41043 0.71111 1.7122 1.7715 2.8926 1.0605 1.1804 1.951 3.4346 1.9531 5.0254 2e-3 1.5908 0.35205 4.3268 0.79492 6.0742 0.51495 2.0319 0.13939 4.5822-1.0488 7.0859-1.0217 2.1532-2.4465 6.5048-3.1816 9.6894-1.182 5.1208-1.0662 6.3815 1.0137 10.848 2.7247 5.8514 3.632 9.0562 4.4453 15.473 1.025 8.0855 2.8795 13.642 7.5215 22.598 4.9531 9.5551 5.3718 11.291 2.8555 12.256-2.7656 1.0613 3.875 6.5422 6.834 5.6406 1.2968-0.3952 5.8654-1.1397 10.16-1.6641 8.432-1.0298 11.907-2.7414 15.836-7.8086 5.983-7.7157 8.4863-12.678 8.7852-17.428 0.26288-4.177 0.93588-5.4021 4.1934-7.6289 3.5142-2.4024 3.8389-3.1181 3.543-7.6289-0.17969-2.7386-0.83201-5.94-1.4453-7.0859-0.8764-1.6376-0.32682-2.8548 2.4941-5.6758 1.9741-1.974 5.0838-4.3368 6.9062-5.2793 2.8874-1.4932 5.7787-5.0404 6.3633-7.7734 0.10218-0.47723 0.29987-1.2572 0.4336-1.7344 0.8219-2.9317-0.39772-13.839-1.7715-15.801-0.90247-1.2885-1.6641-3.8313-1.6641-5.6406 0-1.8092-0.44742-4.1704-1.0117-5.2422-2.0265-3.8481 7.2875-19.547 14.896-25.09 2.2272-1.6225 5.5422-4.896 7.3398-7.2676 4.3413-5.728 11.202-19.893 11.641-24.008 0.20013-1.8777 1.2782-3.6832 2.5312-4.2305 2.6718-1.167 0.0824-0.77108-11.1 1.7363-7.1086 1.5941-7.6807 1.5674-10.701-0.57812-1.7575-1.2484-2.9395-2.7102-2.6035-3.2539 0.33606-0.5437 0.0572-1.3207-0.61524-1.7363-0.67246-0.41562-2.4993-2.8362-4.0859-5.3496-1.5867-2.5135-3.9188-5.583-5.1699-6.834-1.2509-1.251-2.2774-3.0445-2.2774-3.9766s-1.0418-2.2486-2.3144-2.9297c-1.8146-0.97113-2.3144-2.422-2.3144-6.7246 0-3.0177-0.69522-6.5183-1.5547-7.7734-0.85962-1.2552-1.8842-3.5792-2.2774-5.1699-0.393-1.5908-2.5615-5.6779-4.8086-9.0742-2.2472-3.3963-4.0859-6.8768-4.0859-7.7383 0-2.7816 2.3099-3.0856 3.291-0.43359 0.89673 2.4243 1.0126 2.4361 1.8086 0.36133 0.79437-2.0699 0.97065-2.0232 3.1074 0.6875 2.8597 3.6278 5.6777 10.025 5.6777 12.871-6e-5 1.195 0.76701 2.1699 1.6992 2.1699 2.1948-3e-5 4.0859 3.6062 4.0859 7.7734 0 3.4748 1.9202 6.9319 6.7598 12.184 1.9355 2.1004 3.0277 4.6718 3.1465 7.5195 0.39973 9.5776 2.3514 12.213 7.1934 9.6543 1.105-0.5838 5.8932-2.9666 10.666-5.2793 4.7725-2.3126 10.335-5.1504 12.365-6.291 4.2314-2.3771 12.46-9.3427 11.1-9.4004-0.49951-0.0212 0.25939-0.99547 1.6641-2.168 1.4048-1.1725 2.237-2.4642 1.8438-2.8574-0.39319-0.39325 0.18607-1.733 1.3008-2.9648 1.9579-2.1634 1.8773-2.3321-2.6738-5.2051-2.7473-1.7343-5.0292-4.21-5.4609-5.9297l-0.75781-2.9297-1.7363 2.4961c-1.9556 2.7921-9.0348 6.1505-10.738 5.0977-0.60815-0.37595-1.1211-1.3661-1.1211-2.2051 0-0.83902-0.77992-2.1726-1.7344-2.9648-0.95453-0.79214-1.7247-2.2906-1.7363-3.3262-0.0115-1.0357-1.6131-4.2025-3.543-7.0508-3.1295-4.619-3.3104-5.3397-1.6621-6.5449 2.6355-1.9272 6.1891-0.64235 8.0254 2.8926 2.723 5.2419 8.3355 8.5725 12.98 7.7012 3.4009-0.63803 4.1607-0.40528 4.6641 1.5195 0.76965 2.9437 4.5514 3.9757 15.871 4.2305 8.3374 0.18768 9.3696 0.4481 11.57 3.1816 1.3287 1.6507 3.8477 3.3606 5.6035 3.7949 3.8953 0.96329 5.1212 2.6281 2.6406 3.5801-1.4217 0.54553-1.533 1.0768-0.50586 2.3145 1.9371 2.3343 4.1518 1.9555 4.8809-0.83203 1.1466-4.3844 3.1438-1.0404 3.0371 5.0976-0.0574 3.2982 0.12703 6.7818 0.39649 7.7363 0.26929 0.95447 1.1405 4.2343 1.9531 7.2676 0.81274 3.0334 1.936 5.7645 2.4941 6.1094 0.55798 0.34488 1.0117 1.5683 1.0117 2.7129s1.8065 5.5623 4.0137 9.7969l4.0137 7.7012 1.8066-2.7832c2.6556-4.053 4.0508-9.7552 4.0508-16.596 0-5.0822 0.41157-6.2426 2.6016-7.4102 3.4208-1.8239 16.421-14.907 17.391-17.5 0.50494-1.3491 2.0156-2.0254 4.4844-2.0254 2.038 0 4.617-0.82019 5.748-1.8438 1.917-1.7348 2.2053-1.5968 4.375 2.0254 1.28 2.1371 3.4559 5.142 4.8086 6.6894 1.8824 2.1533 2.3648 3.9849 2.0606 7.8086-0.32654 4.1058-0.0439 4.9902 1.5898 4.9902 1.0933-3e-5 2.965-1.0662 4.1953-2.3867 2.654-2.8487 3.0974-2.323 4.1934 5.2773 0.45886 3.1816 1.3213 6.3648 1.916 7.0879 0.59454 0.72305 0.84424 4.7257 0.54297 8.8926-0.45477 6.2912-0.1697 8.073 1.6992 10.449 1.238 1.5737 2.2422 3.6314 2.2422 4.5918 0 5.3059 7.6931 16.654 9.834 14.498 0.20917-0.21066-0.24136-3.1891-1.0137-6.6152-0.94006-4.1694-2.4096-7.0393-4.4102-8.6777-1.6441-1.3462-3.3839-3.7632-3.8691-5.3516-0.48511-1.5884-1.6132-3.4146-2.5312-4.0859-1.4536-1.0628-1.4746-1.9906 0-6.9766 1.5638-5.2879 1.9537-5.6918 5.0254-5.3867 5.0495 0.50146 6.2188 1.1353 6.2188 3.3984 0 1.1396 1.0418 2.7482 2.3144 3.543 1.3401 0.83694 2.3145 2.6857 2.3145 4.4102 0 2.9287 0.10128 2.9066 5.8203-2.0234l5.8203-5.0273-0.39648-6.543c-0.29443-5.0079-1.1981-7.7019-3.7969-11.354-1.8721-2.6302-4.0858-5.7829-4.9531-7.0137-1.4152-2.0081-1.1775-2.6898 2.6035-6.4707 3.9835-3.9836 4.3425-4.1081 6.3633-2.2793 1.8972 1.7169 2.2123 1.7291 2.8203 0.14453 0.37683-0.98196 1.6549-1.7715 2.8203-1.7715 1.1652 0 2.6166-0.51881 3.2539-1.1562 0.63734-0.63736 3.3816-1.4672 6.0742-1.8438 3.8664-0.54077 5.9538-1.8198 10.014-6.0742 2.8274-2.963 5.1551-6.0684 5.1699-6.9062 0.0147-0.83786 1.3389-3.2288 2.9297-5.3144 3.4198-4.4837 3.6003-5.9542 0.86719-7.0137-1.8869-0.73146-1.8761-0.88153 0.2168-2.4219 1.8787-1.3826 1.941-1.6641 0.36133-1.6641-2.8768 0-3.7158-2.384-1.084-3.0723 2.2134-0.5788 2.153-0.84677-1.1562-5.75-3.346-4.9579-3.3821-5.2548-1.5195-8.0977 1.0619-1.6206 3.5836-3.6941 5.6035-4.6289l3.6523-1.6992-5.0976 0.54297c-5.3493 0.57631-10.521-1.6536-10.521-4.5195 0-2.4784 10.761-9.7838 12.4-8.4238 1.0941 0.90799 1.0024 1.785-0.43359 3.9766-1.0172 1.5523-1.5814 3.1179-1.2285 3.4707 0.35272 0.3528 1.2428-0.44433 1.9531-1.7715 1.4047-2.6249 4.6934-3.1278 8.2422-1.2285 1.759 0.94139 1.9813 1.6846 1.084 3.3613-0.91364 1.7072-0.60013 2.5294 1.5547 3.9414 2.1877 1.4334 2.6688 2.6431 2.459 6.3633-0.25684 4.5525-0.20095 4.5902 2.7852 3.3262 4.9767-2.1066 5.0684-2.5848 2.0234-10.123l-2.9277-7.2676 2.7109-3c1.5012-1.655 4.563-5.0533 6.7969-7.5566 3.3146-3.7139 4.3836-4.2785 5.75-3.1445 2.4053 1.9962 4.7357 0.68784 9.7246-5.3867 9.4465-11.502 13.09-20.247 13.305-31.816 0.0747-4.0237-2.927-7.4708-5.0977-5.8223-1.8385 1.3962-6.1465 1.3795-6.1465-0.0352 0-0.56342-1.204-1.4809-2.6758-2.0254-2.4408-0.90288-2.5319-1.1908-1.0117-3.3613 0.91681-1.3088 5.9715-6.0252 11.209-10.449 9.0972-7.6839 14.051-9.8107 16.666-7.1953 1.1321 1.1321 9.0357 0.38951 10.738-1.0117 0.90753-0.74681 2.2785-0.64097 4.0488 0.32422 3.4402 1.8756 11.68 2.2251 10.195 0.43555-1.6376-1.9731 9.0308-10.47 13.523-10.775 3.7285-0.25326 6.0263 1.3414 3.8672 2.6758-0.64673 0.39969-1.1914 1.5386-1.1914 2.5664 0 1.5342 0.47556 1.4519 2.6738-0.61328 1.4728-1.3836 3.2964-2.5312 4.0508-2.5312 0.7544 2e-5 1.373-0.71523 1.373-1.5918 0-2.1044 3.0462-4.598 4.5195-3.6875 1.6112 0.99578-2.4521 8.0546-4.916 8.5332-1.0692 0.20764-4.6186 3.2011-7.8828 6.6523-3.264 3.4512-6.5426 6.291-7.2676 6.291-0.72492 1e-5 -2.1974 1.5152-3.2891 3.3633-2.3007 3.8948-2.4688 12.333-0.39844 19.197l1.375 4.627 2.7832-3.7598c1.5302-2.0681 3.5027-3.7598 4.375-3.7598 0.8725-2e-5 1.2432-0.52905 0.83203-1.1934-1.1846-1.9167 2.8337-7.184 4.8809-6.3984 1.2726 0.4883 1.5871 0.15319 1.084-1.1582-0.86304-2.2493 1.3056-6.6119 2.8203-5.6758 0.60437 0.37352 1.084 0.16563 1.084-0.4707 0-0.63632-0.50967-1.4793-1.1562-1.8789-0.64679-0.39966-0.88916-1.2606-0.50586-1.8808 0.38336-0.62022 0.15911-1.7652-0.50586-2.5664-1.624-1.9569 2.7559-9.3318 5.0254-8.4609 0.8819 0.33844 2.2323-0.1218 3-1.0469 0.76758-0.92506 1.9652-1.5944 2.6758-1.4824 0.71045 0.11209 2.7881-0.2203 4.5918-0.7246 2.381-0.66573 3.7824-0.41096 5.0976 0.90429 1.6442 1.6441 2.1504 1.5469 5.459-0.97656 6.1498-4.6907 16.048-8.5668 18.439-7.2305 1.2615 0.70602 2.498 0.71646 3.1445 0.0723 1.3724-1.3724-2.0778-8.4238-4.1211-8.4238-2.0938 1e-5 -4.5194-3.0699-3.1094-3.9414 0.61371-0.37936 2.4472-0.18941 4.086 0.4336 3.9764 1.5119 6.4707 0.37074 6.4707-2.9277 0-3.566 2.2993-4.8689 3.1093-1.7715 0.7256 2.7746 0.9038 2.8293 3.7598 1.3008 1.5778-0.84441 2.6043-0.55864 4.1582 1.1582 1.1332 1.2522 2.6928 2.2774 3.4707 2.2774 0.778 1e-5 2.0652 0.77991 2.8574 1.7344 1.6322 1.9668 4.0197 2.3916 2.8555 0.50781-0.8667-1.4024 2.6276-5.7129 4.6289-5.7129 0.7284 1e-5 1.9276-0.62886 2.6738-1.375 1.0375-1.0375 0.2503-1.8537-3.3613-3.4707-5.951-2.6644-6.3837-2.6355-7.1582 0.32617-0.7455 2.8511-3.1094 1.8888-3.1094-1.2656 0-5.1714-15.149-12.414-28.129-13.451-5.2118-0.41621-10.428-1.2376-11.605-1.8438-1.9128-0.98539-2.0551-0.74492-1.375 2.3516 0.9967 4.5379-0.66397 5.3829-5.3867 2.748-2.838-1.5833-5.9366-2.0926-11.93-1.9531-9.6024 0.22361-13.307-0.86585-13.307-3.9043 0-3.1678-2.5339-3.7513-12.871-2.9648-7.5325 0.57309-9.2035 0.406-9.7617-1.0488-0.37158-0.96836-1.3677-1.5148-2.2051-1.1934-1.5123 0.5803-3.4368-1.4297-3.4707-3.6152-0.0336-2.1573-4.0984-1.9117-7.9531 0.4707-4.2809 2.6458-6.3963 1.9908-3.5801-1.1211 1.6988-1.8773 1.3892-2.0168-4.916-2.0254-3.7-5e-3 -7.4488-0.18075-8.3535-0.39844-1.1307-0.27208-1.6721 0.68813-1.7344 3.0742-0.072 2.7571-0.61872 3.4707-2.6035 3.4707-1.3742 1.5e-5 -2.8331 0.3436-3.2539 0.75977-0.42053 0.41616-2.0941 0.051-3.7246-0.79492-2.2932-1.1897-3.4621-1.225-5.1328-0.18164-1.6487 1.0296-2.699 1.0096-4.375-0.03711-1.8475-1.1539-2.2894-0.98401-2.7832 0.9043-1.11 4.245-4.0135 3.8173-9.9082-1.4102-5.8022-5.1455-6.369-6.7598-2.3848-6.7598 1.8915 0 2.0424-0.33136 0.93945-2.0977-1.0068-1.6122-2.6941-2.0877-7.2305-2.0254-3.4169 0.04691-6.4356 0.71788-7.123 1.5918-1.5951 2.0279-13.976 1.4338-13.559-0.65039 0.37079-1.854-10.277-2.0157-12.111-0.18164-0.93689 0.9369-1.6772 0.54921-2.7832-1.4453-0.83173-1.5-1.5322-3.0465-1.5547-3.4707-0.0884-1.6628-1.3635-1.9259-5.2441-1.0137-3.3066 0.7772-3.5228 0.99409-1.1562 1.1211 2.8345 0.15212 8.6486 3.543 6.0742 3.543-0.72046 1.5e-5 -1.6321-0.51988-2.0254-1.1562-0.39337-0.63631-2.0848-1.1562-3.7598-1.1562-2.9159 8e-6 -2.9454 0.0795-0.79492 1.6621 2.2174 1.6319 2.2154 1.6506-0.0723 2.3867-1.2726 0.41006-3.0943 1.1504-4.0488 1.627-2.4844 1.2403-8.6777 0.90042-8.6777-0.4707 0-0.6363 1.72-2.0175 3.832-3.0723 2.1121-1.0547 4.7728-2.7464 5.8926-3.7598 1.1198-1.0133 3.045-1.8584 4.2676-1.8809 3.3918-0.06255 8.0105-2.9234 6.3633-3.9414-1.0403-0.64298-0.99682-1.2928 0.14453-2.6758 1.2574-1.5238 1.1985-1.7067-0.2539-1.1914-0.95453 0.3386-2.5867-0.12053-3.6152-1.0137-1.4861-1.2905-2.9661-1.3892-7.2305-0.43359-3.3726 0.7558-6.1063 0.82244-7.375 0.14453-1.1104-0.59327-3.0671-1.4336-4.3398-1.8438-2.192-0.70625-2.1973-0.80958-0.25195-2.2422 1.8895-1.3914 1.7956-1.5914-1.1582-2.2051-0.62225-0.12931-1.1565-0.19105-1.6621-0.17969zm-624.44 1.7031c-0.32964 0.0077-0.87134 0.29325-1.5527 0.97461-0.75298 0.75297-2.6196 1.373-4.1582 1.373-1.5386 1.1e-5 -4.6745 1.6646-6.9785 3.6875-3.362 2.9518-3.7048 3.5454-1.627 3.002 1.4239-0.37236 2.926-0.14179 3.3262 0.50586 0.40028 0.64764 1.7726-0.4619 3.0371-2.459 1.7436-2.7538 2.6609-3.3295 3.7969-2.3867 1.1198 0.92937 1.9708 0.56207 3.3262-1.373 1.3664-1.9509 1.5527-3.3368 0.83008-3.3242zm100.62 0.17774c-0.40192 0.01656-0.74722 0.13396-0.93945 0.32617-0.38443 0.38446 0.29797 0.62836 1.5176 0.57812 1.3478-0.05551 1.6104-0.31818 0.6875-0.6875-0.4176-0.16711-0.86373-0.23335-1.2656-0.2168zm-92.305 1.998c0.0538 0.10258 0.11341 0.20114 0.18164 0.29492-0.0292-0.07578 5e-3 -0.15909-0.0391-0.23047-0.0314-0.05081-0.1062-0.01996-0.14257-0.06445zm49.137 1.4727c-0.77931 0.0033-0.94159 0.34346-0.68554 1.1211 0.30266 0.91925 2.7225 1.8749 5.6406 2.2051 4.3126 0.48815 5.2177 1.032 5.7109 3.4727 0.56392 2.791 1.6514 3.3314 7.7012 3.832 1.3789 0.1141 2.9406 0.6573 3.4707 1.1934 0.53003 0.5361 4.622 0.68184 9.0762 0.32422 4.4543-0.35764 9.8242-0.66814 11.93-0.6875 2.3579-0.02169 3.5338-0.48472 3.0742-1.2285-0.41052-0.66418-0.0553-2.0959 0.79492-3.1816 1.3362-1.7063 1.3186-1.8122-0.18164-0.65039-0.95447 0.73922-3.0362 1.3204-4.627 1.3008-1.5908-0.01967-7.3193 0.23788-12.727 0.54297-10.089 0.56916-15.039-0.85798-15.039-4.3379 0-0.83202-1.9022-1.7567-4.3398-2.0977-2.3862-0.33375-5.8312-0.98778-7.6641-1.4473-0.96585-0.2421-1.6652-0.36329-2.1328-0.36133zm466.58 0.61523c-1.3626-0.01694-3.8626 0.5259-6.4356 1.6641-3.3144 1.4661-6.88 2.238-9.0742 1.916-2.0842-0.30587-5.7447 0.3485-8.6406 1.5898-2.764 1.1848-6.6571 2.1699-8.6406 2.1699-2.808 2.3e-5 -3.2878 0.29036-2.2051 1.373 1.0827 1.0827 0.59517 2.1385-2.1699 4.6641-2.3668 2.1617-3.0413 3.4043-2.0254 3.7246 4.0094 1.2639 4.7063 1.7822 1.8809 1.4102-3.6879-0.4856-4.387-0.06823-7.1953 4.3379-1.7613 2.7634-1.8019 3.2422-0.32617 2.6758 1.9296-0.74044 4.8544 1.9136 3.8691 3.5078-0.32819 0.53102 1.8308 1.0201 4.8086 1.084 2.9777 0.06396 4.642-0.14856 3.6875-0.4707-2.3142-0.78099-4.627-3.7958-4.627-6.0371-6e-5 -2.4327 9.0215-12.389 13.16-14.533 1.8225-0.94447 4.2326-1.7363 5.3496-1.7363 2.2964 2.3e-5 15.301-4.0291 18.115-5.6035 2.0455-1.1447 1.8312-1.7194 0.46875-1.7363zm-502.08 0.50586c-0.63136 0.07035-1.048 1.1007-0.90234 3.0742 0.18658 2.5282-0.33731 3.2422-2.459 3.543-1.4685 0.20816-3.7982-0.34254-5.207-1.2656-1.4088-0.9231-4.6673-2.061-7.2305-2.4941-4.4316-0.74873-4.6641-0.64197-4.6641 2.168 0 2.8621 2.181 4.0628 3.5078 1.916 0.81946-1.3259 6.3487 0.0653 6.4707 1.6289 0.0497 0.63634-1.0971 1.5022-2.5664 1.916-2.3037 0.64882-2.1658 0.76774 1.0117 0.86719 2.0266 0.06343 5.1501-0.50029 6.9414-1.2305 1.7913-0.73013 5.317-1.6399 7.8106-2.0234 2.4935-0.38343 4.7338-1.3304 4.9883-2.0977 0.29205-0.88046-0.44616-1.2013-1.9883-0.9043-1.766 0.34008-2.7267-0.33534-3.5059-2.3848-0.72577-1.9089-1.5756-2.7833-2.207-2.7129zm22.525 0.2168c-0.70854 0.02377-1.4112 0.17922-2.0606 0.4707-1.9197 0.8616-1.859 1.1848 0.86719 4.1211 3.8334 4.1289 7.4844 4.2494 7.4844 0.25391 0-2.7356-3.2206-4.9487-6.291-4.8457zm707.63 0.30274c0.042 0.01196 0.0721 0.0275 0.11523 0.03516-0.0378-0.01394-0.0772-0.02179-0.11523-0.03516zm-147.64 0.66016c6e-3 0.0096 0.0188 0.01018 0.0254 0.01953 0.0935 0.02185 0.22463 0.05228 0.16797 0.04102-0.0664-0.0132-0.12956-0.03803-0.19336-0.06055zm1.8535 0.21484c-0.16685 0.0735-0.25268 0.14063-0.45508 0.21875 0.11448-0.03274 0.23591 0.0068 0.3418-0.05859 0.0604-0.03735 0.0617-0.1149 0.11328-0.16016zm-562.43 0.23242c0.61778-0.15233 1.523 0.30651 2.1699 1.0859 0.79495 0.95784 0.89186 1.8818 0.25196 2.2773-0.59514 0.3678-1.6826-0.04863-2.4219-0.93945-0.79495-0.95785-0.89381-1.919-0.25391-2.3145 0.0744-0.04598 0.16567-0.08763 0.25391-0.10937zm561.57 0.05664c-0.0907 0.0072-0.18114 0.01514-0.27343 0.0059 0.0925 0.02468 0.17713-0.0096 0.27343-0.0059zm117.2 0.88477c-0.14514 0.01569-0.24848 0.06411-0.36133 0.10742-1.6856 0.64681-2.2815 4.3357-0.90429 5.7129 1.1527 1.1527 4.7826 0.9103 5.5684-0.36133 0.44031-0.71236 1.7415-0.71236 3.6152 0 3.9625 1.5066 4.4617 1.3996 2.8203-0.57812-0.76904-0.92661-1.0608-2.2284-0.65039-2.8926 0.41046-0.66418 0.23791-1.1934-0.39844-1.1934-0.63629 1.9e-5 -1.5013 0.55756-1.916 1.2285-0.49847 0.80658-1.7118 0.55973-3.6152-0.6875-1.3854-0.90774-3.1422-1.4457-4.1582-1.3359zm14.535 0.79492c-2.505 1.9e-5 -2.736 0.26856-1.5195 1.7344 1.652 1.9906 1.5311 1.9737 3.9414 1.0488 2.615-1.0035 1.0705-2.7832-2.4219-2.7832zm-7.0234 8.1699c-0.51086 0.03405-0.90683 1.0012-1.0117 2.8203-0.14758 2.5581 0.26236 2.8926 3.7969 2.8926 2.3689 2.3e-5 3.713-0.4702 3.2891-1.1562-0.39337-0.6363-1.485-1.1582-2.4219-1.1582-0.93695 1.5e-5 -1.9833-0.77992-2.3496-1.7344-0.4425-1.1533-0.90531-1.6906-1.3027-1.6641zm-742.84 0.10937c-2.7204-0.0059-6.0901 1.4739-5.9297 3.1094 0.43042 4.3895-0.20893 6.0951-2.6738 7.0859-1.9793 0.7956-2.1121 1.0654-0.58008 1.1211 1.1082 0.04033 2.622 1.0552 3.3633 2.2422 1.468 2.3506 4.6762 2.0994 6.8691-0.54297 0.73506-0.88574 2.0512-1.627 2.9277-1.627 0.87659 8e-6 1.5918-0.50111 1.5918-1.1211 0-0.62 1.5581-1.9218 3.4355-2.8926 4.3045-2.2259 6.2343-2.2555 2.3496-0.03516-1.5908 0.90939-2.3727 1.6493-1.7363 1.6621 1.9932 0.04012 4.4546-1.9853 4.7363-3.9043 0.34717-2.3654-3.4227-4.3598-7.4121-3.9414-1.7103 0.17942-3.7792-0.11235-4.5898-0.61328-0.6068-0.37503-1.4448-0.54098-2.3516-0.54297zm81.6 1.5176c-2.6535 0.11505-6.1234 0.80887-7.0137 1.6992-0.57457 0.57458-0.68744 2.9579-0.25195 5.2793 0.65509 3.492 1.0903 3.9915 2.459 2.8555 0.90987-0.75513 1.3632-1.8531 1.0117-2.4219-0.35149-0.56871 0.2914-1.3611 1.4453-1.7715 3.0267-1.0764 6.1778-4.0318 5.4961-5.1348-0.27166-0.43953-1.5534-0.57451-3.1445-0.50586zm-15.365 0.28906c-0.54956 0.02005-1.3603 0.36511-2.6035 1.0137-1.7052 0.88964-3.8259 1.623-4.6992 1.627-1.2356 0.0055-1.2711 0.35662-0.2168 1.627 1.9257 2.3203-0.38964 3.4507-3.6523 1.7715-3.4567-1.7791-1.5557 0.18052 4.3027 4.4473 2.5453 1.8538 4.8133 2.9256 5.0254 2.3848 0.21213-0.54081 1.3275-0.97461 2.4941-0.97461 3.0192 1.5e-5 3.421-2.3641 0.83203-4.9531-1.5067-1.5066-1.8539-2.5933-1.0488-3.3984 0.6502-0.65023 0.92835-1.8598 0.61523-2.6758-0.22827-0.59491-0.49926-0.88919-1.0488-0.86914zm-22.49 1.4824c-0.63632 1.5e-5 -1.0263 0.6299-0.86719 1.4102 0.15909 0.7803-0.88272 1.5902-2.3144 1.8086-1.8561 0.28318-2.6035 1.1882-2.6035 3.1445 0 3.2818-2.0358 4.9365-3 2.4238-0.37576-0.97918-2.1712-2.5348-3.9766-3.4355-2.8688-1.4312-3.358-1.4108-3.9414 0.10937-0.55714 1.4519-0.96354 1.4871-2.4941 0.2168-1.5412-1.279-2.0268-1.2075-2.9648 0.46875-1.4433 2.579-3.5951 1.2694-2.6758-1.627 0.38692-1.2191 0.33565-2.2051-0.10938-2.2051-0.61453 2.3e-5 -6.7476 3.3788-9.5078 5.2422-0.17688 0.11941 0.23511 1.6754 0.9043 3.4355 1.1454 3.0125 1.5467 3.1458 6.6875 2.5664 5.599-0.6311 10.104 0.75341 8.8945 2.7109-0.37352 0.60441-4.1661 1.1277-8.4238 1.1934-7.2577 0.11211-7.4856 0.20654-3.5078 1.2656 2.3335 0.6213 5.1002 2.0626 6.1465 3.2188 2.2588 2.496 8.8697 2.0701 16.234-1.0488 4.0065-1.6968 5.3232-1.7535 9.6894-0.4707 2.7738 0.81493 5.897 2.125 6.9414 2.9297 1.5056 1.1603 1.4491 0.97564-0.17969-0.94141-2.1406-2.5194-1.4742-3.864 2.6387-5.3867 0.9545-0.35337 0.13976-0.67242-1.8066-0.72266-1.9464-0.05022-4.4339-0.75091-5.5332-1.5547-2.6013-1.9022-5.541-10.323-4.1211-11.785 1.4054-1.4474 1.3421-2.9648-0.10742-2.9648zm73.25 0.10938c-1.5657-0.03727-2.6758 0.43966-2.6758 1.4453 0 2.3603 1.4281 3.2632 4.0137 2.5684 1.2888-0.34632 3.3914-0.65626 4.6641-0.6875 2.0615-0.05062 1.9987-0.22611-0.57812-1.6992-1.8357-1.0494-3.8581-1.5897-5.4238-1.627zm-20.645 1.0488c-3.4744 0.0014-8.6406 4.2543-8.6406 7.1211 0 3.2897 3.6267 9.0628 5.75 9.1484 0.97638 0.03937 6.9767 0.24242 13.34 0.43359 8.0411 0.2416 12.981 0.9729 16.197 2.4219 2.5453 1.1466 5.5532 2.1683 6.6894 2.2773 3.5267 0.33823 4.886 2.5266 3.0371 4.8809-1.4698 1.8715-1.4302 1.9156 0.32422 0.54297 1.6579-1.2971 2.1261-1.1771 3.1816 0.79492 0.6807 1.2719 1.2305 3.0333 1.2305 3.9414 0 1.1156 0.8834 1.5124 2.7461 1.1562 3.3763-0.64543 4.7974 1.2117 2.4238 3.1816-1.4152 1.1745-2.119 1.0841-3.7969-0.43359-1.8837-1.7047-2.3023-1.6864-4.6641-0.0352-2.056 1.4401-2.3018 2.1403-1.2285 3.4336 0.7446 0.89715 0.87939 1.6504 0.32422 1.6992-0.55514 0.0488-3.3294 0.18074-6.1816 0.29102-3.9184 0.1515-5.3054 0.71041-5.6035 2.2402-0.28528 1.464 0.3689 2.0382 2.3125 2.0254 1.4784-0.01 3.3772-0.4709 4.2305-1.0117 1.6743-1.0612 10.594 2.618 10.594 4.373 0 0.55249 1.3927 1.3778 3.1094 1.8086 2.3738 0.59576 2.7568 1.0057 1.5176 1.7715-1.1306 0.69871-0.55047 0.97441 1.916 0.9043 1.9551-0.0556 5.5886 0.95627 8.0625 2.2402 5.8427 3.0322 5.7842 3.046 3.291 0.29101-2.0858-2.3047-2.1008-2.4056 0.17969-3.002 3.7031-0.96838 2.5489-4.9203-3.1094-10.521-4.9213-4.8717-5.0525-5.1474-2.8926-6.7598 3.0306-2.2623 3.3371-2.1654 7.6289 1.8438 2.9061 2.7147 4.088 3.1877 5.3144 2.1699 0.86764-0.7201 1.2794-1.8167 0.9043-2.4238-0.37518-0.60706 0.40936-1.3782 1.7715-1.7344 2.31-0.60408 2.3433-0.79967 0.58008-2.748-1.0397-1.1489-2.5152-1.8524-3.291-1.5547-0.77579 0.29767-2.3709-0.51346-3.543-1.8086-1.1801-1.304-3.5865-2.3496-5.3867-2.3496-3.8903 2e-5 -6.7402-3.9124-3.9766-5.459 0.92984-0.52039 1.3507-1.4575 0.90235-2.0977-1.0375-1.4812-7.4463-4.5009-8.8203-4.1582-0.5722 0.14272-1.874-0.0735-2.8926-0.46875-1.6245-0.63034-1.5733-0.90184 0.39648-2.3516 1.8786-1.3826 1.9409-1.6621 0.36133-1.6621-1.0386 1.5e-5 -2.2072 0.51819-2.6016 1.1562-0.44544 0.72074-1.4616 0.75923-2.6758 0.10937-1.075-0.57529-2.4731-1.0935-3.1094-1.1562-0.63632-0.06277-1.1582-0.68736-1.1582-1.375 0-2.2601-3.8792-4.1389-7.4473-3.6152-1.9267 0.28278-3.2446 0.98519-2.8926 1.5547 1.0402 1.683-2.8463 2.5574-4.6641 1.0488-0.91849-0.76231-2.163-1.0709-2.7832-0.6875-1.568 0.96909-3.0441-1.721-2.6406-4.8438 0.26575-2.0567-0.22748-2.5974-2.3496-2.5684-1.4773 0.02025-3.452 0.6721-4.4102 1.4473-2.0073 1.624-2.615 7.7087-0.97657 9.6895 0.72763 0.87974 0.62046 1.643-0.28906 2.2051-2.1165 1.3081-4.5234-2.8664-4.3379-7.5195l0.14453-4.123 0.72266 4.6289c0.6194 3.9771 0.81836 4.2532 1.4824 1.916 1.0948-3.8534-1.1995-8.2775-4.3008-8.2793zm169.93 8.5684c0.49612-0.07592 0.98429 0.12606 1.2637 0.57812 0.37253 0.60273 0.20617 1.399-0.39649 1.7715-0.60275 0.37252-1.3991 0.20627-1.7715-0.39648-0.37253-0.60275-0.2063-1.4009 0.39648-1.7734 0.15066-0.09313 0.34245-0.15439 0.50782-0.17969zm-191.22 1.5547c-0.43628-0.01154-0.82497 0.09192-1.1934 0.28906-4.2283 2.263-4.332 8.0996-0.14453 8.0996 3.1456 2.3e-5 3.5001 0.98372 1.6641 4.6641-2.1903 4.3906-3.294 4.9902-6.0742 3.2539-1.7305-1.0807-2.9317-1.1296-4.9531-0.14648-4.8017 2.3352-12.256 2.7754-16.561 0.97656-2.2254-0.92952-4.0488-2.2238-4.0488-2.8926 0-1.3371-5.6293-1.6756-8.6777-0.50586-1.5372 0.58992-1.6275 0.95603-0.39648 1.7363 0.84878 0.53804 2.3346 0.93929 3.2891 0.9043 1.1443-0.04192 0.94763-0.39321-0.57813-1.0488-1.8863-0.81056-1.9562-1.0197-0.36132-1.0859 2.988-0.12418 3.8315 2.3094 1.0488 3.0371-1.8038 0.47172-2.3616 1.4322-2.1328 3.5801 0.42001 3.9432-2.3238 4.6608-3.7246 0.97657-1.3081-3.4407-5.1799-4.736-11.643-3.8691-5.2107 0.69889-8.515-1.6468-5.0605-3.5801 1.8039-1.0095 1.7604-1.2055-0.57813-2.457-1.9205-1.0278-2.9801-1.0497-4.1582-0.07227-1.1962 0.99279-2.5111 0.83082-5.4238-0.6875-5.0882-2.6523-12.737-4.0325-14.463-2.6035-0.90921 0.7529-2.5062 0.52131-4.8438-0.6875-3.2617-1.6867-3.7942-1.6591-7.3398 0.4707-9.3397 5.6102-12.792 7.1284-13.846 6.0742-0.68326-0.68327 0.77985-2.2026 3.9043-4.0859 2.7438-1.6538 4.3582-3.0474 3.5781-3.0723-0.78003-0.02483-3.0831 0.99372-5.1328 2.2402-2.9903 1.8185-4.0896 1.9914-5.5312 0.86914-1.5052-1.1718-1.583-1.1297-0.50781 0.32422 1.5832 2.1409 2.9127 8.7299 1.9531 9.6895-1.2704 1.2704-3.832-1.8152-3.832-4.627 0-1.5129-0.38995-2.7716-0.86719-2.8203-1.9414-0.19803-4.5931-0.96803-9.4004-2.7109-2.7844-1.0095-6.2651-1.8457-7.7383-1.8457-1.4732 2.3e-5 -2.9753-0.47898-3.3262-1.0469-0.35097-0.56784-3.7543-1.0671-7.5918-1.1211-3.8376-0.05401-8.0352-0.62954-9.293-1.3027-1.5604-0.83508-2.9865-0.87252-4.4824-0.07227-1.6278 0.87119-2.5257 0.72943-3.5801-0.54102-0.78107-0.94112-2.9057-1.6992-4.6992-1.6992s-3.6013-0.5632-4.0137-1.2305c-0.51857-0.83907-1.2194-0.80599-2.2773 0.07227-1.0452 0.86747-1.7703 0.89216-2.2773 0.07227-0.48239-0.78054-1.7384-0.55439-3.5801 0.65234-1.5576 1.0206-2.8105 1.4176-2.8203 0.86719-0.0097-0.55044-0.50444-0.26561-1.084 0.65039-0.57959 0.916-2.461 1.8657-4.1934 2.0977-1.7324 0.23199-4.1732 1.6992-5.4238 3.2891-1.2506 1.5899-2.5663 2.6408-2.8926 2.3145-0.3263-0.32632-2.0738 0.17448-3.9043 1.1211l-3.3262 1.7344 3.7598 3.2188c3.5701 3.0767 7.0907 5.0564 9.4355 5.2773 2.0785 0.19584 1.9341 2.8626-0.2168 4.0137-1.57 0.84024-3.0488 0.7067-5.3145-0.46875-2.0651-1.0714-3.8533-1.26-5.1328-0.58008-1.0758 0.57171-2.9949 1.3803-4.2676 1.8086-2.2399 0.7539-2.2122 0.80668 0.28906 1.7715 1.5482 0.59719 2.3261 1.6314 1.9531 2.6035-0.95955 2.5005 9.9389 3.5104 11.713 1.084 1.7179-2.3493 3.6443-1.1061 3.4004 2.2051-0.18563 2.5198-5.9903 7.01-7.7734 6.002-0.45404-0.25669-1.8904 0.58761-3.2188 1.916-1.6864 1.6864-2.2029 3.214-1.6621 4.9902 1.1901 3.909 4.2444 6.7827 6.543 6.1816 1.1401-0.29813 2.5261 0.25109 3.0742 1.2305 1.3607 2.4314 8.7208 4.8655 10.955 3.6152 2.4127-1.3502 3.3535 0.51512 2.0234 4.0137-1.2459 3.277-5.648 6.6531-12.148 9.3633-2.4839 1.0356-4.252 2.1465-3.9395 2.459 0.54596 0.54598 6.5837-1.9286 10.195-4.1582 0.95449-0.58931 3.5966-2.0627 5.8574-3.291 4.7223-2.5656 11.66-9.2994 10.883-10.557-0.28843-0.46669 0.24589-1.4909 1.1934-2.2773 0.94749-0.78633 1.7344-2.0939 1.7344-2.8926 0-2.3004 3.2616-4.3721 5.4961-3.5059 1.941 0.75238 1.927 0.85826 0 2.2774-1.7643 1.2994-2.9079 5.2773-1.5176 5.2773 2.5642 2e-5 6.5542-2.6289 6.0371-3.9766-1.1204-2.9197 4.0631-5.0069 5.9297-2.3867 1.4527 2.0392 6.4608 3.8532 12.545 4.5566 3.2532 0.37616 8.4242 1.9497 11.498 3.5059 3.7947 1.9211 6.0144 2.4685 6.9414 1.6992 0.95306-0.79098 1.9404-0.26837 3.2539 1.7363 1.035 1.5795 1.8809 3.2175 1.8809 3.6152 0 1.1791 5.0897 5.056 6.6875 5.0977 2.4507 0.064 5.1483 7.7469 3.5078 9.9785-0.57425 0.78114 0.22639 1.7889 2.0957 2.6406 2.9813 1.3584 3.0094 1.4146 0.90429 3.9394-1.1753 1.4096-1.417 1.959-0.54101 1.1934 2.2049-1.927 6.5511 0.27764 4.7715 2.4219-1.4459 1.7422-0.46994 3.002 2.3145 3.002 2.9082 0 12.654 9.604 12.654 12.473 0 2.7466-1.7991 4.3727-2.8926 2.6035-1.6105-2.6059-2.3034-0.84239-2.4238 6.0371-0.0696 3.9774-0.32538 10.356-0.54102 14.174-0.40945 7.2493 2.4268 15.807 5.0606 15.293 0.70702-0.1382 1.3523 0.87181 1.4473 2.2422 0.26393 3.8059 5.0853 10.84 8.2422 12.041 1.5527 0.59033 2.482 1.6306 2.0606 2.3125-0.45949 0.74348 0.0878 1.0896 1.375 0.86914 1.6795-0.28761 2.5798 1.0078 4.2305 6 1.1572 3.4998 3.1133 7.4411 4.3379 8.75 1.6127 1.7238 1.8939 2.735 0.97656 3.6523-0.91737 0.91736-0.28482 2.1314 2.3144 4.4473 1.9737 1.7586 3.6152 4.2768 3.6504 5.6035 0.0688 2.5939 6.4478 8.4115 7.7734 7.0859 0.44041-0.4404-0.0851-1.2958-1.1934-1.916-1.1083-0.62024-2.0234-1.6781-2.0234-2.3496 0-0.67148-1.5617-3.5348-3.4707-6.3633-1.909-2.8286-3.4744-5.5214-3.4727-5.9668 2e-3 -0.44534-1.1446-2.9915-2.5664-5.6758-1.9975-3.7713-2.2916-5.1908-1.2285-6.2539 1.5832-1.5832 4.9531 0.47646 4.9531 3.0371 0 0.80658 2.3416 4.6787 5.2051 8.5684s5.207 7.4702 5.207 7.9902c0 0.52 1.7405 2.9934 3.8691 5.4942 5.1281 6.0249 6.5599 8.8869 5.8203 11.715-0.79482 3.0394 2.9371 5.9908 15.51 12.221 7.9993 3.9638 10.054 4.5759 11.824 3.4707 1.7502-1.093 2.8887-0.81517 6.3262 1.5176 5.4486 3.6975 12.861 7.4492 14.68 7.4492 2.8638 0 7.918 6.1404 7.918 9.6172 0 2.862 0.26095 3.182 1.6992 1.9883 1.402-1.1636 1.9303-0.93267 2.9648 1.3379 0.79242 1.7392 2.3833 2.8443 4.2656 3 1.6451 0.13614 3.5759 0.73469 4.3027 1.3379 0.8855 0.73492 1.7808 0.36821 2.7109-1.1211 3.1015-4.9664 8.3475 2.4593 8.1719 11.57-0.0783 4.0649-0.90737 6.2093-3.9062 9.8691-2.1029 2.5663-4.463 7.1746-5.2422 10.27-1.2795 5.0813-1.2278 5.7447 0.65234 6.7969 1.968 1.1013 1.9361 1.2691-0.36328 3.0371l-2.4219 1.8789 3.832 8.6777c2.1126 4.7724 5.1007 12.55 6.6172 17.281 2.3328 7.2771 3.4385 9.0589 7.1582 11.57 2.4182 1.6324 6.2764 4.6492 8.5684 6.7246l4.1582 3.7969-1.4453 19.922c-0.78464 10.969-1.5655 22.82-1.7363 26.32-0.203 4.1581-1.3955 8.5324-3.4707 12.617-2.2918 4.5112-2.9962 7.2162-2.4941 9.7266 0.38263 1.9133 0.0729 5.1998-0.6875 7.3027-1.0806 2.9882-1.0748 4.3938 0.0371 6.4726 1.7 3.1765 1.1941 15.397-0.72461 17.316-0.99753 0.99756-1.5111 0.83783-2.0957-0.68555-0.61468-1.6018-0.99799-1.7261-1.7715-0.50586-1.2491 1.9704-1.2857 3.6067-0.0723 2.8555 1.3284-0.82104 7.4555 5.9431 6.6152 7.3027-0.38257 0.61902-1.3793 0.8742-2.2422 0.54296-1.2153-0.46636-1.4808 0.62317-1.1914 4.916 0.20548 3.048-0.22165 6.2558-0.9414 7.123-1.0082 1.2148-0.92785 1.5053 0.36133 1.2305 2.4735-0.52716 8.257 3.7062 7.5566 5.5312-1.0841 2.8252 1.2171 1.6234 2.5664-1.3379 0.72479-1.5908 1.8461-2.8926 2.4961-2.8926 0.64999 0 1.1934-1.2187 1.1934-2.7109s1.036-3.6533 2.3125-4.8086c1.2766-1.1552 2.0791-2.3681 1.7715-2.6758-0.30759-0.30754 1.0612-2.3784 3.0371-4.6289 3.494-3.9794 3.5189-4.1149 1.1582-4.9883-4.667-1.7264-4.2165-10.268 0.54102-10.268 1.0103 0 1.5918-1.3113 1.5918-3.5801 0-2.6198 0.63608-3.7454 2.3496-4.1934 1.9825-0.51846 2.0752-0.81149 0.65039-1.916-0.92529-0.71735-1.8574-2.3445-2.0606-3.6172-0.29758-1.8647 0.27419-2.3125 2.9648-2.3125 3.21 3e-5 4.4762-1.2003 5.7852-5.4609 0.42236-1.3747 2.4327-2.2006 6.5449-2.7461 9.4562-1.2544 11.705-5.4368 6.3613-11.787-3.4764-4.1314-2.7424-5.3336 1.7012-2.7832 3.0473 1.7489 3.5906 1.7324 7.3027-0.0371 4.0238-1.9188 6.8998-5.8945 13.016-18.076 2.4746-4.9294 2.8605-6.7124 1.916-8.7852-0.65161-1.4301-0.83018-3.1705-0.39844-3.8691 0.85794-1.3882 9.0861-7.1953 10.197-7.1953 0.37882-3e-5 1.2818-0.76694 1.9883-1.6992 0.70646-0.93228 3.3432-1.8868 5.8574-2.1328 4.3962-0.43012 4.6643-0.72651 7.7363-7.8457 2.6048-6.0366 3.218-9.1484 3.2539-16.885 0.0309-6.6674 0.50066-9.7616 1.5918-10.412 0.85394-0.50888 3.4555-3.7461 5.7832-7.1582 5.5828-8.1839 5.8837-14.273 0.83203-16.885-1.8704-0.96719-4.0819-2.7154-4.916-3.9043-1.1153-1.5899-3.3873-2.2992-8.6055-2.6758-6.0862-0.4393-7.6402-1.0598-10.811-4.2305-4.469-4.469-6.4877-4.6092-9.5449-0.72266-1.6453 2.0916-3.2307 2.8533-5.3867 2.6035-3.6759-0.42596-3.6295-2.4177 0.0723-3.291 1.466-0.34607 2.828-1.5178 3.0371-2.6035 0.56311-2.9239-1.5144-2.4293-5.9297 1.4473-2.1577 1.8945-4.2424 3.1326-4.627 2.748-1.2179-1.2179 6.1782-10.917 7.6641-10.051 0.75583 0.44064 0.33318-0.3949-0.93946-1.8438-1.2727-1.4488-2.1918-2.9528-2.0605-3.3633 1.3607-4.2542-6.1719-10.594-12.582-10.594-3.1868 0-5.0045-0.94671-8.3164-4.3379-2.3305-2.3862-5.5088-5.5695-7.0859-7.0859s-2.5323-3.295-2.1328-3.9414c0.47839-0.77411-1.3012-0.91165-5.1699-0.39843-3.6918 0.48972-6.1448 0.33075-6.6172-0.4336-0.41336-0.66885-1.3483-1.1307-2.0957-1.0117-2.3082 0.36722-7.7332-2.3125-7.8106-3.8691-0.0403-0.81119-0.54561-0.31064-1.1211 1.1211-0.5755 1.4317-1.5356 2.6035-2.1328 2.6035-0.59726-3e-5 -0.81991 0.96906-0.50586 2.1699 0.82333 3.1484-1.6126 4.1316-3.1465 1.2656-1.0169-1.9-0.86563-3.0377 0.58008-5.2441 2.3793-3.6312 0.62408-3.629-2.7852 0-1.4513 1.5448-3.3526 2.5068-4.2305 2.1699-1.4679-0.56332-2.0076 0.34756-4.5898 7.6289-0.44199 1.2463-1.2463 0.9705-3.4727-1.1211-2.6129-2.4547-3.3069-2.5968-7.4824-1.4824-4.4059 1.176-4.7697 1.0834-7.6289-2.3144-2.751-3.2694-2.9484-4.1526-2.2774-10.701 0.72324-7.059 0.70448-7.1657-2.459-8.0625-1.7603-0.49902-5.0405-0.92676-7.2676-0.97657-3.792-0.0848-4.0047-0.34071-3.6523-3.5781 0.20692-1.9014 0.76401-3.9851 1.2656-4.6289 0.50162-0.64389 1.2516-3.3699 1.6641-6.0742 0.66476-4.3578 0.51371-4.916-1.4824-4.916-5.0847 0-8.047 2.1068-8.4238 6.002-0.3392 3.5066-0.73341 3.8569-5.4961 4.6641-6.4295 1.0896-9.5217-0.70256-12.764-7.4121-2.2779-4.7147-3.2096-14.722-1.5176-16.414 0.45837-0.45834 0.68808-2.5861 0.50586-4.7012-0.28925-3.3572 0.21189-4.1716 4.0488-6.543 5.2038-3.2161 6.496-3.4862 10.594-2.2051 1.7031 0.53241 4.8681 1.2547 7.0137 1.627 3.4863 0.60489 3.729 0.50395 2.3496-1.1582-1.3129-1.582-1.2064-2.1295 0.72461-3.543 1.4568-1.0664 3.3139-1.3616 5.1699-0.83007 1.5908 0.45554 4.2685 0.76471 5.9648 0.68554 3.5172-0.16418 6.5727 3.5151 7.1582 8.6777 0.44952 3.964 3.1424 8.4238 5.0976 8.4238 1.9679 0 1.8381-1.5303-0.86718-10.99-1.2726-4.4502-2.3145-8.8015-2.3145-9.6543 0-0.85284 2.7782-4.3407 6.1836-7.7734s5.9554-6.517 5.6406-6.832c-0.31488-0.31486 0.25882-0.90289 1.3008-1.3027 1.0419-0.3998 1.6257-1.1364 1.3008-1.6621-0.32489-0.52566-0.0332-1.2984 0.61524-1.6992 0.79559-0.49168 0.76098-1.4844-0.0723-3.0371-1.4316-2.675-1.0024-8.5332 0.61524-8.5332 0.60764-1e-5 1.4364 1.3018 1.8789 2.8926 0.65817 2.3661 0.84708 2.4528 0.94141 0.54297 0.17572-3.5571 5.6994-10.955 8.1699-10.955 4.3329-2e-5 5.8351-1.1921 4.4121-3.4707-1.0249-1.6412-0.89063-2.7477 0.65039-5.0996 1.0832-1.6532 2.7618-3 3.7227-3 0.96097 0 4.1939-1.2404 7.1953-2.748 3.7324-1.8749 6.1907-2.4389 7.7734-1.8066 1.3349 0.53337 1.6362 0.96486 0.6875 1.0117-2.3012 0.11382-5.8945 3.5695-5.8945 5.6758 0 1.4034 0.52518 1.2808 2.6035-0.57813 1.4317-1.2806 4.2686-2.9994 6.291-3.7969 2.0223-0.79758 3.9804-2.2079 4.3398-3.1445 0.35938-0.93655 1.1658-1.3723 1.8066-0.97657 0.64081 0.39609 1.1582 0.24166 1.1582-0.32617 0-2.3526-1.4544-2.1607-4.1582 0.54297-2.3105 2.3105-3.2094 2.6004-4.5566 1.4824-0.92072-0.76411-1.3005-1.9876-0.86719-2.7109 0.58774-0.98114 0.34034-0.98169-0.90429 0-1.3154 1.0375-2.3095 0.64752-4.7715-1.8809-3.2629-3.3509-3.1705-4.627 0.39844-4.627 1.1897 0 2.1328-0.82258 2.1328-1.8809 0-2.9279-7.7562-1.186-11.75 2.6406-2.3124 2.2154-3.664 2.8066-4.5195 1.9512-1.6903-1.6904 8.2141-10.298 12.943-11.244 1.9895-0.3979 6.1823-0.72266 9.3262-0.72266 3.1439-1e-5 6.8542-0.6262 8.2441-1.373s4.093-1.6697 6.002-2.0625c3.0095-0.61929 3.4707-1.2131 3.4707-4.5176 0-5.0861-1.4508-6.0231-6.6524-4.2305-2.9463 1.0154-4.5952 1.1371-5.0976 0.32422-0.93979-1.5207 2.756-4.3271 5.8926-4.4473 1.6841-0.0646 1.8774-0.26162 0.65039-0.72265-0.95447-0.35867-3.0736-1.6201-4.7363-2.7832-1.6626-1.1632-3.296-1.8387-3.6152-1.5195-0.31924 0.31923-1.4388-0.73892-2.4942-2.3496s-1.5649-2.9277-1.1211-2.9277c0.44376 0-0.36222-1.2128-1.7715-2.7129-1.4092-1.5001-2.8189-4.204-3.1445-6-0.94492-5.2109-1.5899-5.4537-5.0625-1.7363-1.958 2.0961-3.9926 3.2519-5.0254 2.8555-0.9501-0.36459-2.0816-0.0753-2.5312 0.65234-0.55514 0.89825-1.593 0.48012-3.2539-1.3027-2.7288-2.9291-3.432-5.3095-1.8438-6.291 1.6282-1.0063 1.2518-3.9766-0.50586-3.9766-0.86157 0-3.0752-1.4055-4.918-3.1445-2.6054-2.4586-4.5777-3.2313-8.8926-3.3633-5.1861-0.15871-5.6669 0.0867-7.0879 3.4707-1.0071 2.3983-1.1462 4.3228-0.43359 5.7129 0.71414 1.3932 0.59116 2.6569-0.32422 3.7598-0.75842 0.91383-0.97986 1.6641-0.50586 1.6641s0.28198 0.6901-0.43555 1.5547c-0.996 1.2001-0.75748 2.303 1.0137 4.5547 2.8536 3.6278 2.9435 7.5125 0.28907 11.279-1.3036 1.85-2.0658 5.2922-2.1699 9.7266-0.11887 5.0671-0.67179 7.2191-2.1699 8.3145-1.7524 1.2814-2.6643 0.9251-6.6152-2.7832-4.1732-3.917-4.5221-4.7057-4.0488-9.0742l0.50586-4.8086-5.1348-0.57812c-3.3569-0.3784-7.2876-2.0457-11.354-4.8457-3.4213-2.3563-6.715-3.9651-7.3379-3.5801-1.4024 0.86676-2.9446-1.4661-3.002-4.5547-0.0321-1.728-0.69515-2.2233-2.6387-1.9531-1.9053 0.26497-2.9025-0.43934-3.7246-2.6016-1.6145-4.2463-0.28087-7.0187 7.1953-14.861 1.7544-1.8403 2.9069-3.7869 2.5664-4.3379-0.84531-1.3678 3.55-3.5598 5.5684-2.7852 0.89571 0.34372 2.8736-0.40892 4.4102-1.6621 3.0365-2.4765 3.1974-2.2825-3.4707-4.3379-3.0563-0.9421 0.59014-2.9208 4.6641-2.5312 3.6024 0.34438 3.936 0.69052 4.2676 4.6992 0.26086 3.1536-0.13847 4.5468-1.4824 5.0625-1.4757 0.56629-1.1984 1.0777 1.373 2.4219 3.041 1.5896 3.3614 1.5077 5.4238-1.2285 2.0446-2.7126 2.3446-2.7956 4.8438-1.1582 1.472 0.96452 3.2092 1.4337 3.832 1.0488 1.8341-1.1335-3.8573-6.3751-7.7734-7.1582-1.9724-0.39447-4.3933-1.9545-5.3867-3.4707-1.8849-2.8768-1.6564-3.1499 2.4961-2.8203 2.7417 0.21765 9.6172-2.9098 9.6172-4.375 0-0.49836-0.72505-1.9111-1.627-3.1445-1.1808-1.6149-1.2863-2.6547-0.39844-3.7246 1.6534-1.9922-2.0587-4.7961-6.4004-4.8457-2.7505-0.03138-3.0485 0.28211-2.0957 2.0625 0.85104 1.5901 0.37798 2.9966-1.916 5.9277-2.8194 3.6025-3.079 3.7063-4.5195 1.7363-0.84554-1.1564-1.5547-3.2357-1.5547-4.627s-0.75217-3.1494-1.6641-3.9062c-1.3361-1.1089-2.0153-0.7934-3.5781 1.5918-2.0889 3.188-4.0137 2.9761-4.0137-0.43359 0-1.1912-1.0809-2.4156-2.4941-2.7852-1.9535-0.51086-2.2079-0.98267-1.1934-2.2051 1.7944-2.1621-2.4422-6.8605-5.4961-6.9414zm25.887 0.28906c-0.28061 1.5e-5 -0.50586 0.51988-0.50586 1.1562 0 0.63633 0.55461 1.1582 1.2285 1.1582 0.67386 0 0.89914-0.52184 0.50586-1.1582-0.39325-0.63631-0.94796-1.1563-1.2285-1.1562zm753.9 0.4707c-2.2776 0.11803-5.2759 0.94584-6.4356 2.0605-0.9102 0.87495 5.0281 0.77901 9.6172-0.14453 0.1965-0.03958 0.018-0.62912-0.3984-1.3027-0.3167-0.51238-1.4167-0.6841-2.7832-0.61328zm-533.98 2.8301c8e-3 0.02268 3e-3 0.04596 0.0117 0.06836 0.0158-0.0089 0.0337-0.01425 0.0488-0.02344-0.0199-0.01531-0.0406-0.02964-0.0605-0.04492zm189.75 1.0371c-0.47455-0.01371-0.88743 0.08605-1.1582 0.36133-0.83752 0.85145-0.51328 1.7396 1.0488 2.8926 2.6178 1.9321 3.7429 2.0707 4.6641 0.58008 0.85638-1.3857-2.4985-3.7746-4.5547-3.834zm-113.56 2.6387c-0.20925 0.2004-0.45139 0.3778-0.71875 0.53711 0.13025-0.03227 0.26692 0.0076 0.38672-0.06641 0.17745-0.10968 0.23285-0.3033 0.33203-0.4707zm-332.13 0.58008c-0.53873 0.0588-1.0652 0.5757-1.9512 1.5547-1.7924 1.9806-1.7978 2.2447-0.10938 2.8926 1.0223 0.39228 1.5642 1.2067 1.1934 1.8066-0.42041 0.68022 0.692 0.69904 3 0.03711 2.0356-0.58379 4.1167-1.7242 4.6289-2.5312 0.7494-1.1807 0.96231-1.1929 0.97656 0 0.01 0.81541-0.78554 1.768-1.7363 2.1328-0.95082 0.36489-1.4361 1.1295-1.084 1.6992 1.1786 1.907 2.6311 1.0744 4.4473-2.5664l1.8066-3.6152-3.6504 0.72266c-2.4756 0.49512-4.251 0.18055-5.5684-1.0117-0.87-0.78733-1.4143-1.1799-1.9531-1.1211zm418.82 0.86719c-1.7387-0.01477-4.2199 2.7473-3.3262 4.1934 0.55267 0.89413 1.4588 0.91664 3.0371 0.07227 2.5081-1.3423 2.8822-2.9063 0.97656-4.084-0.20648-0.12764-0.43915-0.17953-0.6875-0.18164zm-514.62 3.1816c-0.63633 0-1.9381 0.50426-2.8926 1.1211-0.9545 0.61687-1.2145 1.1211-0.57813 1.1211 0.63632 0 1.9381-0.50425 2.8926-1.1211 0.95449-0.61683 1.2144-1.1211 0.57812-1.1211zm417.66 1.4492c-0.20464 0.49763-0.47201 0.9601-0.79883 1.3906 0.10906-0.03265 0.22508 0.0058 0.32617-0.05664 0.46705-0.2887 0.57749-0.82348 0.47266-1.334zm-245.86 10.084c-1.3478 1e-5 -2.1296 0.52184-1.7363 1.1582 0.39328 0.63633 1.1751 1.1562 1.7363 1.1562 0.56122 2e-5 1.3412-0.51998 1.7344-1.1562 0.39328-0.63632-0.38664-1.1582-1.7344-1.1582zm157.89 1.4824c-0.83398-2e-3 -2.0346 0.1373-3.7246 0.39844-3.0226 0.46703-6.4293 0.75692-7.5566 0.68555-1.1273-0.0714-1.7718 0.3038-1.4453 0.83203 0.89539 1.4487-4.6551 4.6902-8.3164 4.8457l-3.2188 0.14453 3.4726 0.72266c1.9089 0.4082 3.2087 1.2055 2.8906 1.7715-0.66769 1.1875 2.9313 2.8089 6.5098 2.9277 1.3469 0.0447 5.2498-1.0555 8.6758-2.457 6.9539-2.8451 8.6814-4.4967 6.1836-5.8945-0.92557-0.518-1.6992-1.7491-1.6992-2.7109 0-0.89637-0.3815-1.2622-1.7715-1.2656zm72.961 11.031c-0.27173 0.26681-0.53361 0.54934-0.8457 0.77735 0.11315-0.0327 0.23319 6e-3 0.33789-0.0586 0.27111-0.16757 0.42219-0.43587 0.50781-0.71875zm-224.27 1.6602c1.5762-0.0557 5.912 1.8515 6.6894 3.1094 0.41751 0.67557 0.33313 1.2169-0.18164 1.1914-1.6088-0.0796-7.524-3.5744-6.9766-4.1211 0.095-0.095 0.24359-0.17176 0.46875-0.17969zm175.54 5.9648c-0.87549 0.1275-1.6455 1.2239-1.1582 2.4941 0.3338 0.86974 0.0778 1.8948-0.54101 2.2774-0.61899 0.38251-0.80649 1.2059-0.43359 1.8086 0.37243 0.60274 1.1719 0.75359 1.8066 0.36133 0.6347-0.39227 0.89791-0.98295 0.54296-1.3379-0.35495-0.35498-0.10735-1.3438 0.57813-2.1699 0.68561-0.82606 0.92274-2.0363 0.50586-2.7109-0.26401-0.42715-0.60101-0.65857-0.93945-0.72266-0.12692-0.024-0.23627-0.0182-0.36133 0zm-205.61 1.2363c-0.0427 0.20564-0.05 0.41775-0.0625 0.62695-1e-3 0.0665-5e-3 0.13496-8e-3 0.20313 0.07-0.28283 0.0693-0.52737 0.0703-0.83008zm-10.299 0.58984c-1e-3 0.0171 3.4e-4 0.0306 0 0.0469 0.0449-0.0197 0.0818-0.0219 0.12695-0.043-0.0422-1e-3 -0.0847-3e-3 -0.12695-4e-3zm323.22 2.2949c0.20953-0.0198 0.43391-0.0163 0.65234 0 1.4564 0.1084 3.0579 0.96565 3.7598 2.2774 1.6176 3.0225 1.505 3.912-0.39844 3.1816-0.87695-0.3365-2.0486-0.15623-2.6035 0.39844-0.57349 0.57342-1.5674-0.1923-2.3125-1.7715-0.7207-1.5275-1.037-3.0488-0.6875-3.3984 0.39911-0.39911 0.96126-0.62815 1.5898-0.6875zm-95.74 9.7617c-0.52426 0.10066-1.7656 0.9731-3.5801 2.6758-3.6545 3.4294-5.4719 7.9867-3.6524 9.1113 0.65277 0.40343 0.67704 1.2316 0.0723 2.0254-1.1769 1.5386 1.7302 4.8086 4.2676 4.8086 0.90683-2e-5 1.7558 1.4222 1.9512 3.2539 0.26041 2.4428-0.3001 3.4981-2.2051 4.2656-1.3921 0.56082-2.0727 1.0437-1.5176 1.084 0.55521 0.0404 0.35856 0.85416-0.43359 1.8086-1.2012 1.4472-1.0515 1.7344 0.93945 1.7344 3.9569-1e-5 4.1603 2.349 0.32422 3.7969-4.8822 1.8428-4.5278 3.2238 0.47071 1.8438 2.2232-0.61385 4.6968-1.0436 5.4961-0.93946 5.3836 0.70175 8.2981-0.64855 9.4727-4.4121 0.59549-1.9081 0.33773-2.6016-0.94141-2.6016-2.0071-1e-5 -2.9691-1.2711-3.6504-4.8086-0.47675-2.4758-4.4233-7.6201-7.1953-9.4004-1.1107-0.71338-0.96235-1.6274 0.57812-3.9785 1.9611-2.993 1.9583-3.0481-0.57812-2.3848-3.6644 0.95827-4.3224-0.91874-1.5176-4.4844 1.8618-2.3669 2.3733-3.5278 1.6992-3.3984zm-421.64 3.7969c-1.732 0.12596-6.9043 3.578-6.9043 4.8809 0 0.48694 0.36179 1.229 0.79492 1.6621 1.0454 1.0454 7.4106-5.0764 6.6152-6.3633l0.10938-0.14453-0.18164 0.10937c-0.09405-0.0915-0.22423-0.15975-0.43359-0.14453zm-50.602 6.6621c-0.12882 0.0329-0.26328 0.0657-0.375 0.13476-0.06946 0.0429-0.0731 0.13036-0.13086 0.1836 0.03084-0.0189 0.05883-0.0418 0.08984-0.0606 0.14019-0.0834 0.277-0.17244 0.41602-0.25781zm40.627 4.582c-0.05558 8e-3 -0.11125 0.0441-0.16992 0.0605 0.08671-4e-3 0.17321-0.0108 0.25976-0.0156-1.91e-4 -1e-3 1.98e-4 -3e-3 0-4e-3 -0.03508 3e-3 -0.05463-0.0464-0.08984-0.041zm417.74 2.5664c-0.60339 0.0508-1.0694 0.36196-1.5195 0.90429-0.67914 0.81828-0.87753 1.8334-0.43359 2.2774 0.44391 0.44394-0.35411 1.1117-1.7715 1.4824-1.9464 0.50902-2.2726 1.0436-1.3379 2.1699 0.86008 1.0362 0.88094 1.7212 0.0371 2.2422-1.0617 0.65619-1.8242 5.2422-0.86914 5.2422 0.19864 0 2.4696-1.0265 5.0625-2.2793 3.9475-1.9073 4.815-2.9316 5.207-6.2891 0.38156-3.2684-8e-3 -4.2199-2.0977-5.1719-0.93442-0.42574-1.6739-0.62894-2.2773-0.57812zm426.52 1.5918c-0.74457 0-1.0681 0.45271-0.72265 1.0117 0.34552 0.55902-0.22295 2.6795-1.2305 4.6992-1.5494 3.1058-1.5813 4.2329-0.32422 7.2676 0.87225 2.1057 1.3831 7.2594 1.2285 12.473-0.21783 7.3487 0.0435 8.8594 1.5195 8.8594 0.98157 0 1.7715-0.63639 1.7715-1.4473 0-0.81087-0.52183-1.8118-1.1582-2.2051-1.2886-0.79636-1.5856-6.6919-0.39649-7.8809 0.4187-0.41867 1.4586-0.20284 2.3125 0.50586 1.6783 1.3929 2.1658-0.15111 0.61524-1.9531-1.8809-2.1857-3.8038-13.086-3.0371-17.174 0.53637-2.8591 0.34896-4.1548-0.57813-4.1562zm-372.6 0.50586c0.14897 0.0948 0.30317 0.23991 0.4707 0.21875-5e-3 -0.0549-9e-3 -0.10712-0.0137-0.16211-0.13031-0.018-0.30272-0.0376-0.45703-0.0566zm-190.89 17.643c-1.0927 0.14662-3.2813 1.3945-5.7129 3.6172-4.2828 3.9149-4.5925 4.5782-3.1816 6.5078 1.3392 1.8316 3.599 1.7415 7.7773 0.34961 0.14098-0.053 0.27802-0.0877 0.41016-0.10742 0.52699-0.18308 0.72096-0.12081 1.3223-0.35157 1.4251-0.54687 1.8039-0.37258 1.1934 0.61524-0.47894 0.77492-0.52938 2.3152-0.10937 3.3984 0.70938 1.8294 0.84519 1.8006 2.2773-0.14453 0.99136-1.3464 1.8197-1.6326 2.3145-0.83204 0.42322 0.68478 1.2781 0.91548 1.8809 0.54297 0.60272-0.37251 0.76898-1.1687 0.39648-1.7715-0.37253-0.60274-1.2183-0.73442-1.8789-0.32617-0.75195 0.46472-0.92074-0.13668-0.4707-1.5547 1.0229-3.223-2.9481-6.5932-6.4707-5.4961-2.6269 0.8181-2.6339 0.78339-0.58008-1.5176 1.9229-2.1544 1.9248-3.0764 0.83203-2.9297zm-92.592 1.5195c0.63632 0 1.1562 0.51987 1.1562 1.1562 0 0.63632-0.51988 1.1581-1.1562 1.1582-0.63634 0-1.1562-0.52184-1.1562-1.1582 0-0.63632 0.51988-1.1562 1.1562-1.1562zm71.73 1.5176c-0.35068 0.0202-0.64926 0.10424-0.93945 0.2168-1.7494 0.6785-1.7422 0.8919 0.28906 2.3867 2.5971 1.9114 4.849 2.1498 5.8203 0.57813 0.84164-1.3618-2.715-3.3231-5.1699-3.1816zm-69.021 4.8086h2e-3c0.6253 0.0435 1.3184 0.28778 2.2774 0.72461 1.6494 0.75153 3.7895 3.0632 4.7715 5.1328 1.4945 3.1495 2.6706 3.9416 7.1953 4.7734 2.9733 0.54663 5.6215 1.6417 5.8926 2.457 0.27109 0.81529-0.1549 1.3371-0.97461 1.1582-0.85272-0.18617-1.7746 1.1586-2.1699 3.1445-0.68991 3.4665-0.71549 3.4643-2.1699 0.83203-0.80093-1.4496-1.8768-2.3622-2.4219-2.0254-0.54507 0.33687-0.75238-0.37055-0.43359-1.5898 0.37552-1.436-0.24318-2.6715-1.7363-3.4707-1.9329-1.0344-2.6135-0.69827-4.375 1.9512-1.1552 1.7375-2.4036 5.49-2.748 8.3535-0.39702 3.3-0.95257 4.6559-1.5527 3.7227-0.52083-0.8098-0.79734-2.8911-0.61524-4.627 0.18208-1.7359-1e-3 -3.6598-0.39843-4.3027-1.0081-1.6312 1.5602-4.8585 4.3027-5.3867 6.5796-1.2671-3.63-5.6558-11.354-4.8809-4.292 0.43062-4.541 0.34648-1.9883-0.75977 1.5905-0.6893 4.0089-2.2815 5.3516-3.543 1.3008-1.2221 2.1023-1.7366 3.1445-1.6641zm30.805 3.2188c0.40738-0.0163 0.84515 0.051 1.2305 0.28907 1.2939 0.79965 0.42687 2.8926-1.1934 2.8926-0.56122-1e-5 -1.3331-0.49167-1.6992-1.084-0.64169-1.0383 0.43999-2.0488 1.6621-2.0977zm365.68 3.7246c1.881 3e-3 2.2793 0.60486 2.2793 2.6738 0 1.9759-0.51152 2.6122-1.6641 2.1699-0.90802-0.34842-2.2393 0.13217-3 1.0488-0.76074 0.91667-1.017 1.6621-0.54297 1.6621 0.474 0 0.28119 0.69356-0.4336 1.5547-0.99783 1.2025-0.64645 2.2596 1.4824 4.5566 1.5244 1.6449 2.5 3.2852 2.1699 3.6152-0.32996 0.33-0.26251 1.5347 0.17969 2.6758 0.74731 1.9281 0.91476 1.9092 2.2422 0.10743 1.3216-1.7942 1.5326-1.7729 2.8203 0.28906 1.1948 1.9132 1.0676 2.2422-0.86914 2.2422-3.1279 0-4.0216 1.9271-1.5547 3.3633 1.127 0.6561 1.7298 1.2091 1.3379 1.2285-0.39172 0.0194-0.31177 2.096 0.14453 4.5918 0.7309 3.9966 0.51439 4.5951-1.627 5.1699-4.4848 1.2039-7.2542 0.71109-9.4356-1.6992-2.0514-2.2668-2.0621-2.6609-0.28906-7.5918 1.5534-4.3194 1.598-5.32 0.28906-5.8223-2.1503-0.82516-6.5381-12.865-5.6758-15.582 0.83429-2.6284 6.832-5.9416 11.244-6.2188 0.33228-0.0209 0.6336-0.0357 0.90234-0.0352zm-374.49 1.084c0.49616-0.0759 0.98429 0.12606 1.2637 0.57812 0.37253 0.60274 0.20627 1.399-0.39648 1.7715-0.60275 0.37251-1.399 0.20624-1.7715-0.39649-0.37253-0.60272-0.20627-1.4009 0.39648-1.7734 0.15066-0.0931 0.34244-0.15437 0.50781-0.17968zm397.78 1.8438c1.4826 0 1.1809 5.1452-0.39844 6.7246-1.8807 1.8807-2.8553 1.7176-3.7226-0.54297-0.71539-1.8644 2.1621-6.1816 4.1211-6.1816zm230.05 1.8809v0.0723c-0.76929 0.28421-1.1562 1.5867-1.1562 3.9043 0 2.1913-0.59045 3.3983-1.6641 3.3984-2.5006 0-3.1143 1.7679-1.8066 5.207 1.1228 2.9532 4.3815 3.5242 3.7227 0.65039-0.20062-0.87537 0.50692-1.1587 1.8809-0.72266 1.2733 0.40414 2.7983-0.0197 3.6523-1.0488 0.80408-0.96886 2.1459-1.7715 3-1.7715 1.9553 0 4.3425-4.2387 2.8926-5.1348-0.58057-0.35884-1.7924-0.37037-2.6758-0.0352-0.8833 0.33897-2.809-0.68929-4.3027-2.2793-1.5665-1.6675-2.701-2.3833-3.4707-2.168zm-617.96 5.2422c0.13562-0.0152 0.23636-0.0156 0.32617 0 0.23944 0.0414 0.31574 0.21092 0.2168 0.46875-0.34323 0.89439-2.3594 2.0889-4.4844 2.6758-2.125 0.58672-5.6417 2.433-7.8086 4.0859-2.167 1.6528-4.6026 3-5.4238 3-2.2385 0 3.0965-3.7085 11.172-7.7734 2.9808-1.5005 5.0526-2.3508 6.002-2.457zm630.12 2.2676c-0.0582 0.15051-0.0634 0.28075-0.0625 0.44336 0.0141-0.0448 0.0307-0.0894 0.043-0.13476 5e-3 -0.10141 0.0135-0.20577 0.0195-0.3086zm-15.131 9.627c-1.3421 0.0534-2.3574 1.099-2.5664 2.9648-0.76556 6.836-1.4218 8.3498-3.0742 6.9785-1.003-0.83247-1.8712-0.89888-2.3144-0.18164-0.38525 0.62326-0.13458 1.4972 0.54297 1.916 0.85547 0.52869 0.80444 1.2433-0.14453 2.3867-1.0268 1.2372-1.7536 1.3358-2.9277 0.36133-1.2199-1.0124-1.7938-0.67278-2.6406 1.5547-0.84753 2.2292-2.1398 2.9948-5.9648 3.5078-3.2199 0.43188-5.8845 1.6903-7.7363 3.6875-2.0566 2.218-3.2072 2.7238-4.2676 1.8438-2.6022-2.1596-2.9523 0.15655-0.54102 3.543 1.2942 1.8174 2.0046 3.8483 1.5898 4.5195-0.4148 0.67114-0.46197 2.0036-0.10742 2.9277 1.1342 2.9556 3.1744 1.7975 4.9883-2.8203 1.2825-3.2647 2.3159-4.3542 3.7598-3.9766 1.0917 0.28549 2.647-0.27327 3.4707-1.2656 1.2697-1.5301 1.091-1.999-1.2285-2.9277-2.7059-1.0834-2.7166-1.0856-0.18164-1.1582 1.5041-0.043 3.1104 0.97177 3.9062 2.459 1.3355 2.4954 1.4158 2.4996 3.2539 0.28906 1.27-1.5274 3.3213-2.2633 6.4707-2.2773h4.6289l1.7344-7.123c0.95447-3.9202 2.1262-7.5205 2.6035-7.9902 1.3961-1.374 0.99775-7.0297-0.57812-8.207-0.95789-0.71559-1.8705-1.0438-2.6758-1.0117zm-358 11.062c-4.1109-5e-5 -4.5067 1.4645-0.86914 3.2187 3.7505 1.8088 4.3398 1.6842 4.3398-0.90429 0-1.7997-0.77121-2.3145-3.4707-2.3144zm18.912 1.002c0.0361 0.0398 0.0818 0.0682 0.11524 0.11133-0.0112-0.0204 4.8e-4 -0.0444-0.0117-0.0645-0.0228-0.037-0.078-0.0133-0.10352-0.0469zm-25.244 10.449c0.029 0.0752-5e-3 0.15771 0.0391 0.22851 0.0232 0.0376 0.0733 0.0362 0.0996 0.0703-0.0502-0.0978-0.0914-0.19966-0.13867-0.29883zm-73.031 24.289c-0.0154 0.13052-0.028 0.26821-0.0449 0.38672 0.0867 0.0515 0.14213 0.10688 0.17578 0.17187-0.0222-0.18425 0.0118-0.37339-0.0918-0.54101-9e-3 -0.0139-0.0301-4e-3 -0.0391-0.0176zm0.14258 0.62109c0.0409 0.14317-0.0585 0.41554-0.1875 0.72461 0.14541-0.23077 0.20692-0.45138 0.1875-0.72461zm401.48 3.6992c-1.5167 0.018-3.2786 2.4153-2.3125 3.9785 0.57812 0.93546 1.3699 0.76102 2.6738-0.54297 1.2833-1.2833 1.4629-2.1894 0.61523-3.0371-0.28882-0.28888-0.62658-0.4026-0.97656-0.39844zm-208.47 3.2188c-0.1654 0.0253-0.35523 0.0865-0.50586 0.17969-0.60278 0.3725-0.771 1.1687-0.39844 1.7715 0.37244 0.60275 1.1687 0.77097 1.7715 0.39844 0.6026-0.3725 0.77093-1.1687 0.39843-1.7715-0.27942-0.45206-0.76957-0.65406-1.2656-0.57813zm-372.45 2.207c-0.0489 0.30127-0.0166 0.62271 0.15625 0.90235 0.0971 0.15711 0.27226 0.19893 0.41601 0.29492-0.0112-0.0224-0.0243-0.0438-0.0351-0.0664-0.19849-0.36742-0.37882-0.74418-0.53711-1.1309zm561.93 2.6738c-0.19989 0.0419-0.48792 0.22028-0.83203 0.50586-1.6712 1.387-2.2537 7.0371-0.86719 8.4238 1.0611 1.0611 1.1604 0.83303 1.8809-4.8086 0.40155-3.1445 0.41803-4.2467-0.18164-4.1211zm-576.96 5.207c-1.8082-4e-3 -3.2624 0.5101-4.6289 1.5176-2.1823 1.6089-2.1582 1.6615 0.65235 2.7109 1.5908 0.59399 2.7625 1.4394 2.6035 1.8438-0.59851 1.5213-0.23409 1.9909 0.93946 1.2656 0.82932-0.51254 0.7816-1.2688-0.14454-2.3848-0.93729-1.1293-0.98589-1.627-0.10937-1.627 1.8931 0 13.998 5.8918 13.885 6.7598-0.0539 0.4129-0.0402 1.1496 0.0352 1.627 0.23874 1.5122 6.7612 0.9325 8.1348-0.72265 1.0644-1.2825-0.49154-2.504-8.0977-6.3633-6.2382-3.1652-10.256-4.6202-13.27-4.627zm-208.4 7.2656c-0.17235 0.024-0.35004 0.0854-0.50586 0.18164-0.73023 0.45132-0.7033 1.2339 0.07227 2.168 0.6617 0.79733 0.91933 1.7584 0.54297 2.1348-0.37636 0.37637-0.34754 1.2374 0.07227 1.916 0.99715 1.6134 2.584 1.5592 3.6152-0.10938 0.45294-0.73285-0.1294-2.0345-1.3027-2.8926-1.1733-0.85793-1.743-1.5548-1.2656-1.5547 0.47733 0 0.54616-0.54473 0.14648-1.1914-0.29976-0.48505-0.85792-0.72436-1.375-0.65234zm237.79 5.9297c-1.7649-0.043-2.8876 0.21847-2.5312 0.79492 0.31134 0.50382-0.40075 1.2812-1.5547 1.7363-3.2306 1.2747 4.0265 2.4268 8.207 1.3008 1.8405-0.49567 3.7922-0.62635 4.3379-0.28907 0.54575 0.33728 0.97656 0.099 0.97656-0.50586 0-0.60492-1.4317-1.5106-3.1816-2.0254-2.104-0.61899-4.489-0.9688-6.2539-1.0117zm16.396 2.2734c0.10797 0.15153 0.22242 0.29833 0.32812 0.45117 0.0592 0.0777 0.0276 0.0372 0.0488 0.0664 0.0322 0.0221 0.0568 0.0566 0.0859 0.084-0.0996-0.22119-0.2003-0.44623-0.44532-0.59766-5e-3 -3e-3 -0.0121 1e-3 -0.0176-4e-3zm-33.209 0.76367c-0.52557-3e-3 -1.0543 0.0968-1.4824 0.36133-0.67718 0.41852-0.94425 1.2514-0.57813 1.8438 0.88303 1.4288 3.6876 1.3939 4.5918-0.0723 0.65884-1.066-0.95458-2.1226-2.5312-2.1328zm564.12 0.2168c-1.7336 0.0891-2.1134 1.1353-2.7109 5.6406-0.84485 6.3685 0.1414 8.3556 4.5918 9.4726 2.9496 0.74033 6.847 6.6647 5.4238 8.2422-0.4519 0.50085-0.1554 0.53413 0.65039 0.0723 0.80572-0.46417 1.1012-1.4536 0.65039-2.2051h-0.0371c-0.4668-0.77832 0.043-0.68778 1.1582 0.21679 4.0468 3.2826 1.738-0.17806-3.832-5.748-6.3165-6.3165-6.6248-7.0103-4.0508-9.1465 2.8253-2.3448 2.2117-6.3226-1.0117-6.5078-0.30841-0.0177-0.58435-0.0498-0.83203-0.0371zm-407.9 7.0137c-0.10418 0.0159-0.21069 0.0712-0.31836 0.11524 0.0206 9e-3 0.0419 0.0164 0.0625 0.0254 0.67116 0.15976 1.151 0.30955 1.5273 0.4707-6e-3 -0.0104 1e-3 -0.0229-6e-3 -0.0332-0.27939-0.45206-0.76951-0.65406-1.2656-0.57813zm-108.53 5.8867c-0.19549 0.31152-0.41265 0.60756-0.71094 0.83399-0.18244 0.12558-0.36971 0.24556-0.55859 0.36132 6e-3 0.18719-0.0311 0.37963 0.0723 0.54688 0.33893 0.5484 0.079 1.3302-0.57812 1.7363-0.65708 0.4061-0.88041 1.241-0.50781 1.8438 0.3725 0.60272 1.1687 0.769 1.7715 0.39648 0.60275-0.3725 0.80963-1.1138 0.4707-1.6621-0.3389-0.54837-0.079-1.3303 0.57813-1.7363 0.53985-0.33365 0.68885-0.9423 0.55273-1.4883-0.0422-0.13131-0.0878-0.26123-0.13086-0.39258-0.23237-0.31797-0.58918-0.42397-0.95898-0.43945zm109.57 0.83985c-0.25166 0.17742-0.55294 0.30286-0.9043 0.37695 0.24701 6e-3 0.50137 0.0142 0.72656-0.125 0.095-0.0587 0.10483-0.17461 0.17774-0.25195zm-140.8 11.496c-0.0476 0.0114-0.0696 0.0325-0.10938 0.0723-0.31815 0.31815-0.2672 1.4582 0.14454 2.5312 0.41174 1.073 1.0198 1.6912 1.3379 1.373 0.31818-0.31815 0.23209-1.4564-0.17969-2.5293-0.36026-0.93888-0.86028-1.5275-1.1934-1.4473zm31.219 0.97461c0.0178 0.0357-2e-3 0.0768 0.0195 0.11133 0.22666 0.36677 0.60838 0.50685 1.0098 0.52734-0.33551-0.21682-0.67935-0.42022-1.0176-0.63281-4e-3 -2e-3 -8e-3 -4e-3 -0.0117-6e-3zm509.8 2e-3c-0.86316 0-3.6875 4.933-3.6875 6.4356 0 1.4649 1.2915 0.13107 2.8926-2.9648 0.98712-1.909 1.3454-3.4707 0.79492-3.4707zm19.379 5.9648c-0.70056-0.0149-1.8075 0.50164-3.6875 1.4824-2.3091 1.2046-3.1902 1.2888-3.2168 0.28906-0.0424-1.5826-3.4356 2.5611-3.4356 4.1953 0 0.59262 0.77256 0.44284 1.6992-0.32617 1.9063-1.5822 4.0859-0.69234 4.0859 1.6641-6e-5 2.3556 2.5096 2.733 4.5918 0.68555 1.0947-1.0764 1.6418-3.0939 1.373-4.9883-0.29236-2.061-0.50949-2.9828-1.4102-3.002zm-128.64 0.2539c-0.82404-0.0524-1.5144 0.92083-1.8086 2.9277-0.71314 4.8636 1.0256 6.9066 4.1582 4.918 1.1318-0.7185 1.1541-1.768 0.14454-4.6641-0.72223-2.0715-1.6702-3.1292-2.4941-3.1816zm103.37 7.8809-6.3262 6.2559c-3.4726 3.445-7.0546 6.2539-7.9902 6.2539-0.93573 0-1.9586 0.98832-2.2773 2.207-0.3197 1.2223-1.8164 2.3879-3.3262 2.6016-2.277 0.32214-2.6942 0.95566-2.3867 3.7969 0.20325 1.8783 1.8128 5.5237 3.543 8.0996 2.7097 4.0342 3.7255 4.6992 7.3398 4.6992 2.3078 0 4.5529 0.39548 5.0254 0.86719 0.47266 0.47174 1.4888 0.33622 2.2422-0.28906 0.75342-0.6253 1.7075-0.78666 2.1328-0.36133 0.42523 0.42532 0.45893-0.80353 0.0723-2.748-0.41992-2.0993-0.1886-3.8641 0.57812-4.3379 0.71008-0.43884 2.0526-2.5898 2.9648-4.7734 0.91235-2.1836 2.2534-3.9766 3-3.9766 1.0203 0 1.0187-0.43312-0.0352-1.6992-0.76904-0.92664-1.0884-2.1561-0.72266-2.748 0.36584-0.59186-0.46414-1.3732-1.8457-1.7344-2.48-0.64853-2.478-0.7036 0.6875-3.8691l3.2188-3.1816-2.9648-2.5312-2.9297-2.5293zm-60.25 4.582c8e-3 0.0398 0.0173 0.0793 0.0254 0.11914l4.5488 5.7129c2.5696 3.2273 4.6641 6.7671 4.6641 7.8457s1.3018 3.1696 2.8926 4.6641 2.9179 3.5521 2.9277 4.5547c0.0221 2.2642 9.3719 12.817 10.955 12.365 0.63635-0.18185 1.3347-1.5684 1.5547-3.1094 0.22003-1.541 0.92453-3.463 1.5547-4.2305 1.3317-1.6221 0.13659-4.1452-1.4824-3.1445-1.2935 0.79935-8.0818-5.3195-7.3027-6.5801 0.2934-0.47467-2.2689-3.6348-5.6758-7.0156-3.407-3.3808-6.4248-6.7975-6.6894-7.5918-0.26471-0.79431-2.1733-1.9312-4.2656-2.5312zm92.074 12.953c-1.2675 0-1.6948 1.1142-1.5898 3.9062 0.16028 4.2625 1.4752 3.7746 2.6387-0.94141 0.55084-2.2327 0.27335-2.9648-1.0488-2.9648zm-11.93 1.1582c-0.76892-0.0175-1.7448-2e-3 -2.9648 0.0352-3.6019 0.10855-7.0476 0.72053-7.6289 1.3379-1.9892 2.1128-3.7786 13.436-2.3867 15.113 0.70184 0.84558 0.97266 2.0375 0.57813 2.6758-0.59698 0.96585 1.5164 5.8926 2.5312 5.8926 0.17261 0 5e-3 -2.0709-0.39844-4.5918-1.4105-8.8215 2.2856-10.8 4.0508-2.168 0.98016 4.7926 2.9949 5.0776 3.0723 0.4336 0.0378-2.2648-0.90782-4.2813-2.7832-5.8945-3.4114-2.9343-2.4106-5.6584 1.6992-4.627 1.6562 0.41571 2.748 0.18091 2.748-0.57812 0-0.75504-1.7011-1.1222-4.2305-0.9043-2.8686 0.24716-4.4432-0.16935-4.8086-1.2656-0.80719-2.4217 3.0797-4.6774 6.7598-3.9414 1.7675 0.35346 4.1468 0.12793 5.2793-0.50586 1.1508-0.64401 0.78923-0.95914-1.5176-1.0117zm18.32 2.7988c4e-3 0.0138 9e-3 0.0274 0.0137 0.041 5e-3 0.0134-3e-3 -0.0187-0.01-0.041-9.8e-4 -7.8e-4 -3e-3 7.8e-4 -4e-3 0zm-0.0293 0.01c-3e-3 0.0262-9e-3 0.0519-0.0117 0.0781 5e-3 -0.0316 0.0106-0.0423 0.0137-0.0469-5.5e-4 -6e-3 1e-3 -0.0233-2e-3 -0.0312zm3.5039 3.0117c-1.8224 0.10907-0.4814 1.797 3.1445 3.1816 2.7664 1.0564 2.8709 1.3178 1.1211 2.6035-1.1973 0.87976-1.5847 2.0006-1.0117 2.9277 0.6427 1.0399 1.1948 1.1269 1.7344 0.25391 1.0776-1.7436 11.875 3.9945 14.209 7.5566 1.6647 2.5407 1.6085 2.9578-0.39649 5.2422-1.8284 2.0831-1.8542 2.3884-0.2539 1.8066 1.0481-0.38098 3.7839 0.29199 6.0742 1.5195 4.6651 2.5003 8.9352 2.936 8.4961 0.86719-0.15906-0.74948 1.1267-1.892 2.8574-2.5312 2.5311-0.93491 3.6046-0.73341 5.4941 0.97656 1.2919 1.1692 2.3514 2.8147 2.3516 3.6523 0 0.83768 1.6917 2.0063 3.7598 2.6035 6.0018 1.733 6.3268 1.4162 2.1328-2.1699-2.1726-1.8576-4.0698-4.5798-4.2305-6.0371-0.16058-1.4572-0.34351-2.9635-0.39648-3.3633-0.23828-1.7954-13.252-9.57-20.355-12.148l-7.8457-2.8203-2.7109 2.5312c-2.5966 2.4394-2.8018 2.4546-4.9551 0.50586-1.2364-1.1189-1.9682-2.7611-1.627-3.6504 0.63513-1.6553-0.10824-2.0692-5.8203-3.3262-0.76825-0.16907-1.351-0.20678-1.7715-0.18164zm13.236 2.5957c-0.0137 0.0267-0.0273 0.0534-0.041 0.0801-0.0653 0.14436-0.12864 0.28835-0.19141 0.4336 0.10943-0.16981 0.2121-0.31373 0.23242-0.51367zm-33.705 1.8691c-6e-3 0.0234-3e-3 0.0427-8e-3 0.0664 2e-3 -0.0222 5e-3 -0.0443 8e-3 -0.0664zm79.73 1.502c-0.9798-0.0525-1.1048 1.3053 0.36133 3.543 1.2972 1.9796 2.2953 2.5132 3.1094 1.6992 0.81403-0.81406 0.4942-1.8864-0.93945-3.4707-1.0716-1.1841-1.9434-1.7399-2.5312-1.7715zm-66.307 0.65039c-0.66571 0.0325-1.3282 0.13584-1.916 0.36133-0.9577 0.36749-1.3952 1.2388-0.97656 1.916 0.93097 1.5063 6.9042 0.93955 6.9043-0.65039 0-1.0571-2.0145-1.7244-4.0117-1.627zm64.463 3.8672c-0.46625 0.0628-1.1278 0.41136-1.9531 1.1582-1.1005 0.99594-2.5813 1.8066-3.2891 1.8066-1.72 0-2.88 2.0307-1.9902 3.4707 1.1434 1.8502 2.7869 1.3732 5.8945-1.7344 2.4411-2.441 2.7365-4.8895 1.3379-4.7012zm-315.88 2.7676c-0.1974 0.23522-0.2989 0.48147-0.29493 0.78515 0.0872-0.25916 0.17992-0.52084 0.29493-0.78515zm237.9 1.8242c-0.062 9e-3 -0.12396 0.0487-0.18945 0.0684 0.0888-0.0135 0.17799-0.0258 0.26758-0.0332-0.0304 3e-3 -0.0476-0.0385-0.0781-0.0352zm24.994 0.30469c-2e-3 -1e-3 -6e-3 -1e-3 -0.0117 2e-3 -0.0208 0.0104-0.0249 0.0407-0.0371 0.0605-6e-3 0.0125-0.0132 0.0247-0.0195 0.0371 0.0366-0.0424 0.0783-0.0937 0.0684-0.0996zm-76.512 2.4805c-0.57474 0.0412-0.91655 0.21326-1.1211 0.54297-0.98846 1.5933 3.2096 3.812 9.002 4.7363 9.122 1.4557 11.256 1.8918 11.822 2.457 0.87927 0.87933 2.505 0.69099 2.4961-0.28906-0.0173-1.8916-7.6224-5.9658-9.9785-5.3496-1.3384 0.34998-4.7331-0.14254-7.5215-1.0859-2.2207-0.75134-3.7413-1.0803-4.6992-1.0117zm-187.72 0.28711c-0.11299 0.2449-0.11855 0.478-0.0684 0.74805 0.0242-0.2493 0.0316-0.50006 0.0684-0.74805zm341.78 4.8106c-0.35712-0.0139-0.73012 0.0704-1.084 0.28906-0.0161 0.01-8e-3 0.0232-0.0234 0.0332 0.39019-0.12062 0.78289-0.22543 1.1836-0.29687-0.0271-2e-3 -0.0489-0.0243-0.0762-0.0254zm-96.098 0.97656c-2.9283 0.40576-9.7304 6.1052-8.6777 7.8086 0.51856 0.83899 2.0329 0.50362 4.6641-1.0488 5.4214-3.1988 6.8631-5.0668 5.0254-6.5801-0.22461-0.18494-0.59341-0.23764-1.0117-0.17969zm-12.461 6.5977c8e-3 9e-3 0.0169 0.0183 0.0254 0.0273 0.064 0.0721 0.12936 0.1447 0.19336 0.2168 0.0681 0.0767 0.1298 0.15376 0.18945 0.23047-0.0325-0.1043 5e-3 -0.21563-0.0547-0.3125-0.0781-0.12636-0.24696-0.0754-0.35351-0.16211zm28.189 4.0312c-0.33038 0.0547-0.36419 0.27524-0.10937 0.6875 0.41809 0.67654-0.56444 2.0924-2.1699 3.1445-1.6056 1.0521-2.6554 2.3256-2.3496 2.8203 0.30572 0.49463-0.23811 1.5587-1.1934 2.3516-1.2567 1.043-1.394 1.8206-0.50586 2.8906 0.67505 0.81342 0.83429 1.7489 0.32617 2.0625-1.836 1.1333-8.9125-0.10186-9.5449-1.6641-0.90552-2.2374-3.543-2.5289-3.543-0.39844 0 0.96817-1.2447 2.3352-2.7852 3.0371-1.5874 0.72324-2.5742 1.9146-2.2402 2.7852 0.32416 0.84482 0.21777 2.1645-0.25391 2.9277-0.61969 1.0027-1.2955 0.81768-2.4219-0.72266-1.5047-2.0579-1.5668-2.0604-1.6992 0.10742-0.0754 1.2352-0.0576 2.8674 0.0351 3.6172 0.17712 1.4303-6.8295 7.303-8.7129 7.3027-1.1379-2e-5 -6.4405 2.6682-12.871 6.4707-4.2306 2.5015-4.9768 6.4479-1.8789 9.8711 1.1391 1.2587 1.5707 2.9025 1.084 4.1582-0.75671 1.9524-0.89834 1.9388-2.459-0.18164-0.95514-1.2979-1.6621-1.6201-1.6621-0.75976 0 0.81879 1.0839 3.039 2.4219 4.918 2.7012 3.7935 6.1624 18.392 5.3516 22.633-0.40161 2.101 0.24887 3.1186 2.8184 4.4473 3.1165 1.6116 3.5968 1.5465 7.6289-1.1934 2.4017-1.632 5.9525-2.9277 8.0273-2.9277 2.3657 3e-5 4.8478-1.0538 6.832-2.8926 1.7164-1.5908 4.4624-2.8926 6.0742-2.8926 1.6118 3e-5 4.5185-0.56175 6.4727-1.2305 5.3425-1.8282 14.34 1.7871 16.775 6.7266 1.0065 2.042 2.0995 3.7083 2.459 3.7227 0.35931 0.0145 1.5693-1.8732 2.6758-4.1934 1.484-3.1121 2.3338-3.8849 3.2891-2.9297 0.9552 0.95526 0.96894 2.1057-0.0352 4.3027-1.7776 3.9016-1.7356 4.5792 0.25195 2.9297 1.1909-0.98831 1.8421-0.979 2.4238-0.0371 0.43848 0.70953 0.50861 1.5889 0.14453 1.9531-0.3642 0.36417 0.63213 2.1792 2.2051 4.0488 1.5731 1.8695 2.8555 4.138 2.8555 5.0254 0 2.5219 7.1221 4.0134 9.4726 1.9883 1.6982-1.4629 2.1851-1.383 4.0488 0.65039 2.728 2.9763 2.5362 2.9894 5.1719-0.36133 1.3246-1.684 3.246-2.7567 4.6641-2.6016 1.655 0.18109 2.5086-0.47664 2.7109-2.0625 0.37238-2.9188 2.5112-9.0581 5.2422-15.039 2.7264-5.9714 5.6218-29.778 3.543-29.178-1.0944 0.31574-7.0859-3.9347-7.0859-5.0254 0-0.53036-1.2766-2.3451-2.8555-4.0488s-2.6298-3.5383-2.3145-4.0488c0.31549-0.51044-0.47894-1.2539-1.7715-1.6641-3.179-1.009-6.9414-8.7313-6.9414-14.244 0-2.9816-0.75064-5.158-2.2422-6.5078-1.2366-1.1191-2.608-3.6756-3.0371-5.6777-0.42896-2.0021-1.0528-4.1351-1.4102-4.7363-0.87244-1.4672-3.5103 5.991-3.6523 10.34-0.11444 3.4997-4.0078 13.307-5.2774 13.307-0.37646 0-3.5385-2.1065-7.0508-4.7012-5.9684-4.4091-6.3626-4.9565-5.6406-8.3867 0.42499-2.0187 1.2394-4.1689 1.8086-4.7734 1.3704-1.4552 1.3397-4.4314-0.0371-3.5801-0.59235 0.36612-1.3598 0.17261-1.7344-0.43359-0.3747-0.60623-1.612-1.0432-2.7129-0.97461-1.1011 0.0686-3.2248-0.30146-4.7363-0.79688-0.92102-0.30188-1.5485-0.41607-1.8789-0.36132zm-234.83 4.7363c-0.35889 0.0592-0.61523 0.54198-0.61523 1.3027 0 3.1326-3.5406 7.4797-7.7363 9.4707-4.6357 2.1998-6.5032 6.0579-5.4961 11.426 0.48694 2.596 0.12171 4.7008-1.2285 6.7617-2.0079 3.0644-1.8442 5.9922 0.75977 12.582 1.0567 2.6737 1.7331 3.05 4.3027 2.4219 1.6754-0.40958 3.425-1.328 3.9043-2.0254 1.0572-1.5381 2.3404-6.3932 4.916-18.619 1.0725-5.0906 2.402-10.11 2.9297-11.137 1.122-2.1822 0.12359-11.208-1.3379-12.111-0.13763-0.0851-0.27882-0.092-0.39844-0.0723zm326.37 26.719c-0.35498 0.0327-0.66235 0.15653-0.86719 0.36133-0.82202 0.82208-0.35358 1.7512 1.4824 3.0371 3.0765 2.1548 4.0355 2.3014 4.9883 0.75977 0.85205-1.3787-2.9856-4.0029-5.2422-4.1582-0.13019-9e-3 -0.24298-0.0109-0.36133 0zm-775.66 22.978c-0.0164 3e-3 -0.0327 7e-3 -0.0488 0.0117-0.0109 8e-3 -0.0452 0.0174-0.0332 0.0234 0.018 8e-3 0.0378 5e-3 0.0586-2e-3 0.0111-9e-3 0.0127-0.0238 0.0234-0.0332zm798.58 27.818c-0.0667-5e-3 -0.13983-5e-3 -0.18164 0.0371-0.31818 0.31815 0.44053 2.0455 1.6992 3.832 3.5577 5.0501 4.1739 8.2213 2.1699 11.279-1.6487 2.5162-1.5901 2.7799 0.50586 3.3281 1.3353 0.34918 2.2422 1.5696 2.2422 3 0 3.736 2.1453 2.8658 3.2891-1.3379 0.56274-2.068 1.6215-3.6297 2.3496-3.4707 0.72821 0.15909 1.3027-0.17551 1.3027-0.75977 0-0.58429 0.3662-1.9924 0.7949-3.1094 0.6127-1.5965 0.3407-1.8448-1.2656-1.2285-1.4619 0.56155-2.2369 0.0863-2.6758-1.5918-0.47882-1.831-0.93293-2.0367-2.168-1.0117-1.2255 1.0171-1.7816 0.8389-2.3867-0.83204-1.0779-2.9764-4.6757-8.0631-5.6758-8.1348zm-76.973 23.139c-1.7946 0.0633-1.7352 0.58188-1.0488 2.3144 0.54248 1.3692 1.2402 3.4068 1.5898 4.5195 0.65619 2.0887 5.8412 2.2454 6.0391 0.18164 0.055-0.57294 0.51073-1.9684 1.0117-3.1094 1.227-2.7953 0.20071-3.5599-5.1328-3.834-1.0465-0.0538-1.8609-0.0934-2.459-0.0723zm77.623 0.28906c-1.8367 0.18286-4.627 2.8973-4.627 4.8086 0 0.69913-1.3636 2.373-3.0371 3.6894-4.9672 3.9072-12.475 14.655-8.5332 12.219 0.63129-0.39014 2.063-0.18073 3.1816 0.4707 2.7389 1.595 4.3851 1.5502 5.8223-0.18164 1.2529-1.5096 1.4082-2.0058 1.4082-4.9531 0-0.9834 1.3267-3.1333 2.9297-4.7363 1.6029-1.603 2.6128-3.3769 2.2422-3.9766-0.37067-0.59973 0.12426-1.4249 1.1191-1.8066 2.251-0.8638 2.3756-4.5819 0.18164-5.4238-0.10681-0.041-0.20587-0.0974-0.32617-0.10938-0.11279-0.0113-0.2389-0.0122-0.36133 0zm-657.66 39.836c-0.0699 0.12757-0.13817 0.2284-0.16015 0.36719 0.051-0.12342 0.1068-0.24473 0.16015-0.36719zm-42.506 4.9609c-0.36801 2e-3 -0.71612 0.0712-1.0117 0.25391-1.0633 0.6571-0.87451 1.3004 0.75782 2.4941 1.21 0.8847 2.0751 1.842 1.916 2.1328-0.15909 0.29077-0.28906 0.83766-0.28906 1.1934 0 0.35571 0.56321 0.30297 1.2305-0.10938 0.82932-0.51257 0.78161-1.2689-0.14453-2.3848-0.74515-0.89783-0.92179-1.627-0.39844-1.627s0.3468-0.59457-0.36133-1.3027c-0.4426-0.44257-1.0858-0.65405-1.6992-0.65039zm12.98 2.1699c-0.57947 0.13983-0.72418 1.1529-0.6875 2.9648 0.0537 2.6501-0.37925 3.1301-2.6035 2.8906-1.5405-0.16583-2.3649 0.20269-1.9531 0.86914 0.3927 0.63538 2.2169 1.1562 4.0508 1.1562 1.8339 6e-5 3.6184 0.4692 3.9766 1.0488 0.71854 1.1626 2.824 1.0694 4.8809-0.2168 0.886-0.55402-0.0171-2.1871-2.7109-4.8809-2.4422-2.4422-3.8592-3.7074-4.6641-3.832-0.10062-0.0156-0.2063-0.02-0.28907 0zm14.139 8.1289c-0.10862 0.0695-0.21529 0.14193-0.32421 0.21093 9e-3 0.022 0.0164 0.0445 0.0254 0.0664 0.0369-0.0183 0.0795 3e-3 0.11523-0.0195 0.0975-0.0603 0.10927-0.17798 0.18359-0.25781z"/>
 <g fill="#18c28d" stroke-opacity=".79755" stroke-width="2.6523">
  <circle cx="706.37" cy="296.69" r="6"/>
  <circle cx="718.04" cy="314.72" r="6"/>
  <circle cx="291.15" cy="215.43" r="6"/>
  <circle cx="654.89" cy="272.81" r="6"/>
  <circle cx="925" cy="472.92" r="6"/>
  <circle cx="372.75" cy="434.03" r="6"/>
  <circle cx="553.42" cy="473.27" r="6"/>
  <circle cx="496.14" cy="172.75" r="6"/>
 </g>
</svg>
